M48
;DRILL file {KiCad 5.0.1+dfsg1-2} date So 18 Nov 2018 21:03:09 CET
;FORMAT={-:-/ absolute / metric / decimal}
FMAT,2
METRIC,TZ
T1C0.400
T2C0.970
T3C1.000
T4C1.650
%
G90
G05
M71
T1
X139.7Y-89.916
X139.7Y-101.854
X139.954Y-71.882
X140.716Y-108.712
X140.97Y-83.058
X141.986Y-97.155
X142.494Y-121.412
X143.51Y-83.058
X143.51Y-108.712
X143.51Y-131.76
X145.805Y-99.822
X146.05Y-83.058
X146.05Y-108.712
X146.605Y-128.016
X148.59Y-83.058
X148.844Y-108.712
X149.143Y-62.738
X151.638Y-83.312
X151.892Y-108.712
X152.146Y-98.298
X152.4Y-58.419
X152.654Y-87.63
X153.162Y-103.378
X155.194Y-82.296
X155.194Y-108.712
X155.448Y-95.758
X157.48Y-83.058
X158.496Y-127.508
X159.385Y-89.535
X160.274Y-126.238
X160.782Y-100.838
X161.036Y-62.738
X161.29Y-102.87
X161.544Y-58.166
X162.306Y-124.968
X162.814Y-90.678
X163.068Y-64.516
X163.576Y-133.35
X164.084Y-123.952
X164.592Y-65.786
X165.1Y-76.454
X165.1Y-106.68
X165.354Y-95.504
X165.354Y-113.792
X165.608Y-122.428
X165.862Y-67.056
X166.37Y-105.41
X166.37Y-107.95
X166.624Y-68.58
X170.18Y-56.515
X170.815Y-74.168
X170.815Y-95.25
X170.815Y-116.078
X171.45Y-59.944
X171.45Y-80.264
X171.45Y-100.838
X171.45Y-125.73
X172.085Y-71.12
X172.085Y-91.948
X172.965Y-113.284
X175.768Y-93.98
X176.276Y-74.168
X176.784Y-115.062
X179.832Y-127.
X180.594Y-107.188
X181.102Y-63.5
X181.102Y-64.77
X181.102Y-67.056
X181.356Y-85.09
X181.356Y-123.19
X181.356Y-125.222
X181.61Y-83.566
X181.61Y-87.122
X181.61Y-103.632
X181.61Y-105.664
X182.118Y-119.888
X182.245Y-59.055
X182.245Y-79.375
X182.245Y-90.805
X182.245Y-99.822
X182.245Y-111.506
X182.88Y-70.485
X182.88Y-131.572
X190.5Y-64.77
X190.5Y-74.93
X190.5Y-95.25
X190.5Y-105.41
X190.5Y-115.316
X190.5Y-125.73
T2
X178.82Y-57.91
X178.82Y-60.2
X178.82Y-69.34
X178.82Y-71.63
X183.64Y-61.21
X183.64Y-63.24
X183.64Y-65.27
X183.64Y-67.3
X185.42Y-62.225
X185.42Y-64.255
X185.42Y-66.285
X185.42Y-68.315
X178.82Y-98.55
X178.82Y-100.84
X178.82Y-109.98
X178.82Y-112.27
X183.64Y-101.85
X183.64Y-103.88
X183.64Y-105.91
X183.64Y-107.94
X185.42Y-102.865
X185.42Y-104.895
X185.42Y-106.925
X185.42Y-108.955
X178.82Y-78.23
X178.82Y-80.52
X178.82Y-89.66
X178.82Y-91.95
X183.64Y-81.53
X183.64Y-83.56
X183.64Y-85.59
X183.64Y-87.62
X185.42Y-82.545
X185.42Y-84.575
X185.42Y-86.605
X185.42Y-88.635
X178.82Y-118.87
X178.82Y-121.16
X178.82Y-130.3
X178.82Y-132.59
X183.64Y-122.17
X183.64Y-124.2
X183.64Y-126.23
X183.64Y-128.26
X185.42Y-123.185
X185.42Y-125.215
X185.42Y-127.245
X185.42Y-129.275
T3
X139.7Y-84.87
X139.7Y-106.68
X142.24Y-84.87
X142.24Y-106.68
X144.78Y-84.87
X144.78Y-106.68
X147.32Y-84.87
X147.32Y-106.68
X149.86Y-84.87
X149.86Y-106.68
X152.4Y-84.87
X152.4Y-106.68
X154.22Y-89.36
X154.22Y-91.9
X154.22Y-94.44
X154.22Y-96.98
X154.22Y-99.52
X154.22Y-102.06
X154.94Y-84.87
X154.94Y-106.68
X156.76Y-89.36
X156.76Y-91.9
X156.76Y-94.44
X156.76Y-96.98
X156.76Y-99.52
X156.76Y-102.06
X157.48Y-84.87
X157.48Y-106.68
X160.02Y-84.87
X160.02Y-106.68
X162.56Y-84.87
X162.56Y-106.68
T4
X184.53Y-97.28
X184.53Y-113.54
X184.53Y-76.96
X184.53Y-93.22
X184.53Y-117.6
X184.53Y-133.86
X184.53Y-56.64
X184.53Y-72.9
T0
M30
