G04 #@! TF.GenerationSoftware,KiCad,Pcbnew,5.0.1+dfsg1-2*
G04 #@! TF.CreationDate,2018-11-18T21:04:06+01:00*
G04 #@! TF.ProjectId,icestick-rj45-shield,696365737469636B2D726A34352D7368,rev?*
G04 #@! TF.SameCoordinates,Original*
G04 #@! TF.FileFunction,Legend,Top*
G04 #@! TF.FilePolarity,Positive*
%FSLAX46Y46*%
G04 Gerber Fmt 4.6, Leading zero omitted, Abs format (unit mm)*
G04 Created by KiCad (PCBNEW 5.0.1+dfsg1-2) date So 18 Nov 2018 21:04:06 CET*
%MOMM*%
%LPD*%
G01*
G04 APERTURE LIST*
%ADD10C,0.150000*%
%ADD11C,0.120000*%
G04 APERTURE END LIST*
D10*
G04 #@! TO.C,U8*
X153035000Y-103505000D02*
X158115000Y-103505000D01*
X153035000Y-88265000D02*
X153035000Y-103505000D01*
X158115000Y-88265000D02*
X153035000Y-88265000D01*
X158115000Y-103505000D02*
X158115000Y-88265000D01*
X138430000Y-107950000D02*
X163830000Y-107950000D01*
X138430000Y-105410000D02*
X138430000Y-107950000D01*
X163830000Y-105410000D02*
X138430000Y-105410000D01*
X163830000Y-107950000D02*
X163830000Y-105410000D01*
X163830000Y-83566000D02*
X163830000Y-86106000D01*
X138430000Y-83566000D02*
X163830000Y-83566000D01*
X138430000Y-86106000D02*
X138430000Y-83566000D01*
X163830000Y-86106000D02*
X138430000Y-86106000D01*
G04 #@! TO.C,J4*
X179832000Y-120396000D02*
X180848000Y-120396000D01*
X181605013Y-120800809D02*
X181351013Y-120800809D01*
X181097013Y-120292809D02*
X181605013Y-120800809D01*
X181351013Y-120800809D02*
X181605013Y-120800809D01*
X181605013Y-120800809D02*
X181605013Y-120546809D01*
X180340000Y-120396000D02*
X179832000Y-119634000D01*
X181097013Y-119784809D02*
X181605013Y-120292809D01*
X180848000Y-119634000D02*
X180340000Y-120396000D01*
X179832000Y-119634000D02*
X180848000Y-119634000D01*
X180340000Y-118872000D02*
X180340000Y-121158000D01*
X181605013Y-120292809D02*
X181605013Y-120038809D01*
X181351013Y-120292809D02*
X181605013Y-120292809D01*
X181605013Y-120292809D02*
X181351013Y-120292809D01*
X193040000Y-116205000D02*
X193040000Y-135255000D01*
X177165000Y-135255000D02*
X177165000Y-116205000D01*
X177165000Y-116205000D02*
X193040000Y-116205000D01*
X193040000Y-135255000D02*
X177165000Y-135255000D01*
X180340000Y-130302000D02*
X180340000Y-132588000D01*
X179832000Y-131064000D02*
X180848000Y-131064000D01*
X180848000Y-131064000D02*
X180340000Y-131826000D01*
X180340000Y-131826000D02*
X179832000Y-131064000D01*
X179832000Y-131826000D02*
X180848000Y-131826000D01*
X181097013Y-131214809D02*
X181605013Y-131722809D01*
X181605013Y-131722809D02*
X181351013Y-131722809D01*
X181351013Y-131722809D02*
X181605013Y-131722809D01*
X181605013Y-131722809D02*
X181605013Y-131468809D01*
X181097013Y-131722809D02*
X181605013Y-132230809D01*
X181605013Y-132230809D02*
X181351013Y-132230809D01*
X181351013Y-132230809D02*
X181605013Y-132230809D01*
X181605013Y-132230809D02*
X181605013Y-131976809D01*
G04 #@! TO.C,J3*
X179832000Y-100076000D02*
X180848000Y-100076000D01*
X181605013Y-100480809D02*
X181351013Y-100480809D01*
X181097013Y-99972809D02*
X181605013Y-100480809D01*
X181351013Y-100480809D02*
X181605013Y-100480809D01*
X181605013Y-100480809D02*
X181605013Y-100226809D01*
X180340000Y-100076000D02*
X179832000Y-99314000D01*
X181097013Y-99464809D02*
X181605013Y-99972809D01*
X180848000Y-99314000D02*
X180340000Y-100076000D01*
X179832000Y-99314000D02*
X180848000Y-99314000D01*
X180340000Y-98552000D02*
X180340000Y-100838000D01*
X181605013Y-99972809D02*
X181605013Y-99718809D01*
X181351013Y-99972809D02*
X181605013Y-99972809D01*
X181605013Y-99972809D02*
X181351013Y-99972809D01*
X193040000Y-95885000D02*
X193040000Y-114935000D01*
X177165000Y-114935000D02*
X177165000Y-95885000D01*
X177165000Y-95885000D02*
X193040000Y-95885000D01*
X193040000Y-114935000D02*
X177165000Y-114935000D01*
X180340000Y-109982000D02*
X180340000Y-112268000D01*
X179832000Y-110744000D02*
X180848000Y-110744000D01*
X180848000Y-110744000D02*
X180340000Y-111506000D01*
X180340000Y-111506000D02*
X179832000Y-110744000D01*
X179832000Y-111506000D02*
X180848000Y-111506000D01*
X181097013Y-110894809D02*
X181605013Y-111402809D01*
X181605013Y-111402809D02*
X181351013Y-111402809D01*
X181351013Y-111402809D02*
X181605013Y-111402809D01*
X181605013Y-111402809D02*
X181605013Y-111148809D01*
X181097013Y-111402809D02*
X181605013Y-111910809D01*
X181605013Y-111910809D02*
X181351013Y-111910809D01*
X181351013Y-111910809D02*
X181605013Y-111910809D01*
X181605013Y-111910809D02*
X181605013Y-111656809D01*
D11*
G04 #@! TO.C,C1*
X169171252Y-57710000D02*
X168648748Y-57710000D01*
X169171252Y-59130000D02*
X168648748Y-59130000D01*
G04 #@! TO.C,C4*
X145041252Y-101525000D02*
X144518748Y-101525000D01*
X145041252Y-102945000D02*
X144518748Y-102945000D01*
G04 #@! TO.C,C2*
X173728748Y-59130000D02*
X174251252Y-59130000D01*
X173728748Y-57710000D02*
X174251252Y-57710000D01*
G04 #@! TO.C,U2*
X147217918Y-61180592D02*
X150167918Y-61180592D01*
X149017918Y-57960592D02*
X147217918Y-57960592D01*
G04 #@! TO.C,C12*
X169171252Y-98350000D02*
X168648748Y-98350000D01*
X169171252Y-99770000D02*
X168648748Y-99770000D01*
G04 #@! TO.C,C13*
X173728748Y-99770000D02*
X174251252Y-99770000D01*
X173728748Y-98350000D02*
X174251252Y-98350000D01*
G04 #@! TO.C,C14*
X169171252Y-118670000D02*
X168648748Y-118670000D01*
X169171252Y-120090000D02*
X168648748Y-120090000D01*
G04 #@! TO.C,C15*
X173728748Y-120090000D02*
X174251252Y-120090000D01*
X173728748Y-118670000D02*
X174251252Y-118670000D01*
G04 #@! TO.C,C16*
X169171252Y-78030000D02*
X168648748Y-78030000D01*
X169171252Y-79450000D02*
X168648748Y-79450000D01*
G04 #@! TO.C,C17*
X173728748Y-79450000D02*
X174251252Y-79450000D01*
X173728748Y-78030000D02*
X174251252Y-78030000D01*
G04 #@! TO.C,R1*
X181348748Y-74370000D02*
X181871252Y-74370000D01*
X181348748Y-72950000D02*
X181871252Y-72950000D01*
G04 #@! TO.C,R2*
X181348748Y-56590000D02*
X181871252Y-56590000D01*
X181348748Y-55170000D02*
X181871252Y-55170000D01*
G04 #@! TO.C,R3*
X181348748Y-94690000D02*
X181871252Y-94690000D01*
X181348748Y-93270000D02*
X181871252Y-93270000D01*
G04 #@! TO.C,R4*
X181348748Y-76910000D02*
X181871252Y-76910000D01*
X181348748Y-75490000D02*
X181871252Y-75490000D01*
G04 #@! TO.C,R5*
X181348748Y-115010000D02*
X181871252Y-115010000D01*
X181348748Y-113590000D02*
X181871252Y-113590000D01*
G04 #@! TO.C,R6*
X181348748Y-97230000D02*
X181871252Y-97230000D01*
X181348748Y-95810000D02*
X181871252Y-95810000D01*
G04 #@! TO.C,R7*
X181348748Y-135330000D02*
X181871252Y-135330000D01*
X181348748Y-133910000D02*
X181871252Y-133910000D01*
G04 #@! TO.C,R8*
X181348748Y-117550000D02*
X181871252Y-117550000D01*
X181348748Y-116130000D02*
X181871252Y-116130000D01*
D10*
G04 #@! TO.C,U6*
X169375000Y-120680000D02*
X168000000Y-120680000D01*
X169375000Y-130805000D02*
X173525000Y-130805000D01*
X169375000Y-120655000D02*
X173525000Y-120655000D01*
X169375000Y-130805000D02*
X169375000Y-130700000D01*
X173525000Y-130805000D02*
X173525000Y-130700000D01*
X173525000Y-120655000D02*
X173525000Y-120760000D01*
X169375000Y-120655000D02*
X169375000Y-120680000D01*
G04 #@! TO.C,U7*
X169375000Y-100360000D02*
X168000000Y-100360000D01*
X169375000Y-110485000D02*
X173525000Y-110485000D01*
X169375000Y-100335000D02*
X173525000Y-100335000D01*
X169375000Y-110485000D02*
X169375000Y-110380000D01*
X173525000Y-110485000D02*
X173525000Y-110380000D01*
X173525000Y-100335000D02*
X173525000Y-100440000D01*
X169375000Y-100335000D02*
X169375000Y-100360000D01*
G04 #@! TO.C,J1*
X179832000Y-59436000D02*
X180848000Y-59436000D01*
X181605013Y-59840809D02*
X181351013Y-59840809D01*
X181097013Y-59332809D02*
X181605013Y-59840809D01*
X181351013Y-59840809D02*
X181605013Y-59840809D01*
X181605013Y-59840809D02*
X181605013Y-59586809D01*
X180340000Y-59436000D02*
X179832000Y-58674000D01*
X181097013Y-58824809D02*
X181605013Y-59332809D01*
X180848000Y-58674000D02*
X180340000Y-59436000D01*
X179832000Y-58674000D02*
X180848000Y-58674000D01*
X180340000Y-57912000D02*
X180340000Y-60198000D01*
X181605013Y-59332809D02*
X181605013Y-59078809D01*
X181351013Y-59332809D02*
X181605013Y-59332809D01*
X181605013Y-59332809D02*
X181351013Y-59332809D01*
X193040000Y-55245000D02*
X193040000Y-74295000D01*
X177165000Y-74295000D02*
X177165000Y-55245000D01*
X177165000Y-55245000D02*
X193040000Y-55245000D01*
X193040000Y-74295000D02*
X177165000Y-74295000D01*
X180340000Y-69342000D02*
X180340000Y-71628000D01*
X179832000Y-70104000D02*
X180848000Y-70104000D01*
X180848000Y-70104000D02*
X180340000Y-70866000D01*
X180340000Y-70866000D02*
X179832000Y-70104000D01*
X179832000Y-70866000D02*
X180848000Y-70866000D01*
X181097013Y-70254809D02*
X181605013Y-70762809D01*
X181605013Y-70762809D02*
X181351013Y-70762809D01*
X181351013Y-70762809D02*
X181605013Y-70762809D01*
X181605013Y-70762809D02*
X181605013Y-70508809D01*
X181097013Y-70762809D02*
X181605013Y-71270809D01*
X181605013Y-71270809D02*
X181351013Y-71270809D01*
X181351013Y-71270809D02*
X181605013Y-71270809D01*
X181605013Y-71270809D02*
X181605013Y-71016809D01*
G04 #@! TO.C,J2*
X179832000Y-79756000D02*
X180848000Y-79756000D01*
X181605013Y-80160809D02*
X181351013Y-80160809D01*
X181097013Y-79652809D02*
X181605013Y-80160809D01*
X181351013Y-80160809D02*
X181605013Y-80160809D01*
X181605013Y-80160809D02*
X181605013Y-79906809D01*
X180340000Y-79756000D02*
X179832000Y-78994000D01*
X181097013Y-79144809D02*
X181605013Y-79652809D01*
X180848000Y-78994000D02*
X180340000Y-79756000D01*
X179832000Y-78994000D02*
X180848000Y-78994000D01*
X180340000Y-78232000D02*
X180340000Y-80518000D01*
X181605013Y-79652809D02*
X181605013Y-79398809D01*
X181351013Y-79652809D02*
X181605013Y-79652809D01*
X181605013Y-79652809D02*
X181351013Y-79652809D01*
X193040000Y-75565000D02*
X193040000Y-94615000D01*
X177165000Y-94615000D02*
X177165000Y-75565000D01*
X177165000Y-75565000D02*
X193040000Y-75565000D01*
X193040000Y-94615000D02*
X177165000Y-94615000D01*
X180340000Y-89662000D02*
X180340000Y-91948000D01*
X179832000Y-90424000D02*
X180848000Y-90424000D01*
X180848000Y-90424000D02*
X180340000Y-91186000D01*
X180340000Y-91186000D02*
X179832000Y-90424000D01*
X179832000Y-91186000D02*
X180848000Y-91186000D01*
X181097013Y-90574809D02*
X181605013Y-91082809D01*
X181605013Y-91082809D02*
X181351013Y-91082809D01*
X181351013Y-91082809D02*
X181605013Y-91082809D01*
X181605013Y-91082809D02*
X181605013Y-90828809D01*
X181097013Y-91082809D02*
X181605013Y-91590809D01*
X181605013Y-91590809D02*
X181351013Y-91590809D01*
X181351013Y-91590809D02*
X181605013Y-91590809D01*
X181605013Y-91590809D02*
X181605013Y-91336809D01*
D11*
G04 #@! TO.C,C3*
X154392918Y-59182340D02*
X154392918Y-59704844D01*
X155812918Y-59182340D02*
X155812918Y-59704844D01*
G04 #@! TO.C,C5*
X141680000Y-131071252D02*
X141680000Y-130548748D01*
X140260000Y-131071252D02*
X140260000Y-130548748D01*
G04 #@! TO.C,C6*
X140422918Y-59182340D02*
X140422918Y-59704844D01*
X141842918Y-59182340D02*
X141842918Y-59704844D01*
G04 #@! TO.C,C7*
X145041252Y-88825000D02*
X144518748Y-88825000D01*
X145041252Y-90245000D02*
X144518748Y-90245000D01*
G04 #@! TO.C,C8*
X155650000Y-131071252D02*
X155650000Y-130548748D01*
X154230000Y-131071252D02*
X154230000Y-130548748D01*
G04 #@! TO.C,C9*
X148379170Y-64448592D02*
X147856666Y-64448592D01*
X148379170Y-65868592D02*
X147856666Y-65868592D01*
G04 #@! TO.C,C10*
X140410000Y-96146252D02*
X140410000Y-95623748D01*
X138990000Y-96146252D02*
X138990000Y-95623748D01*
G04 #@! TO.C,C11*
X147693748Y-126440000D02*
X148216252Y-126440000D01*
X147693748Y-125020000D02*
X148216252Y-125020000D01*
D10*
G04 #@! TO.C,U1*
X169375000Y-59720000D02*
X168000000Y-59720000D01*
X169375000Y-69845000D02*
X173525000Y-69845000D01*
X169375000Y-59695000D02*
X173525000Y-59695000D01*
X169375000Y-69845000D02*
X169375000Y-69740000D01*
X173525000Y-69845000D02*
X173525000Y-69740000D01*
X173525000Y-59695000D02*
X173525000Y-59800000D01*
X169375000Y-59695000D02*
X169375000Y-59720000D01*
D11*
G04 #@! TO.C,U3*
X143170000Y-94985000D02*
X143170000Y-97935000D01*
X146390000Y-96785000D02*
X146390000Y-94985000D01*
G04 #@! TO.C,U4*
X148855000Y-129200000D02*
X145905000Y-129200000D01*
X147055000Y-132420000D02*
X148855000Y-132420000D01*
D10*
G04 #@! TO.C,U5*
X169375000Y-80040000D02*
X168000000Y-80040000D01*
X169375000Y-90165000D02*
X173525000Y-90165000D01*
X169375000Y-80015000D02*
X173525000Y-80015000D01*
X169375000Y-90165000D02*
X169375000Y-90060000D01*
X173525000Y-90165000D02*
X173525000Y-90060000D01*
X173525000Y-80015000D02*
X173525000Y-80120000D01*
X169375000Y-80015000D02*
X169375000Y-80040000D01*
G04 #@! TO.C,U8*
X161798095Y-95337380D02*
X161798095Y-96146904D01*
X161845714Y-96242142D01*
X161893333Y-96289761D01*
X161988571Y-96337380D01*
X162179047Y-96337380D01*
X162274285Y-96289761D01*
X162321904Y-96242142D01*
X162369523Y-96146904D01*
X162369523Y-95337380D01*
X162988571Y-95765952D02*
X162893333Y-95718333D01*
X162845714Y-95670714D01*
X162798095Y-95575476D01*
X162798095Y-95527857D01*
X162845714Y-95432619D01*
X162893333Y-95385000D01*
X162988571Y-95337380D01*
X163179047Y-95337380D01*
X163274285Y-95385000D01*
X163321904Y-95432619D01*
X163369523Y-95527857D01*
X163369523Y-95575476D01*
X163321904Y-95670714D01*
X163274285Y-95718333D01*
X163179047Y-95765952D01*
X162988571Y-95765952D01*
X162893333Y-95813571D01*
X162845714Y-95861190D01*
X162798095Y-95956428D01*
X162798095Y-96146904D01*
X162845714Y-96242142D01*
X162893333Y-96289761D01*
X162988571Y-96337380D01*
X163179047Y-96337380D01*
X163274285Y-96289761D01*
X163321904Y-96242142D01*
X163369523Y-96146904D01*
X163369523Y-95956428D01*
X163321904Y-95861190D01*
X163274285Y-95813571D01*
X163179047Y-95765952D01*
X151304666Y-102322380D02*
X151304666Y-103036666D01*
X151257047Y-103179523D01*
X151161809Y-103274761D01*
X151018952Y-103322380D01*
X150923714Y-103322380D01*
X151733238Y-102417619D02*
X151780857Y-102370000D01*
X151876095Y-102322380D01*
X152114190Y-102322380D01*
X152209428Y-102370000D01*
X152257047Y-102417619D01*
X152304666Y-102512857D01*
X152304666Y-102608095D01*
X152257047Y-102750952D01*
X151685619Y-103322380D01*
X152304666Y-103322380D01*
X139366666Y-103592380D02*
X139366666Y-104306666D01*
X139319047Y-104449523D01*
X139223809Y-104544761D01*
X139080952Y-104592380D01*
X138985714Y-104592380D01*
X139747619Y-103592380D02*
X140366666Y-103592380D01*
X140033333Y-103973333D01*
X140176190Y-103973333D01*
X140271428Y-104020952D01*
X140319047Y-104068571D01*
X140366666Y-104163809D01*
X140366666Y-104401904D01*
X140319047Y-104497142D01*
X140271428Y-104544761D01*
X140176190Y-104592380D01*
X139890476Y-104592380D01*
X139795238Y-104544761D01*
X139747619Y-104497142D01*
X139366666Y-86828380D02*
X139366666Y-87542666D01*
X139319047Y-87685523D01*
X139223809Y-87780761D01*
X139080952Y-87828380D01*
X138985714Y-87828380D01*
X140366666Y-87828380D02*
X139795238Y-87828380D01*
X140080952Y-87828380D02*
X140080952Y-86828380D01*
X139985714Y-86971238D01*
X139890476Y-87066476D01*
X139795238Y-87114095D01*
G04 #@! TO.C,J4*
X175347380Y-126063333D02*
X176061666Y-126063333D01*
X176204523Y-126110952D01*
X176299761Y-126206190D01*
X176347380Y-126349047D01*
X176347380Y-126444285D01*
X175680714Y-125158571D02*
X176347380Y-125158571D01*
X175299761Y-125396666D02*
X176014047Y-125634761D01*
X176014047Y-125015714D01*
G04 #@! TO.C,J3*
X175347380Y-105743333D02*
X176061666Y-105743333D01*
X176204523Y-105790952D01*
X176299761Y-105886190D01*
X176347380Y-106029047D01*
X176347380Y-106124285D01*
X175347380Y-105362380D02*
X175347380Y-104743333D01*
X175728333Y-105076666D01*
X175728333Y-104933809D01*
X175775952Y-104838571D01*
X175823571Y-104790952D01*
X175918809Y-104743333D01*
X176156904Y-104743333D01*
X176252142Y-104790952D01*
X176299761Y-104838571D01*
X176347380Y-104933809D01*
X176347380Y-105219523D01*
X176299761Y-105314761D01*
X176252142Y-105362380D01*
G04 #@! TO.C,C1*
X168743333Y-56872142D02*
X168695714Y-56919761D01*
X168552857Y-56967380D01*
X168457619Y-56967380D01*
X168314761Y-56919761D01*
X168219523Y-56824523D01*
X168171904Y-56729285D01*
X168124285Y-56538809D01*
X168124285Y-56395952D01*
X168171904Y-56205476D01*
X168219523Y-56110238D01*
X168314761Y-56015000D01*
X168457619Y-55967380D01*
X168552857Y-55967380D01*
X168695714Y-56015000D01*
X168743333Y-56062619D01*
X169695714Y-56967380D02*
X169124285Y-56967380D01*
X169410000Y-56967380D02*
X169410000Y-55967380D01*
X169314761Y-56110238D01*
X169219523Y-56205476D01*
X169124285Y-56253095D01*
G04 #@! TO.C,C4*
X144613333Y-101017342D02*
X144565714Y-101064961D01*
X144422857Y-101112580D01*
X144327619Y-101112580D01*
X144184761Y-101064961D01*
X144089523Y-100969723D01*
X144041904Y-100874485D01*
X143994285Y-100684009D01*
X143994285Y-100541152D01*
X144041904Y-100350676D01*
X144089523Y-100255438D01*
X144184761Y-100160200D01*
X144327619Y-100112580D01*
X144422857Y-100112580D01*
X144565714Y-100160200D01*
X144613333Y-100207819D01*
X145470476Y-100445914D02*
X145470476Y-101112580D01*
X145232380Y-100064961D02*
X144994285Y-100779247D01*
X145613333Y-100779247D01*
G04 #@! TO.C,C2*
X173874133Y-56872142D02*
X173826514Y-56919761D01*
X173683657Y-56967380D01*
X173588419Y-56967380D01*
X173445561Y-56919761D01*
X173350323Y-56824523D01*
X173302704Y-56729285D01*
X173255085Y-56538809D01*
X173255085Y-56395952D01*
X173302704Y-56205476D01*
X173350323Y-56110238D01*
X173445561Y-56015000D01*
X173588419Y-55967380D01*
X173683657Y-55967380D01*
X173826514Y-56015000D01*
X173874133Y-56062619D01*
X174255085Y-56062619D02*
X174302704Y-56015000D01*
X174397942Y-55967380D01*
X174636038Y-55967380D01*
X174731276Y-56015000D01*
X174778895Y-56062619D01*
X174826514Y-56157857D01*
X174826514Y-56253095D01*
X174778895Y-56395952D01*
X174207466Y-56967380D01*
X174826514Y-56967380D01*
G04 #@! TO.C,U2*
X147356013Y-56482972D02*
X147356013Y-57292496D01*
X147403632Y-57387734D01*
X147451251Y-57435353D01*
X147546489Y-57482972D01*
X147736965Y-57482972D01*
X147832203Y-57435353D01*
X147879822Y-57387734D01*
X147927441Y-57292496D01*
X147927441Y-56482972D01*
X148356013Y-56578211D02*
X148403632Y-56530592D01*
X148498870Y-56482972D01*
X148736965Y-56482972D01*
X148832203Y-56530592D01*
X148879822Y-56578211D01*
X148927441Y-56673449D01*
X148927441Y-56768687D01*
X148879822Y-56911544D01*
X148308394Y-57482972D01*
X148927441Y-57482972D01*
G04 #@! TO.C,C12*
X168267142Y-97512142D02*
X168219523Y-97559761D01*
X168076666Y-97607380D01*
X167981428Y-97607380D01*
X167838571Y-97559761D01*
X167743333Y-97464523D01*
X167695714Y-97369285D01*
X167648095Y-97178809D01*
X167648095Y-97035952D01*
X167695714Y-96845476D01*
X167743333Y-96750238D01*
X167838571Y-96655000D01*
X167981428Y-96607380D01*
X168076666Y-96607380D01*
X168219523Y-96655000D01*
X168267142Y-96702619D01*
X169219523Y-97607380D02*
X168648095Y-97607380D01*
X168933809Y-97607380D02*
X168933809Y-96607380D01*
X168838571Y-96750238D01*
X168743333Y-96845476D01*
X168648095Y-96893095D01*
X169600476Y-96702619D02*
X169648095Y-96655000D01*
X169743333Y-96607380D01*
X169981428Y-96607380D01*
X170076666Y-96655000D01*
X170124285Y-96702619D01*
X170171904Y-96797857D01*
X170171904Y-96893095D01*
X170124285Y-97035952D01*
X169552857Y-97607380D01*
X170171904Y-97607380D01*
G04 #@! TO.C,C13*
X173347142Y-97512142D02*
X173299523Y-97559761D01*
X173156666Y-97607380D01*
X173061428Y-97607380D01*
X172918571Y-97559761D01*
X172823333Y-97464523D01*
X172775714Y-97369285D01*
X172728095Y-97178809D01*
X172728095Y-97035952D01*
X172775714Y-96845476D01*
X172823333Y-96750238D01*
X172918571Y-96655000D01*
X173061428Y-96607380D01*
X173156666Y-96607380D01*
X173299523Y-96655000D01*
X173347142Y-96702619D01*
X174299523Y-97607380D02*
X173728095Y-97607380D01*
X174013809Y-97607380D02*
X174013809Y-96607380D01*
X173918571Y-96750238D01*
X173823333Y-96845476D01*
X173728095Y-96893095D01*
X174632857Y-96607380D02*
X175251904Y-96607380D01*
X174918571Y-96988333D01*
X175061428Y-96988333D01*
X175156666Y-97035952D01*
X175204285Y-97083571D01*
X175251904Y-97178809D01*
X175251904Y-97416904D01*
X175204285Y-97512142D01*
X175156666Y-97559761D01*
X175061428Y-97607380D01*
X174775714Y-97607380D01*
X174680476Y-97559761D01*
X174632857Y-97512142D01*
G04 #@! TO.C,C14*
X168267142Y-117832142D02*
X168219523Y-117879761D01*
X168076666Y-117927380D01*
X167981428Y-117927380D01*
X167838571Y-117879761D01*
X167743333Y-117784523D01*
X167695714Y-117689285D01*
X167648095Y-117498809D01*
X167648095Y-117355952D01*
X167695714Y-117165476D01*
X167743333Y-117070238D01*
X167838571Y-116975000D01*
X167981428Y-116927380D01*
X168076666Y-116927380D01*
X168219523Y-116975000D01*
X168267142Y-117022619D01*
X169219523Y-117927380D02*
X168648095Y-117927380D01*
X168933809Y-117927380D02*
X168933809Y-116927380D01*
X168838571Y-117070238D01*
X168743333Y-117165476D01*
X168648095Y-117213095D01*
X170076666Y-117260714D02*
X170076666Y-117927380D01*
X169838571Y-116879761D02*
X169600476Y-117594047D01*
X170219523Y-117594047D01*
G04 #@! TO.C,C15*
X173347142Y-117832142D02*
X173299523Y-117879761D01*
X173156666Y-117927380D01*
X173061428Y-117927380D01*
X172918571Y-117879761D01*
X172823333Y-117784523D01*
X172775714Y-117689285D01*
X172728095Y-117498809D01*
X172728095Y-117355952D01*
X172775714Y-117165476D01*
X172823333Y-117070238D01*
X172918571Y-116975000D01*
X173061428Y-116927380D01*
X173156666Y-116927380D01*
X173299523Y-116975000D01*
X173347142Y-117022619D01*
X174299523Y-117927380D02*
X173728095Y-117927380D01*
X174013809Y-117927380D02*
X174013809Y-116927380D01*
X173918571Y-117070238D01*
X173823333Y-117165476D01*
X173728095Y-117213095D01*
X175204285Y-116927380D02*
X174728095Y-116927380D01*
X174680476Y-117403571D01*
X174728095Y-117355952D01*
X174823333Y-117308333D01*
X175061428Y-117308333D01*
X175156666Y-117355952D01*
X175204285Y-117403571D01*
X175251904Y-117498809D01*
X175251904Y-117736904D01*
X175204285Y-117832142D01*
X175156666Y-117879761D01*
X175061428Y-117927380D01*
X174823333Y-117927380D01*
X174728095Y-117879761D01*
X174680476Y-117832142D01*
G04 #@! TO.C,C16*
X168267142Y-77192142D02*
X168219523Y-77239761D01*
X168076666Y-77287380D01*
X167981428Y-77287380D01*
X167838571Y-77239761D01*
X167743333Y-77144523D01*
X167695714Y-77049285D01*
X167648095Y-76858809D01*
X167648095Y-76715952D01*
X167695714Y-76525476D01*
X167743333Y-76430238D01*
X167838571Y-76335000D01*
X167981428Y-76287380D01*
X168076666Y-76287380D01*
X168219523Y-76335000D01*
X168267142Y-76382619D01*
X169219523Y-77287380D02*
X168648095Y-77287380D01*
X168933809Y-77287380D02*
X168933809Y-76287380D01*
X168838571Y-76430238D01*
X168743333Y-76525476D01*
X168648095Y-76573095D01*
X170076666Y-76287380D02*
X169886190Y-76287380D01*
X169790952Y-76335000D01*
X169743333Y-76382619D01*
X169648095Y-76525476D01*
X169600476Y-76715952D01*
X169600476Y-77096904D01*
X169648095Y-77192142D01*
X169695714Y-77239761D01*
X169790952Y-77287380D01*
X169981428Y-77287380D01*
X170076666Y-77239761D01*
X170124285Y-77192142D01*
X170171904Y-77096904D01*
X170171904Y-76858809D01*
X170124285Y-76763571D01*
X170076666Y-76715952D01*
X169981428Y-76668333D01*
X169790952Y-76668333D01*
X169695714Y-76715952D01*
X169648095Y-76763571D01*
X169600476Y-76858809D01*
G04 #@! TO.C,C17*
X173347142Y-77192142D02*
X173299523Y-77239761D01*
X173156666Y-77287380D01*
X173061428Y-77287380D01*
X172918571Y-77239761D01*
X172823333Y-77144523D01*
X172775714Y-77049285D01*
X172728095Y-76858809D01*
X172728095Y-76715952D01*
X172775714Y-76525476D01*
X172823333Y-76430238D01*
X172918571Y-76335000D01*
X173061428Y-76287380D01*
X173156666Y-76287380D01*
X173299523Y-76335000D01*
X173347142Y-76382619D01*
X174299523Y-77287380D02*
X173728095Y-77287380D01*
X174013809Y-77287380D02*
X174013809Y-76287380D01*
X173918571Y-76430238D01*
X173823333Y-76525476D01*
X173728095Y-76573095D01*
X174632857Y-76287380D02*
X175299523Y-76287380D01*
X174870952Y-77287380D01*
G04 #@! TO.C,R1*
X181443333Y-72462380D02*
X181110000Y-71986190D01*
X180871904Y-72462380D02*
X180871904Y-71462380D01*
X181252857Y-71462380D01*
X181348095Y-71510000D01*
X181395714Y-71557619D01*
X181443333Y-71652857D01*
X181443333Y-71795714D01*
X181395714Y-71890952D01*
X181348095Y-71938571D01*
X181252857Y-71986190D01*
X180871904Y-71986190D01*
X182395714Y-72462380D02*
X181824285Y-72462380D01*
X182110000Y-72462380D02*
X182110000Y-71462380D01*
X182014761Y-71605238D01*
X181919523Y-71700476D01*
X181824285Y-71748095D01*
G04 #@! TO.C,R2*
X181443333Y-58237380D02*
X181110000Y-57761190D01*
X180871904Y-58237380D02*
X180871904Y-57237380D01*
X181252857Y-57237380D01*
X181348095Y-57285000D01*
X181395714Y-57332619D01*
X181443333Y-57427857D01*
X181443333Y-57570714D01*
X181395714Y-57665952D01*
X181348095Y-57713571D01*
X181252857Y-57761190D01*
X180871904Y-57761190D01*
X181824285Y-57332619D02*
X181871904Y-57285000D01*
X181967142Y-57237380D01*
X182205238Y-57237380D01*
X182300476Y-57285000D01*
X182348095Y-57332619D01*
X182395714Y-57427857D01*
X182395714Y-57523095D01*
X182348095Y-57665952D01*
X181776666Y-58237380D01*
X182395714Y-58237380D01*
G04 #@! TO.C,R3*
X181443333Y-92782380D02*
X181110000Y-92306190D01*
X180871904Y-92782380D02*
X180871904Y-91782380D01*
X181252857Y-91782380D01*
X181348095Y-91830000D01*
X181395714Y-91877619D01*
X181443333Y-91972857D01*
X181443333Y-92115714D01*
X181395714Y-92210952D01*
X181348095Y-92258571D01*
X181252857Y-92306190D01*
X180871904Y-92306190D01*
X181776666Y-91782380D02*
X182395714Y-91782380D01*
X182062380Y-92163333D01*
X182205238Y-92163333D01*
X182300476Y-92210952D01*
X182348095Y-92258571D01*
X182395714Y-92353809D01*
X182395714Y-92591904D01*
X182348095Y-92687142D01*
X182300476Y-92734761D01*
X182205238Y-92782380D01*
X181919523Y-92782380D01*
X181824285Y-92734761D01*
X181776666Y-92687142D01*
G04 #@! TO.C,R4*
X181443333Y-78557380D02*
X181110000Y-78081190D01*
X180871904Y-78557380D02*
X180871904Y-77557380D01*
X181252857Y-77557380D01*
X181348095Y-77605000D01*
X181395714Y-77652619D01*
X181443333Y-77747857D01*
X181443333Y-77890714D01*
X181395714Y-77985952D01*
X181348095Y-78033571D01*
X181252857Y-78081190D01*
X180871904Y-78081190D01*
X182300476Y-77890714D02*
X182300476Y-78557380D01*
X182062380Y-77509761D02*
X181824285Y-78224047D01*
X182443333Y-78224047D01*
G04 #@! TO.C,R5*
X181443333Y-113102380D02*
X181110000Y-112626190D01*
X180871904Y-113102380D02*
X180871904Y-112102380D01*
X181252857Y-112102380D01*
X181348095Y-112150000D01*
X181395714Y-112197619D01*
X181443333Y-112292857D01*
X181443333Y-112435714D01*
X181395714Y-112530952D01*
X181348095Y-112578571D01*
X181252857Y-112626190D01*
X180871904Y-112626190D01*
X182348095Y-112102380D02*
X181871904Y-112102380D01*
X181824285Y-112578571D01*
X181871904Y-112530952D01*
X181967142Y-112483333D01*
X182205238Y-112483333D01*
X182300476Y-112530952D01*
X182348095Y-112578571D01*
X182395714Y-112673809D01*
X182395714Y-112911904D01*
X182348095Y-113007142D01*
X182300476Y-113054761D01*
X182205238Y-113102380D01*
X181967142Y-113102380D01*
X181871904Y-113054761D01*
X181824285Y-113007142D01*
G04 #@! TO.C,R6*
X181443333Y-98877380D02*
X181110000Y-98401190D01*
X180871904Y-98877380D02*
X180871904Y-97877380D01*
X181252857Y-97877380D01*
X181348095Y-97925000D01*
X181395714Y-97972619D01*
X181443333Y-98067857D01*
X181443333Y-98210714D01*
X181395714Y-98305952D01*
X181348095Y-98353571D01*
X181252857Y-98401190D01*
X180871904Y-98401190D01*
X182300476Y-97877380D02*
X182110000Y-97877380D01*
X182014761Y-97925000D01*
X181967142Y-97972619D01*
X181871904Y-98115476D01*
X181824285Y-98305952D01*
X181824285Y-98686904D01*
X181871904Y-98782142D01*
X181919523Y-98829761D01*
X182014761Y-98877380D01*
X182205238Y-98877380D01*
X182300476Y-98829761D01*
X182348095Y-98782142D01*
X182395714Y-98686904D01*
X182395714Y-98448809D01*
X182348095Y-98353571D01*
X182300476Y-98305952D01*
X182205238Y-98258333D01*
X182014761Y-98258333D01*
X181919523Y-98305952D01*
X181871904Y-98353571D01*
X181824285Y-98448809D01*
G04 #@! TO.C,R7*
X181443333Y-133422380D02*
X181110000Y-132946190D01*
X180871904Y-133422380D02*
X180871904Y-132422380D01*
X181252857Y-132422380D01*
X181348095Y-132470000D01*
X181395714Y-132517619D01*
X181443333Y-132612857D01*
X181443333Y-132755714D01*
X181395714Y-132850952D01*
X181348095Y-132898571D01*
X181252857Y-132946190D01*
X180871904Y-132946190D01*
X181776666Y-132422380D02*
X182443333Y-132422380D01*
X182014761Y-133422380D01*
G04 #@! TO.C,R8*
X181443333Y-119197380D02*
X181110000Y-118721190D01*
X180871904Y-119197380D02*
X180871904Y-118197380D01*
X181252857Y-118197380D01*
X181348095Y-118245000D01*
X181395714Y-118292619D01*
X181443333Y-118387857D01*
X181443333Y-118530714D01*
X181395714Y-118625952D01*
X181348095Y-118673571D01*
X181252857Y-118721190D01*
X180871904Y-118721190D01*
X182014761Y-118625952D02*
X181919523Y-118578333D01*
X181871904Y-118530714D01*
X181824285Y-118435476D01*
X181824285Y-118387857D01*
X181871904Y-118292619D01*
X181919523Y-118245000D01*
X182014761Y-118197380D01*
X182205238Y-118197380D01*
X182300476Y-118245000D01*
X182348095Y-118292619D01*
X182395714Y-118387857D01*
X182395714Y-118435476D01*
X182348095Y-118530714D01*
X182300476Y-118578333D01*
X182205238Y-118625952D01*
X182014761Y-118625952D01*
X181919523Y-118673571D01*
X181871904Y-118721190D01*
X181824285Y-118816428D01*
X181824285Y-119006904D01*
X181871904Y-119102142D01*
X181919523Y-119149761D01*
X182014761Y-119197380D01*
X182205238Y-119197380D01*
X182300476Y-119149761D01*
X182348095Y-119102142D01*
X182395714Y-119006904D01*
X182395714Y-118816428D01*
X182348095Y-118721190D01*
X182300476Y-118673571D01*
X182205238Y-118625952D01*
G04 #@! TO.C,U6*
X165608095Y-129627380D02*
X165608095Y-130436904D01*
X165655714Y-130532142D01*
X165703333Y-130579761D01*
X165798571Y-130627380D01*
X165989047Y-130627380D01*
X166084285Y-130579761D01*
X166131904Y-130532142D01*
X166179523Y-130436904D01*
X166179523Y-129627380D01*
X167084285Y-129627380D02*
X166893809Y-129627380D01*
X166798571Y-129675000D01*
X166750952Y-129722619D01*
X166655714Y-129865476D01*
X166608095Y-130055952D01*
X166608095Y-130436904D01*
X166655714Y-130532142D01*
X166703333Y-130579761D01*
X166798571Y-130627380D01*
X166989047Y-130627380D01*
X167084285Y-130579761D01*
X167131904Y-130532142D01*
X167179523Y-130436904D01*
X167179523Y-130198809D01*
X167131904Y-130103571D01*
X167084285Y-130055952D01*
X166989047Y-130008333D01*
X166798571Y-130008333D01*
X166703333Y-130055952D01*
X166655714Y-130103571D01*
X166608095Y-130198809D01*
G04 #@! TO.C,U7*
X165608095Y-109307380D02*
X165608095Y-110116904D01*
X165655714Y-110212142D01*
X165703333Y-110259761D01*
X165798571Y-110307380D01*
X165989047Y-110307380D01*
X166084285Y-110259761D01*
X166131904Y-110212142D01*
X166179523Y-110116904D01*
X166179523Y-109307380D01*
X166560476Y-109307380D02*
X167227142Y-109307380D01*
X166798571Y-110307380D01*
G04 #@! TO.C,J1*
X175347380Y-65103333D02*
X176061666Y-65103333D01*
X176204523Y-65150952D01*
X176299761Y-65246190D01*
X176347380Y-65389047D01*
X176347380Y-65484285D01*
X176347380Y-64103333D02*
X176347380Y-64674761D01*
X176347380Y-64389047D02*
X175347380Y-64389047D01*
X175490238Y-64484285D01*
X175585476Y-64579523D01*
X175633095Y-64674761D01*
G04 #@! TO.C,J2*
X175347380Y-85423333D02*
X176061666Y-85423333D01*
X176204523Y-85470952D01*
X176299761Y-85566190D01*
X176347380Y-85709047D01*
X176347380Y-85804285D01*
X175442619Y-84994761D02*
X175395000Y-84947142D01*
X175347380Y-84851904D01*
X175347380Y-84613809D01*
X175395000Y-84518571D01*
X175442619Y-84470952D01*
X175537857Y-84423333D01*
X175633095Y-84423333D01*
X175775952Y-84470952D01*
X176347380Y-85042380D01*
X176347380Y-84423333D01*
G04 #@! TO.C,C3*
X157110060Y-59610258D02*
X157157679Y-59657877D01*
X157205298Y-59800734D01*
X157205298Y-59895972D01*
X157157679Y-60038830D01*
X157062441Y-60134068D01*
X156967203Y-60181687D01*
X156776727Y-60229306D01*
X156633870Y-60229306D01*
X156443394Y-60181687D01*
X156348156Y-60134068D01*
X156252918Y-60038830D01*
X156205298Y-59895972D01*
X156205298Y-59800734D01*
X156252918Y-59657877D01*
X156300537Y-59610258D01*
X156205298Y-59276925D02*
X156205298Y-58657877D01*
X156586251Y-58991211D01*
X156586251Y-58848353D01*
X156633870Y-58753115D01*
X156681489Y-58705496D01*
X156776727Y-58657877D01*
X157014822Y-58657877D01*
X157110060Y-58705496D01*
X157157679Y-58753115D01*
X157205298Y-58848353D01*
X157205298Y-59134068D01*
X157157679Y-59229306D01*
X157110060Y-59276925D01*
G04 #@! TO.C,C5*
X139677142Y-130976666D02*
X139724761Y-131024285D01*
X139772380Y-131167142D01*
X139772380Y-131262380D01*
X139724761Y-131405238D01*
X139629523Y-131500476D01*
X139534285Y-131548095D01*
X139343809Y-131595714D01*
X139200952Y-131595714D01*
X139010476Y-131548095D01*
X138915238Y-131500476D01*
X138820000Y-131405238D01*
X138772380Y-131262380D01*
X138772380Y-131167142D01*
X138820000Y-131024285D01*
X138867619Y-130976666D01*
X138772380Y-130071904D02*
X138772380Y-130548095D01*
X139248571Y-130595714D01*
X139200952Y-130548095D01*
X139153333Y-130452857D01*
X139153333Y-130214761D01*
X139200952Y-130119523D01*
X139248571Y-130071904D01*
X139343809Y-130024285D01*
X139581904Y-130024285D01*
X139677142Y-130071904D01*
X139724761Y-130119523D01*
X139772380Y-130214761D01*
X139772380Y-130452857D01*
X139724761Y-130548095D01*
X139677142Y-130595714D01*
G04 #@! TO.C,C6*
X143140060Y-59610258D02*
X143187679Y-59657877D01*
X143235298Y-59800734D01*
X143235298Y-59895972D01*
X143187679Y-60038830D01*
X143092441Y-60134068D01*
X142997203Y-60181687D01*
X142806727Y-60229306D01*
X142663870Y-60229306D01*
X142473394Y-60181687D01*
X142378156Y-60134068D01*
X142282918Y-60038830D01*
X142235298Y-59895972D01*
X142235298Y-59800734D01*
X142282918Y-59657877D01*
X142330537Y-59610258D01*
X142235298Y-58753115D02*
X142235298Y-58943592D01*
X142282918Y-59038830D01*
X142330537Y-59086449D01*
X142473394Y-59181687D01*
X142663870Y-59229306D01*
X143044822Y-59229306D01*
X143140060Y-59181687D01*
X143187679Y-59134068D01*
X143235298Y-59038830D01*
X143235298Y-58848353D01*
X143187679Y-58753115D01*
X143140060Y-58705496D01*
X143044822Y-58657877D01*
X142806727Y-58657877D01*
X142711489Y-58705496D01*
X142663870Y-58753115D01*
X142616251Y-58848353D01*
X142616251Y-59038830D01*
X142663870Y-59134068D01*
X142711489Y-59181687D01*
X142806727Y-59229306D01*
G04 #@! TO.C,C7*
X144613333Y-91542142D02*
X144565714Y-91589761D01*
X144422857Y-91637380D01*
X144327619Y-91637380D01*
X144184761Y-91589761D01*
X144089523Y-91494523D01*
X144041904Y-91399285D01*
X143994285Y-91208809D01*
X143994285Y-91065952D01*
X144041904Y-90875476D01*
X144089523Y-90780238D01*
X144184761Y-90685000D01*
X144327619Y-90637380D01*
X144422857Y-90637380D01*
X144565714Y-90685000D01*
X144613333Y-90732619D01*
X144946666Y-90637380D02*
X145613333Y-90637380D01*
X145184761Y-91637380D01*
G04 #@! TO.C,C8*
X153647142Y-130976666D02*
X153694761Y-131024285D01*
X153742380Y-131167142D01*
X153742380Y-131262380D01*
X153694761Y-131405238D01*
X153599523Y-131500476D01*
X153504285Y-131548095D01*
X153313809Y-131595714D01*
X153170952Y-131595714D01*
X152980476Y-131548095D01*
X152885238Y-131500476D01*
X152790000Y-131405238D01*
X152742380Y-131262380D01*
X152742380Y-131167142D01*
X152790000Y-131024285D01*
X152837619Y-130976666D01*
X153170952Y-130405238D02*
X153123333Y-130500476D01*
X153075714Y-130548095D01*
X152980476Y-130595714D01*
X152932857Y-130595714D01*
X152837619Y-130548095D01*
X152790000Y-130500476D01*
X152742380Y-130405238D01*
X152742380Y-130214761D01*
X152790000Y-130119523D01*
X152837619Y-130071904D01*
X152932857Y-130024285D01*
X152980476Y-130024285D01*
X153075714Y-130071904D01*
X153123333Y-130119523D01*
X153170952Y-130214761D01*
X153170952Y-130405238D01*
X153218571Y-130500476D01*
X153266190Y-130548095D01*
X153361428Y-130595714D01*
X153551904Y-130595714D01*
X153647142Y-130548095D01*
X153694761Y-130500476D01*
X153742380Y-130405238D01*
X153742380Y-130214761D01*
X153694761Y-130119523D01*
X153647142Y-130071904D01*
X153551904Y-130024285D01*
X153361428Y-130024285D01*
X153266190Y-130071904D01*
X153218571Y-130119523D01*
X153170952Y-130214761D01*
G04 #@! TO.C,C9*
X147951251Y-67165734D02*
X147903632Y-67213353D01*
X147760775Y-67260972D01*
X147665537Y-67260972D01*
X147522679Y-67213353D01*
X147427441Y-67118115D01*
X147379822Y-67022877D01*
X147332203Y-66832401D01*
X147332203Y-66689544D01*
X147379822Y-66499068D01*
X147427441Y-66403830D01*
X147522679Y-66308592D01*
X147665537Y-66260972D01*
X147760775Y-66260972D01*
X147903632Y-66308592D01*
X147951251Y-66356211D01*
X148427441Y-67260972D02*
X148617918Y-67260972D01*
X148713156Y-67213353D01*
X148760775Y-67165734D01*
X148856013Y-67022877D01*
X148903632Y-66832401D01*
X148903632Y-66451449D01*
X148856013Y-66356211D01*
X148808394Y-66308592D01*
X148713156Y-66260972D01*
X148522679Y-66260972D01*
X148427441Y-66308592D01*
X148379822Y-66356211D01*
X148332203Y-66451449D01*
X148332203Y-66689544D01*
X148379822Y-66784782D01*
X148427441Y-66832401D01*
X148522679Y-66880020D01*
X148713156Y-66880020D01*
X148808394Y-66832401D01*
X148856013Y-66784782D01*
X148903632Y-66689544D01*
G04 #@! TO.C,C10*
X138407142Y-96527857D02*
X138454761Y-96575476D01*
X138502380Y-96718333D01*
X138502380Y-96813571D01*
X138454761Y-96956428D01*
X138359523Y-97051666D01*
X138264285Y-97099285D01*
X138073809Y-97146904D01*
X137930952Y-97146904D01*
X137740476Y-97099285D01*
X137645238Y-97051666D01*
X137550000Y-96956428D01*
X137502380Y-96813571D01*
X137502380Y-96718333D01*
X137550000Y-96575476D01*
X137597619Y-96527857D01*
X138502380Y-95575476D02*
X138502380Y-96146904D01*
X138502380Y-95861190D02*
X137502380Y-95861190D01*
X137645238Y-95956428D01*
X137740476Y-96051666D01*
X137788095Y-96146904D01*
X137502380Y-94956428D02*
X137502380Y-94861190D01*
X137550000Y-94765952D01*
X137597619Y-94718333D01*
X137692857Y-94670714D01*
X137883333Y-94623095D01*
X138121428Y-94623095D01*
X138311904Y-94670714D01*
X138407142Y-94718333D01*
X138454761Y-94765952D01*
X138502380Y-94861190D01*
X138502380Y-94956428D01*
X138454761Y-95051666D01*
X138407142Y-95099285D01*
X138311904Y-95146904D01*
X138121428Y-95194523D01*
X137883333Y-95194523D01*
X137692857Y-95146904D01*
X137597619Y-95099285D01*
X137550000Y-95051666D01*
X137502380Y-94956428D01*
G04 #@! TO.C,C11*
X147312142Y-124437142D02*
X147264523Y-124484761D01*
X147121666Y-124532380D01*
X147026428Y-124532380D01*
X146883571Y-124484761D01*
X146788333Y-124389523D01*
X146740714Y-124294285D01*
X146693095Y-124103809D01*
X146693095Y-123960952D01*
X146740714Y-123770476D01*
X146788333Y-123675238D01*
X146883571Y-123580000D01*
X147026428Y-123532380D01*
X147121666Y-123532380D01*
X147264523Y-123580000D01*
X147312142Y-123627619D01*
X148264523Y-124532380D02*
X147693095Y-124532380D01*
X147978809Y-124532380D02*
X147978809Y-123532380D01*
X147883571Y-123675238D01*
X147788333Y-123770476D01*
X147693095Y-123818095D01*
X149216904Y-124532380D02*
X148645476Y-124532380D01*
X148931190Y-124532380D02*
X148931190Y-123532380D01*
X148835952Y-123675238D01*
X148740714Y-123770476D01*
X148645476Y-123818095D01*
G04 #@! TO.C,U1*
X165608095Y-60412380D02*
X165608095Y-61221904D01*
X165655714Y-61317142D01*
X165703333Y-61364761D01*
X165798571Y-61412380D01*
X165989047Y-61412380D01*
X166084285Y-61364761D01*
X166131904Y-61317142D01*
X166179523Y-61221904D01*
X166179523Y-60412380D01*
X167179523Y-61412380D02*
X166608095Y-61412380D01*
X166893809Y-61412380D02*
X166893809Y-60412380D01*
X166798571Y-60555238D01*
X166703333Y-60650476D01*
X166608095Y-60698095D01*
G04 #@! TO.C,U3*
X141332380Y-96646904D02*
X142141904Y-96646904D01*
X142237142Y-96599285D01*
X142284761Y-96551666D01*
X142332380Y-96456428D01*
X142332380Y-96265952D01*
X142284761Y-96170714D01*
X142237142Y-96123095D01*
X142141904Y-96075476D01*
X141332380Y-96075476D01*
X141332380Y-95694523D02*
X141332380Y-95075476D01*
X141713333Y-95408809D01*
X141713333Y-95265952D01*
X141760952Y-95170714D01*
X141808571Y-95123095D01*
X141903809Y-95075476D01*
X142141904Y-95075476D01*
X142237142Y-95123095D01*
X142284761Y-95170714D01*
X142332380Y-95265952D01*
X142332380Y-95551666D01*
X142284761Y-95646904D01*
X142237142Y-95694523D01*
G04 #@! TO.C,U4*
X147193095Y-127362380D02*
X147193095Y-128171904D01*
X147240714Y-128267142D01*
X147288333Y-128314761D01*
X147383571Y-128362380D01*
X147574047Y-128362380D01*
X147669285Y-128314761D01*
X147716904Y-128267142D01*
X147764523Y-128171904D01*
X147764523Y-127362380D01*
X148669285Y-127695714D02*
X148669285Y-128362380D01*
X148431190Y-127314761D02*
X148193095Y-128029047D01*
X148812142Y-128029047D01*
G04 #@! TO.C,U5*
X165608095Y-88987380D02*
X165608095Y-89796904D01*
X165655714Y-89892142D01*
X165703333Y-89939761D01*
X165798571Y-89987380D01*
X165989047Y-89987380D01*
X166084285Y-89939761D01*
X166131904Y-89892142D01*
X166179523Y-89796904D01*
X166179523Y-88987380D01*
X167131904Y-88987380D02*
X166655714Y-88987380D01*
X166608095Y-89463571D01*
X166655714Y-89415952D01*
X166750952Y-89368333D01*
X166989047Y-89368333D01*
X167084285Y-89415952D01*
X167131904Y-89463571D01*
X167179523Y-89558809D01*
X167179523Y-89796904D01*
X167131904Y-89892142D01*
X167084285Y-89939761D01*
X166989047Y-89987380D01*
X166750952Y-89987380D01*
X166655714Y-89939761D01*
X166608095Y-89892142D01*
G04 #@! TD*
M02*
