G04 #@! TF.GenerationSoftware,KiCad,Pcbnew,5.0.1+dfsg1-2*
G04 #@! TF.CreationDate,2018-11-18T21:04:06+01:00*
G04 #@! TF.ProjectId,icestick-rj45-shield,696365737469636B2D726A34352D7368,rev?*
G04 #@! TF.SameCoordinates,Original*
G04 #@! TF.FileFunction,Soldermask,Top*
G04 #@! TF.FilePolarity,Negative*
%FSLAX46Y46*%
G04 Gerber Fmt 4.6, Leading zero omitted, Abs format (unit mm)*
G04 Created by KiCad (PCBNEW 5.0.1+dfsg1-2) date So 18 Nov 2018 21:04:06 CET*
%MOMM*%
%LPD*%
G01*
G04 APERTURE LIST*
%ADD10C,0.100000*%
G04 APERTURE END LIST*
D10*
G36*
X184713636Y-132621019D02*
X184894903Y-132657075D01*
X185122571Y-132751378D01*
X185326542Y-132887668D01*
X185327469Y-132888287D01*
X185501713Y-133062531D01*
X185501715Y-133062534D01*
X185638622Y-133267429D01*
X185732925Y-133495097D01*
X185781000Y-133736787D01*
X185781000Y-133983213D01*
X185732925Y-134224903D01*
X185638622Y-134452571D01*
X185555627Y-134576781D01*
X185501713Y-134657469D01*
X185327469Y-134831713D01*
X185327466Y-134831715D01*
X185122571Y-134968622D01*
X184894903Y-135062925D01*
X184714411Y-135098827D01*
X184653214Y-135111000D01*
X184406786Y-135111000D01*
X184345589Y-135098827D01*
X184165097Y-135062925D01*
X183937429Y-134968622D01*
X183732534Y-134831715D01*
X183732531Y-134831713D01*
X183558287Y-134657469D01*
X183504373Y-134576781D01*
X183489931Y-134555167D01*
X183474389Y-134536229D01*
X183455447Y-134520684D01*
X183433836Y-134509132D01*
X183410387Y-134502019D01*
X183386000Y-134499617D01*
X183361614Y-134502019D01*
X183338165Y-134509132D01*
X183316554Y-134520683D01*
X183297612Y-134536228D01*
X183282067Y-134555170D01*
X183270515Y-134576781D01*
X183263402Y-134600230D01*
X183261000Y-134624617D01*
X183261000Y-135163339D01*
X183256535Y-135208677D01*
X183245102Y-135246364D01*
X183226534Y-135281103D01*
X183201548Y-135311548D01*
X183171103Y-135336534D01*
X183136364Y-135355102D01*
X183098677Y-135366535D01*
X183053339Y-135371000D01*
X182216661Y-135371000D01*
X182171323Y-135366535D01*
X182133636Y-135355102D01*
X182098897Y-135336534D01*
X182068452Y-135311548D01*
X182043466Y-135281103D01*
X182024898Y-135246364D01*
X182013465Y-135208677D01*
X182009000Y-135163339D01*
X182009000Y-134076661D01*
X182013465Y-134031323D01*
X182024898Y-133993636D01*
X182043466Y-133958897D01*
X182068452Y-133928452D01*
X182098897Y-133903466D01*
X182133636Y-133884898D01*
X182171323Y-133873465D01*
X182216661Y-133869000D01*
X183053339Y-133869000D01*
X183098674Y-133873465D01*
X183117715Y-133879241D01*
X183141748Y-133884021D01*
X183166253Y-133884021D01*
X183190286Y-133879240D01*
X183212925Y-133869863D01*
X183233300Y-133856249D01*
X183250627Y-133838922D01*
X183264240Y-133818547D01*
X183273618Y-133795908D01*
X183279000Y-133759623D01*
X183279000Y-133736786D01*
X183291086Y-133676025D01*
X183327075Y-133495097D01*
X183421378Y-133267429D01*
X183558285Y-133062534D01*
X183558287Y-133062531D01*
X183732531Y-132888287D01*
X183733458Y-132887668D01*
X183937429Y-132751378D01*
X184165097Y-132657075D01*
X184346364Y-132621019D01*
X184406786Y-132609000D01*
X184653214Y-132609000D01*
X184713636Y-132621019D01*
X184713636Y-132621019D01*
G37*
G36*
X181048677Y-133873465D02*
X181086364Y-133884898D01*
X181121103Y-133903466D01*
X181151548Y-133928452D01*
X181176534Y-133958897D01*
X181195102Y-133993636D01*
X181206535Y-134031323D01*
X181211000Y-134076661D01*
X181211000Y-135163339D01*
X181206535Y-135208677D01*
X181195102Y-135246364D01*
X181176534Y-135281103D01*
X181151548Y-135311548D01*
X181121103Y-135336534D01*
X181086364Y-135355102D01*
X181048677Y-135366535D01*
X181003339Y-135371000D01*
X180166661Y-135371000D01*
X180121323Y-135366535D01*
X180083636Y-135355102D01*
X180048897Y-135336534D01*
X180018452Y-135311548D01*
X179993466Y-135281103D01*
X179974898Y-135246364D01*
X179963465Y-135208677D01*
X179959000Y-135163339D01*
X179959000Y-134076661D01*
X179963465Y-134031323D01*
X179974898Y-133993636D01*
X179993466Y-133958897D01*
X180018452Y-133928452D01*
X180048897Y-133903466D01*
X180083636Y-133884898D01*
X180121323Y-133873465D01*
X180166661Y-133869000D01*
X181003339Y-133869000D01*
X181048677Y-133873465D01*
X181048677Y-133873465D01*
G37*
G36*
X188485331Y-130348211D02*
X188813092Y-130483974D01*
X189108073Y-130681074D01*
X189358926Y-130931927D01*
X189556026Y-131226908D01*
X189691789Y-131554669D01*
X189761000Y-131902616D01*
X189761000Y-132257384D01*
X189691789Y-132605331D01*
X189556026Y-132933092D01*
X189358926Y-133228073D01*
X189108073Y-133478926D01*
X188813092Y-133676026D01*
X188485331Y-133811789D01*
X188137384Y-133881000D01*
X187782616Y-133881000D01*
X187434669Y-133811789D01*
X187106908Y-133676026D01*
X186811927Y-133478926D01*
X186561074Y-133228073D01*
X186363974Y-132933092D01*
X186228211Y-132605331D01*
X186159000Y-132257384D01*
X186159000Y-131902616D01*
X186228211Y-131554669D01*
X186363974Y-131226908D01*
X186561074Y-130931927D01*
X186811927Y-130681074D01*
X187106908Y-130483974D01*
X187434669Y-130348211D01*
X187782616Y-130279000D01*
X188137384Y-130279000D01*
X188485331Y-130348211D01*
X188485331Y-130348211D01*
G37*
G36*
X179068228Y-131771703D02*
X179223100Y-131835853D01*
X179362481Y-131928985D01*
X179481015Y-132047519D01*
X179574147Y-132186900D01*
X179638297Y-132341772D01*
X179671000Y-132506184D01*
X179671000Y-132673816D01*
X179638297Y-132838228D01*
X179574147Y-132993100D01*
X179481015Y-133132481D01*
X179362481Y-133251015D01*
X179223100Y-133344147D01*
X179068228Y-133408297D01*
X178903816Y-133441000D01*
X178736184Y-133441000D01*
X178571772Y-133408297D01*
X178416900Y-133344147D01*
X178277519Y-133251015D01*
X178158985Y-133132481D01*
X178065853Y-132993100D01*
X178001703Y-132838228D01*
X177969000Y-132673816D01*
X177969000Y-132506184D01*
X178001703Y-132341772D01*
X178065853Y-132186900D01*
X178158985Y-132047519D01*
X178277519Y-131928985D01*
X178416900Y-131835853D01*
X178571772Y-131771703D01*
X178736184Y-131739000D01*
X178903816Y-131739000D01*
X179068228Y-131771703D01*
X179068228Y-131771703D01*
G37*
G36*
X141558677Y-131213465D02*
X141596364Y-131224898D01*
X141631103Y-131243466D01*
X141661548Y-131268452D01*
X141686534Y-131298897D01*
X141705102Y-131333636D01*
X141716535Y-131371323D01*
X141721000Y-131416661D01*
X141721000Y-132253339D01*
X141716535Y-132298677D01*
X141705102Y-132336364D01*
X141686534Y-132371103D01*
X141661548Y-132401548D01*
X141631103Y-132426534D01*
X141596364Y-132445102D01*
X141558677Y-132456535D01*
X141513339Y-132461000D01*
X140426661Y-132461000D01*
X140381323Y-132456535D01*
X140343636Y-132445102D01*
X140308897Y-132426534D01*
X140278452Y-132401548D01*
X140253466Y-132371103D01*
X140234898Y-132336364D01*
X140223465Y-132298677D01*
X140219000Y-132253339D01*
X140219000Y-131416661D01*
X140223465Y-131371323D01*
X140234898Y-131333636D01*
X140253466Y-131298897D01*
X140278452Y-131268452D01*
X140308897Y-131243466D01*
X140343636Y-131224898D01*
X140381323Y-131213465D01*
X140426661Y-131209000D01*
X141513339Y-131209000D01*
X141558677Y-131213465D01*
X141558677Y-131213465D01*
G37*
G36*
X155528677Y-131213465D02*
X155566364Y-131224898D01*
X155601103Y-131243466D01*
X155631548Y-131268452D01*
X155656534Y-131298897D01*
X155675102Y-131333636D01*
X155686535Y-131371323D01*
X155691000Y-131416661D01*
X155691000Y-132253339D01*
X155686535Y-132298677D01*
X155675102Y-132336364D01*
X155656534Y-132371103D01*
X155631548Y-132401548D01*
X155601103Y-132426534D01*
X155566364Y-132445102D01*
X155528677Y-132456535D01*
X155483339Y-132461000D01*
X154396661Y-132461000D01*
X154351323Y-132456535D01*
X154313636Y-132445102D01*
X154278897Y-132426534D01*
X154248452Y-132401548D01*
X154223466Y-132371103D01*
X154204898Y-132336364D01*
X154193465Y-132298677D01*
X154189000Y-132253339D01*
X154189000Y-131416661D01*
X154193465Y-131371323D01*
X154204898Y-131333636D01*
X154223466Y-131298897D01*
X154248452Y-131268452D01*
X154278897Y-131243466D01*
X154313636Y-131224898D01*
X154351323Y-131213465D01*
X154396661Y-131209000D01*
X155483339Y-131209000D01*
X155528677Y-131213465D01*
X155528677Y-131213465D01*
G37*
G36*
X150136000Y-132136000D02*
X148474000Y-132136000D01*
X148474000Y-129484000D01*
X150136000Y-129484000D01*
X150136000Y-132136000D01*
X150136000Y-132136000D01*
G37*
G36*
X147436000Y-132136000D02*
X145774000Y-132136000D01*
X145774000Y-129484000D01*
X147436000Y-129484000D01*
X147436000Y-132136000D01*
X147436000Y-132136000D01*
G37*
G36*
X179068228Y-129481703D02*
X179223100Y-129545853D01*
X179362481Y-129638985D01*
X179481015Y-129757519D01*
X179574147Y-129896900D01*
X179638297Y-130051772D01*
X179671000Y-130216184D01*
X179671000Y-130383816D01*
X179638297Y-130548228D01*
X179574147Y-130703100D01*
X179481015Y-130842481D01*
X179362481Y-130961015D01*
X179223100Y-131054147D01*
X179068228Y-131118297D01*
X178903816Y-131151000D01*
X178736184Y-131151000D01*
X178571772Y-131118297D01*
X178416900Y-131054147D01*
X178277519Y-130961015D01*
X178158985Y-130842481D01*
X178065853Y-130703100D01*
X178001703Y-130548228D01*
X177969000Y-130383816D01*
X177969000Y-130216184D01*
X178001703Y-130051772D01*
X178065853Y-129896900D01*
X178158985Y-129757519D01*
X178277519Y-129638985D01*
X178416900Y-129545853D01*
X178571772Y-129481703D01*
X178736184Y-129449000D01*
X178903816Y-129449000D01*
X179068228Y-129481703D01*
X179068228Y-129481703D01*
G37*
G36*
X174951000Y-130526000D02*
X173349000Y-130526000D01*
X173349000Y-129824000D01*
X174951000Y-129824000D01*
X174951000Y-130526000D01*
X174951000Y-130526000D01*
G37*
G36*
X169551000Y-130526000D02*
X167949000Y-130526000D01*
X167949000Y-129824000D01*
X169551000Y-129824000D01*
X169551000Y-130526000D01*
X169551000Y-130526000D01*
G37*
G36*
X155528677Y-129163465D02*
X155566364Y-129174898D01*
X155601103Y-129193466D01*
X155631548Y-129218452D01*
X155656534Y-129248897D01*
X155675102Y-129283636D01*
X155686535Y-129321323D01*
X155691000Y-129366661D01*
X155691000Y-130203339D01*
X155686535Y-130248677D01*
X155675102Y-130286364D01*
X155656534Y-130321103D01*
X155631548Y-130351548D01*
X155601103Y-130376534D01*
X155566364Y-130395102D01*
X155528677Y-130406535D01*
X155483339Y-130411000D01*
X154396661Y-130411000D01*
X154351323Y-130406535D01*
X154313636Y-130395102D01*
X154278897Y-130376534D01*
X154248452Y-130351548D01*
X154223466Y-130321103D01*
X154204898Y-130286364D01*
X154193465Y-130248677D01*
X154189000Y-130203339D01*
X154189000Y-129366661D01*
X154193465Y-129321323D01*
X154204898Y-129283636D01*
X154223466Y-129248897D01*
X154248452Y-129218452D01*
X154278897Y-129193466D01*
X154313636Y-129174898D01*
X154351323Y-129163465D01*
X154396661Y-129159000D01*
X155483339Y-129159000D01*
X155528677Y-129163465D01*
X155528677Y-129163465D01*
G37*
G36*
X141558677Y-129163465D02*
X141596364Y-129174898D01*
X141631103Y-129193466D01*
X141661548Y-129218452D01*
X141686534Y-129248897D01*
X141705102Y-129283636D01*
X141716535Y-129321323D01*
X141721000Y-129366661D01*
X141721000Y-130203339D01*
X141716535Y-130248677D01*
X141705102Y-130286364D01*
X141686534Y-130321103D01*
X141661548Y-130351548D01*
X141631103Y-130376534D01*
X141596364Y-130395102D01*
X141558677Y-130406535D01*
X141513339Y-130411000D01*
X140426661Y-130411000D01*
X140381323Y-130406535D01*
X140343636Y-130395102D01*
X140308897Y-130376534D01*
X140278452Y-130351548D01*
X140253466Y-130321103D01*
X140234898Y-130286364D01*
X140223465Y-130248677D01*
X140219000Y-130203339D01*
X140219000Y-129366661D01*
X140223465Y-129321323D01*
X140234898Y-129283636D01*
X140253466Y-129248897D01*
X140278452Y-129218452D01*
X140308897Y-129193466D01*
X140343636Y-129174898D01*
X140381323Y-129163465D01*
X140426661Y-129159000D01*
X141513339Y-129159000D01*
X141558677Y-129163465D01*
X141558677Y-129163465D01*
G37*
G36*
X185668228Y-128456703D02*
X185823100Y-128520853D01*
X185962481Y-128613985D01*
X186081015Y-128732519D01*
X186174147Y-128871900D01*
X186238297Y-129026772D01*
X186271000Y-129191184D01*
X186271000Y-129358816D01*
X186238297Y-129523228D01*
X186174147Y-129678100D01*
X186081015Y-129817481D01*
X185962481Y-129936015D01*
X185823100Y-130029147D01*
X185668228Y-130093297D01*
X185503816Y-130126000D01*
X185336184Y-130126000D01*
X185171772Y-130093297D01*
X185016900Y-130029147D01*
X184877519Y-129936015D01*
X184758985Y-129817481D01*
X184665853Y-129678100D01*
X184601703Y-129523228D01*
X184569000Y-129358816D01*
X184569000Y-129191184D01*
X184601703Y-129026772D01*
X184665853Y-128871900D01*
X184758985Y-128732519D01*
X184877519Y-128613985D01*
X185016900Y-128520853D01*
X185171772Y-128456703D01*
X185336184Y-128424000D01*
X185503816Y-128424000D01*
X185668228Y-128456703D01*
X185668228Y-128456703D01*
G37*
G36*
X169551000Y-129256000D02*
X167949000Y-129256000D01*
X167949000Y-128554000D01*
X169551000Y-128554000D01*
X169551000Y-129256000D01*
X169551000Y-129256000D01*
G37*
G36*
X174951000Y-129256000D02*
X173349000Y-129256000D01*
X173349000Y-128554000D01*
X174951000Y-128554000D01*
X174951000Y-129256000D01*
X174951000Y-129256000D01*
G37*
G36*
X183888228Y-127441703D02*
X184043100Y-127505853D01*
X184182481Y-127598985D01*
X184301015Y-127717519D01*
X184394147Y-127856900D01*
X184458297Y-128011772D01*
X184491000Y-128176184D01*
X184491000Y-128343816D01*
X184458297Y-128508228D01*
X184394147Y-128663100D01*
X184301015Y-128802481D01*
X184182481Y-128921015D01*
X184043100Y-129014147D01*
X183888228Y-129078297D01*
X183723816Y-129111000D01*
X183556184Y-129111000D01*
X183391772Y-129078297D01*
X183236900Y-129014147D01*
X183097519Y-128921015D01*
X182978985Y-128802481D01*
X182885853Y-128663100D01*
X182821703Y-128508228D01*
X182789000Y-128343816D01*
X182789000Y-128176184D01*
X182821703Y-128011772D01*
X182885853Y-127856900D01*
X182978985Y-127717519D01*
X183097519Y-127598985D01*
X183236900Y-127505853D01*
X183391772Y-127441703D01*
X183556184Y-127409000D01*
X183723816Y-127409000D01*
X183888228Y-127441703D01*
X183888228Y-127441703D01*
G37*
G36*
X185668228Y-126426703D02*
X185823100Y-126490853D01*
X185962481Y-126583985D01*
X186081015Y-126702519D01*
X186174147Y-126841900D01*
X186238297Y-126996772D01*
X186271000Y-127161184D01*
X186271000Y-127328816D01*
X186238297Y-127493228D01*
X186174147Y-127648100D01*
X186081015Y-127787481D01*
X185962481Y-127906015D01*
X185823100Y-127999147D01*
X185668228Y-128063297D01*
X185503816Y-128096000D01*
X185336184Y-128096000D01*
X185171772Y-128063297D01*
X185016900Y-127999147D01*
X184877519Y-127906015D01*
X184758985Y-127787481D01*
X184665853Y-127648100D01*
X184601703Y-127493228D01*
X184569000Y-127328816D01*
X184569000Y-127161184D01*
X184601703Y-126996772D01*
X184665853Y-126841900D01*
X184758985Y-126702519D01*
X184877519Y-126583985D01*
X185016900Y-126490853D01*
X185171772Y-126426703D01*
X185336184Y-126394000D01*
X185503816Y-126394000D01*
X185668228Y-126426703D01*
X185668228Y-126426703D01*
G37*
G36*
X169551000Y-127986000D02*
X167949000Y-127986000D01*
X167949000Y-127284000D01*
X169551000Y-127284000D01*
X169551000Y-127986000D01*
X169551000Y-127986000D01*
G37*
G36*
X174951000Y-127986000D02*
X173349000Y-127986000D01*
X173349000Y-127284000D01*
X174951000Y-127284000D01*
X174951000Y-127986000D01*
X174951000Y-127986000D01*
G37*
G36*
X183888228Y-125411703D02*
X184043100Y-125475853D01*
X184182481Y-125568985D01*
X184301015Y-125687519D01*
X184394147Y-125826900D01*
X184458297Y-125981772D01*
X184491000Y-126146184D01*
X184491000Y-126313816D01*
X184458297Y-126478228D01*
X184394147Y-126633100D01*
X184301015Y-126772481D01*
X184182481Y-126891015D01*
X184043100Y-126984147D01*
X183888228Y-127048297D01*
X183723816Y-127081000D01*
X183556184Y-127081000D01*
X183391772Y-127048297D01*
X183236900Y-126984147D01*
X183097519Y-126891015D01*
X182978985Y-126772481D01*
X182885853Y-126633100D01*
X182821703Y-126478228D01*
X182789000Y-126313816D01*
X182789000Y-126146184D01*
X182821703Y-125981772D01*
X182885853Y-125826900D01*
X182978985Y-125687519D01*
X183097519Y-125568985D01*
X183236900Y-125475853D01*
X183391772Y-125411703D01*
X183556184Y-125379000D01*
X183723816Y-125379000D01*
X183888228Y-125411703D01*
X183888228Y-125411703D01*
G37*
G36*
X174951000Y-126716000D02*
X173349000Y-126716000D01*
X173349000Y-126014000D01*
X174951000Y-126014000D01*
X174951000Y-126716000D01*
X174951000Y-126716000D01*
G37*
G36*
X169551000Y-126716000D02*
X167949000Y-126716000D01*
X167949000Y-126014000D01*
X169551000Y-126014000D01*
X169551000Y-126716000D01*
X169551000Y-126716000D01*
G37*
G36*
X149443677Y-124983465D02*
X149481364Y-124994898D01*
X149516103Y-125013466D01*
X149546548Y-125038452D01*
X149571534Y-125068897D01*
X149590102Y-125103636D01*
X149601535Y-125141323D01*
X149606000Y-125186661D01*
X149606000Y-126273339D01*
X149601535Y-126318677D01*
X149590102Y-126356364D01*
X149571534Y-126391103D01*
X149546548Y-126421548D01*
X149516103Y-126446534D01*
X149481364Y-126465102D01*
X149443677Y-126476535D01*
X149398339Y-126481000D01*
X148561661Y-126481000D01*
X148516323Y-126476535D01*
X148478636Y-126465102D01*
X148443897Y-126446534D01*
X148413452Y-126421548D01*
X148388466Y-126391103D01*
X148369898Y-126356364D01*
X148358465Y-126318677D01*
X148354000Y-126273339D01*
X148354000Y-125186661D01*
X148358465Y-125141323D01*
X148369898Y-125103636D01*
X148388466Y-125068897D01*
X148413452Y-125038452D01*
X148443897Y-125013466D01*
X148478636Y-124994898D01*
X148516323Y-124983465D01*
X148561661Y-124979000D01*
X149398339Y-124979000D01*
X149443677Y-124983465D01*
X149443677Y-124983465D01*
G37*
G36*
X147393677Y-124983465D02*
X147431364Y-124994898D01*
X147466103Y-125013466D01*
X147496548Y-125038452D01*
X147521534Y-125068897D01*
X147540102Y-125103636D01*
X147551535Y-125141323D01*
X147556000Y-125186661D01*
X147556000Y-126273339D01*
X147551535Y-126318677D01*
X147540102Y-126356364D01*
X147521534Y-126391103D01*
X147496548Y-126421548D01*
X147466103Y-126446534D01*
X147431364Y-126465102D01*
X147393677Y-126476535D01*
X147348339Y-126481000D01*
X146511661Y-126481000D01*
X146466323Y-126476535D01*
X146428636Y-126465102D01*
X146393897Y-126446534D01*
X146363452Y-126421548D01*
X146338466Y-126391103D01*
X146319898Y-126356364D01*
X146308465Y-126318677D01*
X146304000Y-126273339D01*
X146304000Y-125186661D01*
X146308465Y-125141323D01*
X146319898Y-125103636D01*
X146338466Y-125068897D01*
X146363452Y-125038452D01*
X146393897Y-125013466D01*
X146428636Y-124994898D01*
X146466323Y-124983465D01*
X146511661Y-124979000D01*
X147348339Y-124979000D01*
X147393677Y-124983465D01*
X147393677Y-124983465D01*
G37*
G36*
X185668228Y-124396703D02*
X185823100Y-124460853D01*
X185962481Y-124553985D01*
X186081015Y-124672519D01*
X186174147Y-124811900D01*
X186238297Y-124966772D01*
X186271000Y-125131184D01*
X186271000Y-125298816D01*
X186238297Y-125463228D01*
X186174147Y-125618100D01*
X186081015Y-125757481D01*
X185962481Y-125876015D01*
X185823100Y-125969147D01*
X185668228Y-126033297D01*
X185503816Y-126066000D01*
X185336184Y-126066000D01*
X185171772Y-126033297D01*
X185016900Y-125969147D01*
X184877519Y-125876015D01*
X184758985Y-125757481D01*
X184665853Y-125618100D01*
X184601703Y-125463228D01*
X184569000Y-125298816D01*
X184569000Y-125131184D01*
X184601703Y-124966772D01*
X184665853Y-124811900D01*
X184758985Y-124672519D01*
X184877519Y-124553985D01*
X185016900Y-124460853D01*
X185171772Y-124396703D01*
X185336184Y-124364000D01*
X185503816Y-124364000D01*
X185668228Y-124396703D01*
X185668228Y-124396703D01*
G37*
G36*
X169551000Y-125446000D02*
X167949000Y-125446000D01*
X167949000Y-124744000D01*
X169551000Y-124744000D01*
X169551000Y-125446000D01*
X169551000Y-125446000D01*
G37*
G36*
X174951000Y-125446000D02*
X173349000Y-125446000D01*
X173349000Y-124744000D01*
X174951000Y-124744000D01*
X174951000Y-125446000D01*
X174951000Y-125446000D01*
G37*
G36*
X183888228Y-123381703D02*
X184043100Y-123445853D01*
X184182481Y-123538985D01*
X184301015Y-123657519D01*
X184394147Y-123796900D01*
X184458297Y-123951772D01*
X184491000Y-124116184D01*
X184491000Y-124283816D01*
X184458297Y-124448228D01*
X184394147Y-124603100D01*
X184301015Y-124742481D01*
X184182481Y-124861015D01*
X184043100Y-124954147D01*
X183888228Y-125018297D01*
X183723816Y-125051000D01*
X183556184Y-125051000D01*
X183391772Y-125018297D01*
X183236900Y-124954147D01*
X183097519Y-124861015D01*
X182978985Y-124742481D01*
X182885853Y-124603100D01*
X182821703Y-124448228D01*
X182789000Y-124283816D01*
X182789000Y-124116184D01*
X182821703Y-123951772D01*
X182885853Y-123796900D01*
X182978985Y-123657519D01*
X183097519Y-123538985D01*
X183236900Y-123445853D01*
X183391772Y-123381703D01*
X183556184Y-123349000D01*
X183723816Y-123349000D01*
X183888228Y-123381703D01*
X183888228Y-123381703D01*
G37*
G36*
X169551000Y-124176000D02*
X167949000Y-124176000D01*
X167949000Y-123474000D01*
X169551000Y-123474000D01*
X169551000Y-124176000D01*
X169551000Y-124176000D01*
G37*
G36*
X174951000Y-124176000D02*
X173349000Y-124176000D01*
X173349000Y-123474000D01*
X174951000Y-123474000D01*
X174951000Y-124176000D01*
X174951000Y-124176000D01*
G37*
G36*
X185668228Y-122366703D02*
X185823100Y-122430853D01*
X185962481Y-122523985D01*
X186081015Y-122642519D01*
X186174147Y-122781900D01*
X186238297Y-122936772D01*
X186271000Y-123101184D01*
X186271000Y-123268816D01*
X186238297Y-123433228D01*
X186174147Y-123588100D01*
X186081015Y-123727481D01*
X185962481Y-123846015D01*
X185823100Y-123939147D01*
X185668228Y-124003297D01*
X185503816Y-124036000D01*
X185336184Y-124036000D01*
X185171772Y-124003297D01*
X185016900Y-123939147D01*
X184877519Y-123846015D01*
X184758985Y-123727481D01*
X184665853Y-123588100D01*
X184601703Y-123433228D01*
X184569000Y-123268816D01*
X184569000Y-123101184D01*
X184601703Y-122936772D01*
X184665853Y-122781900D01*
X184758985Y-122642519D01*
X184877519Y-122523985D01*
X185016900Y-122430853D01*
X185171772Y-122366703D01*
X185336184Y-122334000D01*
X185503816Y-122334000D01*
X185668228Y-122366703D01*
X185668228Y-122366703D01*
G37*
G36*
X183888228Y-121351703D02*
X184043100Y-121415853D01*
X184182481Y-121508985D01*
X184301015Y-121627519D01*
X184394147Y-121766900D01*
X184458297Y-121921772D01*
X184491000Y-122086184D01*
X184491000Y-122253816D01*
X184458297Y-122418228D01*
X184394147Y-122573100D01*
X184301015Y-122712481D01*
X184182481Y-122831015D01*
X184043100Y-122924147D01*
X183888228Y-122988297D01*
X183723816Y-123021000D01*
X183556184Y-123021000D01*
X183391772Y-122988297D01*
X183236900Y-122924147D01*
X183097519Y-122831015D01*
X182978985Y-122712481D01*
X182885853Y-122573100D01*
X182821703Y-122418228D01*
X182789000Y-122253816D01*
X182789000Y-122086184D01*
X182821703Y-121921772D01*
X182885853Y-121766900D01*
X182978985Y-121627519D01*
X183097519Y-121508985D01*
X183236900Y-121415853D01*
X183391772Y-121351703D01*
X183556184Y-121319000D01*
X183723816Y-121319000D01*
X183888228Y-121351703D01*
X183888228Y-121351703D01*
G37*
G36*
X169551000Y-122906000D02*
X167949000Y-122906000D01*
X167949000Y-122204000D01*
X169551000Y-122204000D01*
X169551000Y-122906000D01*
X169551000Y-122906000D01*
G37*
G36*
X174951000Y-122906000D02*
X173349000Y-122906000D01*
X173349000Y-122204000D01*
X174951000Y-122204000D01*
X174951000Y-122906000D01*
X174951000Y-122906000D01*
G37*
G36*
X179068228Y-120341703D02*
X179223100Y-120405853D01*
X179362481Y-120498985D01*
X179481015Y-120617519D01*
X179574147Y-120756900D01*
X179638297Y-120911772D01*
X179671000Y-121076184D01*
X179671000Y-121243816D01*
X179638297Y-121408228D01*
X179574147Y-121563100D01*
X179481015Y-121702481D01*
X179362481Y-121821015D01*
X179223100Y-121914147D01*
X179068228Y-121978297D01*
X178903816Y-122011000D01*
X178736184Y-122011000D01*
X178571772Y-121978297D01*
X178416900Y-121914147D01*
X178277519Y-121821015D01*
X178158985Y-121702481D01*
X178065853Y-121563100D01*
X178001703Y-121408228D01*
X177969000Y-121243816D01*
X177969000Y-121076184D01*
X178001703Y-120911772D01*
X178065853Y-120756900D01*
X178158985Y-120617519D01*
X178277519Y-120498985D01*
X178416900Y-120405853D01*
X178571772Y-120341703D01*
X178736184Y-120309000D01*
X178903816Y-120309000D01*
X179068228Y-120341703D01*
X179068228Y-120341703D01*
G37*
G36*
X169551000Y-121636000D02*
X167949000Y-121636000D01*
X167949000Y-120934000D01*
X169551000Y-120934000D01*
X169551000Y-121636000D01*
X169551000Y-121636000D01*
G37*
G36*
X174951000Y-121636000D02*
X173349000Y-121636000D01*
X173349000Y-120934000D01*
X174951000Y-120934000D01*
X174951000Y-121636000D01*
X174951000Y-121636000D01*
G37*
G36*
X188485331Y-117648211D02*
X188813092Y-117783974D01*
X189108073Y-117981074D01*
X189358926Y-118231927D01*
X189556026Y-118526908D01*
X189691789Y-118854669D01*
X189761000Y-119202616D01*
X189761000Y-119557384D01*
X189691789Y-119905331D01*
X189556026Y-120233092D01*
X189358926Y-120528073D01*
X189108073Y-120778926D01*
X188813092Y-120976026D01*
X188485331Y-121111789D01*
X188137384Y-121181000D01*
X187782616Y-121181000D01*
X187434669Y-121111789D01*
X187106908Y-120976026D01*
X186811927Y-120778926D01*
X186561074Y-120528073D01*
X186363974Y-120233092D01*
X186228211Y-119905331D01*
X186159000Y-119557384D01*
X186159000Y-119202616D01*
X186228211Y-118854669D01*
X186363974Y-118526908D01*
X186561074Y-118231927D01*
X186811927Y-117981074D01*
X187106908Y-117783974D01*
X187434669Y-117648211D01*
X187782616Y-117579000D01*
X188137384Y-117579000D01*
X188485331Y-117648211D01*
X188485331Y-117648211D01*
G37*
G36*
X168348677Y-118633465D02*
X168386364Y-118644898D01*
X168421103Y-118663466D01*
X168451548Y-118688452D01*
X168476534Y-118718897D01*
X168495102Y-118753636D01*
X168506535Y-118791323D01*
X168511000Y-118836661D01*
X168511000Y-119923339D01*
X168506535Y-119968677D01*
X168495102Y-120006364D01*
X168476534Y-120041103D01*
X168451548Y-120071548D01*
X168421103Y-120096534D01*
X168386364Y-120115102D01*
X168348677Y-120126535D01*
X168303339Y-120131000D01*
X167466661Y-120131000D01*
X167421323Y-120126535D01*
X167383636Y-120115102D01*
X167348897Y-120096534D01*
X167318452Y-120071548D01*
X167293466Y-120041103D01*
X167274898Y-120006364D01*
X167263465Y-119968677D01*
X167259000Y-119923339D01*
X167259000Y-118836661D01*
X167263465Y-118791323D01*
X167274898Y-118753636D01*
X167293466Y-118718897D01*
X167318452Y-118688452D01*
X167348897Y-118663466D01*
X167383636Y-118644898D01*
X167421323Y-118633465D01*
X167466661Y-118629000D01*
X168303339Y-118629000D01*
X168348677Y-118633465D01*
X168348677Y-118633465D01*
G37*
G36*
X170398677Y-118633465D02*
X170436364Y-118644898D01*
X170471103Y-118663466D01*
X170501548Y-118688452D01*
X170526534Y-118718897D01*
X170545102Y-118753636D01*
X170556535Y-118791323D01*
X170561000Y-118836661D01*
X170561000Y-119923339D01*
X170556535Y-119968677D01*
X170545102Y-120006364D01*
X170526534Y-120041103D01*
X170501548Y-120071548D01*
X170471103Y-120096534D01*
X170436364Y-120115102D01*
X170398677Y-120126535D01*
X170353339Y-120131000D01*
X169516661Y-120131000D01*
X169471323Y-120126535D01*
X169433636Y-120115102D01*
X169398897Y-120096534D01*
X169368452Y-120071548D01*
X169343466Y-120041103D01*
X169324898Y-120006364D01*
X169313465Y-119968677D01*
X169309000Y-119923339D01*
X169309000Y-118836661D01*
X169313465Y-118791323D01*
X169324898Y-118753636D01*
X169343466Y-118718897D01*
X169368452Y-118688452D01*
X169398897Y-118663466D01*
X169433636Y-118644898D01*
X169471323Y-118633465D01*
X169516661Y-118629000D01*
X170353339Y-118629000D01*
X170398677Y-118633465D01*
X170398677Y-118633465D01*
G37*
G36*
X173428677Y-118633465D02*
X173466364Y-118644898D01*
X173501103Y-118663466D01*
X173531548Y-118688452D01*
X173556534Y-118718897D01*
X173575102Y-118753636D01*
X173586535Y-118791323D01*
X173591000Y-118836661D01*
X173591000Y-119923339D01*
X173586535Y-119968677D01*
X173575102Y-120006364D01*
X173556534Y-120041103D01*
X173531548Y-120071548D01*
X173501103Y-120096534D01*
X173466364Y-120115102D01*
X173428677Y-120126535D01*
X173383339Y-120131000D01*
X172546661Y-120131000D01*
X172501323Y-120126535D01*
X172463636Y-120115102D01*
X172428897Y-120096534D01*
X172398452Y-120071548D01*
X172373466Y-120041103D01*
X172354898Y-120006364D01*
X172343465Y-119968677D01*
X172339000Y-119923339D01*
X172339000Y-118836661D01*
X172343465Y-118791323D01*
X172354898Y-118753636D01*
X172373466Y-118718897D01*
X172398452Y-118688452D01*
X172428897Y-118663466D01*
X172463636Y-118644898D01*
X172501323Y-118633465D01*
X172546661Y-118629000D01*
X173383339Y-118629000D01*
X173428677Y-118633465D01*
X173428677Y-118633465D01*
G37*
G36*
X175478677Y-118633465D02*
X175516364Y-118644898D01*
X175551103Y-118663466D01*
X175581548Y-118688452D01*
X175606534Y-118718897D01*
X175625102Y-118753636D01*
X175636535Y-118791323D01*
X175641000Y-118836661D01*
X175641000Y-119923339D01*
X175636535Y-119968677D01*
X175625102Y-120006364D01*
X175606534Y-120041103D01*
X175581548Y-120071548D01*
X175551103Y-120096534D01*
X175516364Y-120115102D01*
X175478677Y-120126535D01*
X175433339Y-120131000D01*
X174596661Y-120131000D01*
X174551323Y-120126535D01*
X174513636Y-120115102D01*
X174478897Y-120096534D01*
X174448452Y-120071548D01*
X174423466Y-120041103D01*
X174404898Y-120006364D01*
X174393465Y-119968677D01*
X174389000Y-119923339D01*
X174389000Y-118836661D01*
X174393465Y-118791323D01*
X174404898Y-118753636D01*
X174423466Y-118718897D01*
X174448452Y-118688452D01*
X174478897Y-118663466D01*
X174513636Y-118644898D01*
X174551323Y-118633465D01*
X174596661Y-118629000D01*
X175433339Y-118629000D01*
X175478677Y-118633465D01*
X175478677Y-118633465D01*
G37*
G36*
X179068228Y-118051703D02*
X179223100Y-118115853D01*
X179362481Y-118208985D01*
X179481015Y-118327519D01*
X179574147Y-118466900D01*
X179638297Y-118621772D01*
X179671000Y-118786184D01*
X179671000Y-118953816D01*
X179638297Y-119118228D01*
X179574147Y-119273100D01*
X179481015Y-119412481D01*
X179362481Y-119531015D01*
X179223100Y-119624147D01*
X179068228Y-119688297D01*
X178903816Y-119721000D01*
X178736184Y-119721000D01*
X178571772Y-119688297D01*
X178416900Y-119624147D01*
X178277519Y-119531015D01*
X178158985Y-119412481D01*
X178065853Y-119273100D01*
X178001703Y-119118228D01*
X177969000Y-118953816D01*
X177969000Y-118786184D01*
X178001703Y-118621772D01*
X178065853Y-118466900D01*
X178158985Y-118327519D01*
X178277519Y-118208985D01*
X178416900Y-118115853D01*
X178571772Y-118051703D01*
X178736184Y-118019000D01*
X178903816Y-118019000D01*
X179068228Y-118051703D01*
X179068228Y-118051703D01*
G37*
G36*
X183098677Y-116093465D02*
X183136364Y-116104898D01*
X183171103Y-116123466D01*
X183201548Y-116148452D01*
X183226534Y-116178897D01*
X183245102Y-116213636D01*
X183256535Y-116251323D01*
X183261000Y-116296661D01*
X183261000Y-116835383D01*
X183263402Y-116859769D01*
X183270515Y-116883218D01*
X183282066Y-116904829D01*
X183297612Y-116923771D01*
X183316554Y-116939317D01*
X183338165Y-116950868D01*
X183361614Y-116957981D01*
X183386000Y-116960383D01*
X183410386Y-116957981D01*
X183433835Y-116950868D01*
X183455446Y-116939317D01*
X183474388Y-116923771D01*
X183489931Y-116904833D01*
X183558285Y-116802534D01*
X183558287Y-116802531D01*
X183732531Y-116628287D01*
X183733458Y-116627668D01*
X183937429Y-116491378D01*
X184165097Y-116397075D01*
X184346364Y-116361019D01*
X184406786Y-116349000D01*
X184653214Y-116349000D01*
X184713636Y-116361019D01*
X184894903Y-116397075D01*
X185122571Y-116491378D01*
X185326542Y-116627668D01*
X185327469Y-116628287D01*
X185501713Y-116802531D01*
X185501715Y-116802534D01*
X185638622Y-117007429D01*
X185732925Y-117235097D01*
X185781000Y-117476787D01*
X185781000Y-117723213D01*
X185732925Y-117964903D01*
X185638622Y-118192571D01*
X185548452Y-118327519D01*
X185501713Y-118397469D01*
X185327469Y-118571713D01*
X185327466Y-118571715D01*
X185122571Y-118708622D01*
X184894903Y-118802925D01*
X184725300Y-118836661D01*
X184653214Y-118851000D01*
X184406786Y-118851000D01*
X184334700Y-118836661D01*
X184165097Y-118802925D01*
X183937429Y-118708622D01*
X183732534Y-118571715D01*
X183732531Y-118571713D01*
X183558287Y-118397469D01*
X183511548Y-118327519D01*
X183421378Y-118192571D01*
X183327075Y-117964903D01*
X183279000Y-117723213D01*
X183279000Y-117700377D01*
X183276598Y-117675991D01*
X183269485Y-117652542D01*
X183257934Y-117630931D01*
X183242388Y-117611989D01*
X183223446Y-117596443D01*
X183201835Y-117584892D01*
X183178386Y-117577779D01*
X183154000Y-117575377D01*
X183117715Y-117580759D01*
X183098674Y-117586535D01*
X183053339Y-117591000D01*
X182216661Y-117591000D01*
X182171323Y-117586535D01*
X182133636Y-117575102D01*
X182098897Y-117556534D01*
X182068452Y-117531548D01*
X182043466Y-117501103D01*
X182024898Y-117466364D01*
X182013465Y-117428677D01*
X182009000Y-117383339D01*
X182009000Y-116296661D01*
X182013465Y-116251323D01*
X182024898Y-116213636D01*
X182043466Y-116178897D01*
X182068452Y-116148452D01*
X182098897Y-116123466D01*
X182133636Y-116104898D01*
X182171323Y-116093465D01*
X182216661Y-116089000D01*
X183053339Y-116089000D01*
X183098677Y-116093465D01*
X183098677Y-116093465D01*
G37*
G36*
X181048677Y-116093465D02*
X181086364Y-116104898D01*
X181121103Y-116123466D01*
X181151548Y-116148452D01*
X181176534Y-116178897D01*
X181195102Y-116213636D01*
X181206535Y-116251323D01*
X181211000Y-116296661D01*
X181211000Y-117383339D01*
X181206535Y-117428677D01*
X181195102Y-117466364D01*
X181176534Y-117501103D01*
X181151548Y-117531548D01*
X181121103Y-117556534D01*
X181086364Y-117575102D01*
X181048677Y-117586535D01*
X181003339Y-117591000D01*
X180166661Y-117591000D01*
X180121323Y-117586535D01*
X180083636Y-117575102D01*
X180048897Y-117556534D01*
X180018452Y-117531548D01*
X179993466Y-117501103D01*
X179974898Y-117466364D01*
X179963465Y-117428677D01*
X179959000Y-117383339D01*
X179959000Y-116296661D01*
X179963465Y-116251323D01*
X179974898Y-116213636D01*
X179993466Y-116178897D01*
X180018452Y-116148452D01*
X180048897Y-116123466D01*
X180083636Y-116104898D01*
X180121323Y-116093465D01*
X180166661Y-116089000D01*
X181003339Y-116089000D01*
X181048677Y-116093465D01*
X181048677Y-116093465D01*
G37*
G36*
X181048677Y-113553465D02*
X181086364Y-113564898D01*
X181121103Y-113583466D01*
X181151548Y-113608452D01*
X181176534Y-113638897D01*
X181195102Y-113673636D01*
X181206535Y-113711323D01*
X181211000Y-113756661D01*
X181211000Y-114843339D01*
X181206535Y-114888677D01*
X181195102Y-114926364D01*
X181176534Y-114961103D01*
X181151548Y-114991548D01*
X181121103Y-115016534D01*
X181086364Y-115035102D01*
X181048677Y-115046535D01*
X181003339Y-115051000D01*
X180166661Y-115051000D01*
X180121323Y-115046535D01*
X180083636Y-115035102D01*
X180048897Y-115016534D01*
X180018452Y-114991548D01*
X179993466Y-114961103D01*
X179974898Y-114926364D01*
X179963465Y-114888677D01*
X179959000Y-114843339D01*
X179959000Y-113756661D01*
X179963465Y-113711323D01*
X179974898Y-113673636D01*
X179993466Y-113638897D01*
X180018452Y-113608452D01*
X180048897Y-113583466D01*
X180083636Y-113564898D01*
X180121323Y-113553465D01*
X180166661Y-113549000D01*
X181003339Y-113549000D01*
X181048677Y-113553465D01*
X181048677Y-113553465D01*
G37*
G36*
X184713635Y-112301019D02*
X184894903Y-112337075D01*
X185122571Y-112431378D01*
X185326542Y-112567668D01*
X185327469Y-112568287D01*
X185501713Y-112742531D01*
X185501715Y-112742534D01*
X185638622Y-112947429D01*
X185732925Y-113175097D01*
X185781000Y-113416787D01*
X185781000Y-113663213D01*
X185732925Y-113904903D01*
X185638622Y-114132571D01*
X185555627Y-114256781D01*
X185501713Y-114337469D01*
X185327469Y-114511713D01*
X185327466Y-114511715D01*
X185122571Y-114648622D01*
X184894903Y-114742925D01*
X184714411Y-114778827D01*
X184653214Y-114791000D01*
X184406786Y-114791000D01*
X184345589Y-114778827D01*
X184165097Y-114742925D01*
X183937429Y-114648622D01*
X183732534Y-114511715D01*
X183732531Y-114511713D01*
X183558287Y-114337469D01*
X183504373Y-114256781D01*
X183489931Y-114235167D01*
X183474389Y-114216229D01*
X183455447Y-114200684D01*
X183433836Y-114189132D01*
X183410387Y-114182019D01*
X183386000Y-114179617D01*
X183361614Y-114182019D01*
X183338165Y-114189132D01*
X183316554Y-114200683D01*
X183297612Y-114216228D01*
X183282067Y-114235170D01*
X183270515Y-114256781D01*
X183263402Y-114280230D01*
X183261000Y-114304617D01*
X183261000Y-114843339D01*
X183256535Y-114888677D01*
X183245102Y-114926364D01*
X183226534Y-114961103D01*
X183201548Y-114991548D01*
X183171103Y-115016534D01*
X183136364Y-115035102D01*
X183098677Y-115046535D01*
X183053339Y-115051000D01*
X182216661Y-115051000D01*
X182171323Y-115046535D01*
X182133636Y-115035102D01*
X182098897Y-115016534D01*
X182068452Y-114991548D01*
X182043466Y-114961103D01*
X182024898Y-114926364D01*
X182013465Y-114888677D01*
X182009000Y-114843339D01*
X182009000Y-113756661D01*
X182013465Y-113711323D01*
X182024898Y-113673636D01*
X182043466Y-113638897D01*
X182068452Y-113608452D01*
X182098897Y-113583466D01*
X182133636Y-113564898D01*
X182171323Y-113553465D01*
X182216661Y-113549000D01*
X183053339Y-113549000D01*
X183098674Y-113553465D01*
X183117715Y-113559241D01*
X183141748Y-113564021D01*
X183166253Y-113564021D01*
X183190286Y-113559240D01*
X183212925Y-113549863D01*
X183233300Y-113536249D01*
X183250627Y-113518922D01*
X183264240Y-113498547D01*
X183273618Y-113475908D01*
X183279000Y-113439623D01*
X183279000Y-113416786D01*
X183291086Y-113356025D01*
X183327075Y-113175097D01*
X183421378Y-112947429D01*
X183558285Y-112742534D01*
X183558287Y-112742531D01*
X183732531Y-112568287D01*
X183733458Y-112567668D01*
X183937429Y-112431378D01*
X184165097Y-112337075D01*
X184346365Y-112301019D01*
X184406786Y-112289000D01*
X184653214Y-112289000D01*
X184713635Y-112301019D01*
X184713635Y-112301019D01*
G37*
G36*
X188485331Y-110028211D02*
X188813092Y-110163974D01*
X189108073Y-110361074D01*
X189358926Y-110611927D01*
X189556026Y-110906908D01*
X189691789Y-111234669D01*
X189761000Y-111582616D01*
X189761000Y-111937384D01*
X189691789Y-112285331D01*
X189556026Y-112613092D01*
X189358926Y-112908073D01*
X189108073Y-113158926D01*
X188813092Y-113356026D01*
X188485331Y-113491789D01*
X188137384Y-113561000D01*
X187782616Y-113561000D01*
X187434669Y-113491789D01*
X187106908Y-113356026D01*
X186811927Y-113158926D01*
X186561074Y-112908073D01*
X186363974Y-112613092D01*
X186228211Y-112285331D01*
X186159000Y-111937384D01*
X186159000Y-111582616D01*
X186228211Y-111234669D01*
X186363974Y-110906908D01*
X186561074Y-110611927D01*
X186811927Y-110361074D01*
X187106908Y-110163974D01*
X187434669Y-110028211D01*
X187782616Y-109959000D01*
X188137384Y-109959000D01*
X188485331Y-110028211D01*
X188485331Y-110028211D01*
G37*
G36*
X179068228Y-111451703D02*
X179223100Y-111515853D01*
X179362481Y-111608985D01*
X179481015Y-111727519D01*
X179574147Y-111866900D01*
X179638297Y-112021772D01*
X179671000Y-112186184D01*
X179671000Y-112353816D01*
X179638297Y-112518228D01*
X179574147Y-112673100D01*
X179481015Y-112812481D01*
X179362481Y-112931015D01*
X179223100Y-113024147D01*
X179068228Y-113088297D01*
X178903816Y-113121000D01*
X178736184Y-113121000D01*
X178571772Y-113088297D01*
X178416900Y-113024147D01*
X178277519Y-112931015D01*
X178158985Y-112812481D01*
X178065853Y-112673100D01*
X178001703Y-112518228D01*
X177969000Y-112353816D01*
X177969000Y-112186184D01*
X178001703Y-112021772D01*
X178065853Y-111866900D01*
X178158985Y-111727519D01*
X178277519Y-111608985D01*
X178416900Y-111515853D01*
X178571772Y-111451703D01*
X178736184Y-111419000D01*
X178903816Y-111419000D01*
X179068228Y-111451703D01*
X179068228Y-111451703D01*
G37*
G36*
X179068228Y-109161703D02*
X179223100Y-109225853D01*
X179362481Y-109318985D01*
X179481015Y-109437519D01*
X179574147Y-109576900D01*
X179638297Y-109731772D01*
X179671000Y-109896184D01*
X179671000Y-110063816D01*
X179638297Y-110228228D01*
X179574147Y-110383100D01*
X179481015Y-110522481D01*
X179362481Y-110641015D01*
X179223100Y-110734147D01*
X179068228Y-110798297D01*
X178903816Y-110831000D01*
X178736184Y-110831000D01*
X178571772Y-110798297D01*
X178416900Y-110734147D01*
X178277519Y-110641015D01*
X178158985Y-110522481D01*
X178065853Y-110383100D01*
X178001703Y-110228228D01*
X177969000Y-110063816D01*
X177969000Y-109896184D01*
X178001703Y-109731772D01*
X178065853Y-109576900D01*
X178158985Y-109437519D01*
X178277519Y-109318985D01*
X178416900Y-109225853D01*
X178571772Y-109161703D01*
X178736184Y-109129000D01*
X178903816Y-109129000D01*
X179068228Y-109161703D01*
X179068228Y-109161703D01*
G37*
G36*
X169551000Y-110206000D02*
X167949000Y-110206000D01*
X167949000Y-109504000D01*
X169551000Y-109504000D01*
X169551000Y-110206000D01*
X169551000Y-110206000D01*
G37*
G36*
X174951000Y-110206000D02*
X173349000Y-110206000D01*
X173349000Y-109504000D01*
X174951000Y-109504000D01*
X174951000Y-110206000D01*
X174951000Y-110206000D01*
G37*
G36*
X185668228Y-108136703D02*
X185823100Y-108200853D01*
X185962481Y-108293985D01*
X186081015Y-108412519D01*
X186174147Y-108551900D01*
X186238297Y-108706772D01*
X186271000Y-108871184D01*
X186271000Y-109038816D01*
X186238297Y-109203228D01*
X186174147Y-109358100D01*
X186081015Y-109497481D01*
X185962481Y-109616015D01*
X185823100Y-109709147D01*
X185668228Y-109773297D01*
X185503816Y-109806000D01*
X185336184Y-109806000D01*
X185171772Y-109773297D01*
X185016900Y-109709147D01*
X184877519Y-109616015D01*
X184758985Y-109497481D01*
X184665853Y-109358100D01*
X184601703Y-109203228D01*
X184569000Y-109038816D01*
X184569000Y-108871184D01*
X184601703Y-108706772D01*
X184665853Y-108551900D01*
X184758985Y-108412519D01*
X184877519Y-108293985D01*
X185016900Y-108200853D01*
X185171772Y-108136703D01*
X185336184Y-108104000D01*
X185503816Y-108104000D01*
X185668228Y-108136703D01*
X185668228Y-108136703D01*
G37*
G36*
X174951000Y-108936000D02*
X173349000Y-108936000D01*
X173349000Y-108234000D01*
X174951000Y-108234000D01*
X174951000Y-108936000D01*
X174951000Y-108936000D01*
G37*
G36*
X169551000Y-108936000D02*
X167949000Y-108936000D01*
X167949000Y-108234000D01*
X169551000Y-108234000D01*
X169551000Y-108936000D01*
X169551000Y-108936000D01*
G37*
G36*
X183888228Y-107121703D02*
X184043100Y-107185853D01*
X184182481Y-107278985D01*
X184301015Y-107397519D01*
X184394147Y-107536900D01*
X184458297Y-107691772D01*
X184491000Y-107856184D01*
X184491000Y-108023816D01*
X184458297Y-108188228D01*
X184394147Y-108343100D01*
X184301015Y-108482481D01*
X184182481Y-108601015D01*
X184043100Y-108694147D01*
X183888228Y-108758297D01*
X183723816Y-108791000D01*
X183556184Y-108791000D01*
X183391772Y-108758297D01*
X183236900Y-108694147D01*
X183097519Y-108601015D01*
X182978985Y-108482481D01*
X182885853Y-108343100D01*
X182821703Y-108188228D01*
X182789000Y-108023816D01*
X182789000Y-107856184D01*
X182821703Y-107691772D01*
X182885853Y-107536900D01*
X182978985Y-107397519D01*
X183097519Y-107278985D01*
X183236900Y-107185853D01*
X183391772Y-107121703D01*
X183556184Y-107089000D01*
X183723816Y-107089000D01*
X183888228Y-107121703D01*
X183888228Y-107121703D01*
G37*
G36*
X185668228Y-106106703D02*
X185823100Y-106170853D01*
X185962481Y-106263985D01*
X186081015Y-106382519D01*
X186174147Y-106521900D01*
X186238297Y-106676772D01*
X186271000Y-106841184D01*
X186271000Y-107008816D01*
X186238297Y-107173228D01*
X186174147Y-107328100D01*
X186081015Y-107467481D01*
X185962481Y-107586015D01*
X185823100Y-107679147D01*
X185668228Y-107743297D01*
X185503816Y-107776000D01*
X185336184Y-107776000D01*
X185171772Y-107743297D01*
X185016900Y-107679147D01*
X184877519Y-107586015D01*
X184758985Y-107467481D01*
X184665853Y-107328100D01*
X184601703Y-107173228D01*
X184569000Y-107008816D01*
X184569000Y-106841184D01*
X184601703Y-106676772D01*
X184665853Y-106521900D01*
X184758985Y-106382519D01*
X184877519Y-106263985D01*
X185016900Y-106170853D01*
X185171772Y-106106703D01*
X185336184Y-106074000D01*
X185503816Y-106074000D01*
X185668228Y-106106703D01*
X185668228Y-106106703D01*
G37*
G36*
X169551000Y-107666000D02*
X167949000Y-107666000D01*
X167949000Y-106964000D01*
X169551000Y-106964000D01*
X169551000Y-107666000D01*
X169551000Y-107666000D01*
G37*
G36*
X174951000Y-107666000D02*
X173349000Y-107666000D01*
X173349000Y-106964000D01*
X174951000Y-106964000D01*
X174951000Y-107666000D01*
X174951000Y-107666000D01*
G37*
G36*
X150108228Y-105861703D02*
X150263100Y-105925853D01*
X150402481Y-106018985D01*
X150521015Y-106137519D01*
X150614147Y-106276900D01*
X150678297Y-106431772D01*
X150711000Y-106596184D01*
X150711000Y-106763816D01*
X150678297Y-106928228D01*
X150614147Y-107083100D01*
X150521015Y-107222481D01*
X150402481Y-107341015D01*
X150263100Y-107434147D01*
X150108228Y-107498297D01*
X149943816Y-107531000D01*
X149776184Y-107531000D01*
X149611772Y-107498297D01*
X149456900Y-107434147D01*
X149317519Y-107341015D01*
X149198985Y-107222481D01*
X149105853Y-107083100D01*
X149041703Y-106928228D01*
X149009000Y-106763816D01*
X149009000Y-106596184D01*
X149041703Y-106431772D01*
X149105853Y-106276900D01*
X149198985Y-106137519D01*
X149317519Y-106018985D01*
X149456900Y-105925853D01*
X149611772Y-105861703D01*
X149776184Y-105829000D01*
X149943816Y-105829000D01*
X150108228Y-105861703D01*
X150108228Y-105861703D01*
G37*
G36*
X155188228Y-105861703D02*
X155343100Y-105925853D01*
X155482481Y-106018985D01*
X155601015Y-106137519D01*
X155694147Y-106276900D01*
X155758297Y-106431772D01*
X155791000Y-106596184D01*
X155791000Y-106763816D01*
X155758297Y-106928228D01*
X155694147Y-107083100D01*
X155601015Y-107222481D01*
X155482481Y-107341015D01*
X155343100Y-107434147D01*
X155188228Y-107498297D01*
X155023816Y-107531000D01*
X154856184Y-107531000D01*
X154691772Y-107498297D01*
X154536900Y-107434147D01*
X154397519Y-107341015D01*
X154278985Y-107222481D01*
X154185853Y-107083100D01*
X154121703Y-106928228D01*
X154089000Y-106763816D01*
X154089000Y-106596184D01*
X154121703Y-106431772D01*
X154185853Y-106276900D01*
X154278985Y-106137519D01*
X154397519Y-106018985D01*
X154536900Y-105925853D01*
X154691772Y-105861703D01*
X154856184Y-105829000D01*
X155023816Y-105829000D01*
X155188228Y-105861703D01*
X155188228Y-105861703D01*
G37*
G36*
X152648228Y-105861703D02*
X152803100Y-105925853D01*
X152942481Y-106018985D01*
X153061015Y-106137519D01*
X153154147Y-106276900D01*
X153218297Y-106431772D01*
X153251000Y-106596184D01*
X153251000Y-106763816D01*
X153218297Y-106928228D01*
X153154147Y-107083100D01*
X153061015Y-107222481D01*
X152942481Y-107341015D01*
X152803100Y-107434147D01*
X152648228Y-107498297D01*
X152483816Y-107531000D01*
X152316184Y-107531000D01*
X152151772Y-107498297D01*
X151996900Y-107434147D01*
X151857519Y-107341015D01*
X151738985Y-107222481D01*
X151645853Y-107083100D01*
X151581703Y-106928228D01*
X151549000Y-106763816D01*
X151549000Y-106596184D01*
X151581703Y-106431772D01*
X151645853Y-106276900D01*
X151738985Y-106137519D01*
X151857519Y-106018985D01*
X151996900Y-105925853D01*
X152151772Y-105861703D01*
X152316184Y-105829000D01*
X152483816Y-105829000D01*
X152648228Y-105861703D01*
X152648228Y-105861703D01*
G37*
G36*
X147568228Y-105861703D02*
X147723100Y-105925853D01*
X147862481Y-106018985D01*
X147981015Y-106137519D01*
X148074147Y-106276900D01*
X148138297Y-106431772D01*
X148171000Y-106596184D01*
X148171000Y-106763816D01*
X148138297Y-106928228D01*
X148074147Y-107083100D01*
X147981015Y-107222481D01*
X147862481Y-107341015D01*
X147723100Y-107434147D01*
X147568228Y-107498297D01*
X147403816Y-107531000D01*
X147236184Y-107531000D01*
X147071772Y-107498297D01*
X146916900Y-107434147D01*
X146777519Y-107341015D01*
X146658985Y-107222481D01*
X146565853Y-107083100D01*
X146501703Y-106928228D01*
X146469000Y-106763816D01*
X146469000Y-106596184D01*
X146501703Y-106431772D01*
X146565853Y-106276900D01*
X146658985Y-106137519D01*
X146777519Y-106018985D01*
X146916900Y-105925853D01*
X147071772Y-105861703D01*
X147236184Y-105829000D01*
X147403816Y-105829000D01*
X147568228Y-105861703D01*
X147568228Y-105861703D01*
G37*
G36*
X145028228Y-105861703D02*
X145183100Y-105925853D01*
X145322481Y-106018985D01*
X145441015Y-106137519D01*
X145534147Y-106276900D01*
X145598297Y-106431772D01*
X145631000Y-106596184D01*
X145631000Y-106763816D01*
X145598297Y-106928228D01*
X145534147Y-107083100D01*
X145441015Y-107222481D01*
X145322481Y-107341015D01*
X145183100Y-107434147D01*
X145028228Y-107498297D01*
X144863816Y-107531000D01*
X144696184Y-107531000D01*
X144531772Y-107498297D01*
X144376900Y-107434147D01*
X144237519Y-107341015D01*
X144118985Y-107222481D01*
X144025853Y-107083100D01*
X143961703Y-106928228D01*
X143929000Y-106763816D01*
X143929000Y-106596184D01*
X143961703Y-106431772D01*
X144025853Y-106276900D01*
X144118985Y-106137519D01*
X144237519Y-106018985D01*
X144376900Y-105925853D01*
X144531772Y-105861703D01*
X144696184Y-105829000D01*
X144863816Y-105829000D01*
X145028228Y-105861703D01*
X145028228Y-105861703D01*
G37*
G36*
X142488228Y-105861703D02*
X142643100Y-105925853D01*
X142782481Y-106018985D01*
X142901015Y-106137519D01*
X142994147Y-106276900D01*
X143058297Y-106431772D01*
X143091000Y-106596184D01*
X143091000Y-106763816D01*
X143058297Y-106928228D01*
X142994147Y-107083100D01*
X142901015Y-107222481D01*
X142782481Y-107341015D01*
X142643100Y-107434147D01*
X142488228Y-107498297D01*
X142323816Y-107531000D01*
X142156184Y-107531000D01*
X141991772Y-107498297D01*
X141836900Y-107434147D01*
X141697519Y-107341015D01*
X141578985Y-107222481D01*
X141485853Y-107083100D01*
X141421703Y-106928228D01*
X141389000Y-106763816D01*
X141389000Y-106596184D01*
X141421703Y-106431772D01*
X141485853Y-106276900D01*
X141578985Y-106137519D01*
X141697519Y-106018985D01*
X141836900Y-105925853D01*
X141991772Y-105861703D01*
X142156184Y-105829000D01*
X142323816Y-105829000D01*
X142488228Y-105861703D01*
X142488228Y-105861703D01*
G37*
G36*
X139948228Y-105861703D02*
X140103100Y-105925853D01*
X140242481Y-106018985D01*
X140361015Y-106137519D01*
X140454147Y-106276900D01*
X140518297Y-106431772D01*
X140551000Y-106596184D01*
X140551000Y-106763816D01*
X140518297Y-106928228D01*
X140454147Y-107083100D01*
X140361015Y-107222481D01*
X140242481Y-107341015D01*
X140103100Y-107434147D01*
X139948228Y-107498297D01*
X139783816Y-107531000D01*
X139616184Y-107531000D01*
X139451772Y-107498297D01*
X139296900Y-107434147D01*
X139157519Y-107341015D01*
X139038985Y-107222481D01*
X138945853Y-107083100D01*
X138881703Y-106928228D01*
X138849000Y-106763816D01*
X138849000Y-106596184D01*
X138881703Y-106431772D01*
X138945853Y-106276900D01*
X139038985Y-106137519D01*
X139157519Y-106018985D01*
X139296900Y-105925853D01*
X139451772Y-105861703D01*
X139616184Y-105829000D01*
X139783816Y-105829000D01*
X139948228Y-105861703D01*
X139948228Y-105861703D01*
G37*
G36*
X157728228Y-105861703D02*
X157883100Y-105925853D01*
X158022481Y-106018985D01*
X158141015Y-106137519D01*
X158234147Y-106276900D01*
X158298297Y-106431772D01*
X158331000Y-106596184D01*
X158331000Y-106763816D01*
X158298297Y-106928228D01*
X158234147Y-107083100D01*
X158141015Y-107222481D01*
X158022481Y-107341015D01*
X157883100Y-107434147D01*
X157728228Y-107498297D01*
X157563816Y-107531000D01*
X157396184Y-107531000D01*
X157231772Y-107498297D01*
X157076900Y-107434147D01*
X156937519Y-107341015D01*
X156818985Y-107222481D01*
X156725853Y-107083100D01*
X156661703Y-106928228D01*
X156629000Y-106763816D01*
X156629000Y-106596184D01*
X156661703Y-106431772D01*
X156725853Y-106276900D01*
X156818985Y-106137519D01*
X156937519Y-106018985D01*
X157076900Y-105925853D01*
X157231772Y-105861703D01*
X157396184Y-105829000D01*
X157563816Y-105829000D01*
X157728228Y-105861703D01*
X157728228Y-105861703D01*
G37*
G36*
X160268228Y-105861703D02*
X160423100Y-105925853D01*
X160562481Y-106018985D01*
X160681015Y-106137519D01*
X160774147Y-106276900D01*
X160838297Y-106431772D01*
X160871000Y-106596184D01*
X160871000Y-106763816D01*
X160838297Y-106928228D01*
X160774147Y-107083100D01*
X160681015Y-107222481D01*
X160562481Y-107341015D01*
X160423100Y-107434147D01*
X160268228Y-107498297D01*
X160103816Y-107531000D01*
X159936184Y-107531000D01*
X159771772Y-107498297D01*
X159616900Y-107434147D01*
X159477519Y-107341015D01*
X159358985Y-107222481D01*
X159265853Y-107083100D01*
X159201703Y-106928228D01*
X159169000Y-106763816D01*
X159169000Y-106596184D01*
X159201703Y-106431772D01*
X159265853Y-106276900D01*
X159358985Y-106137519D01*
X159477519Y-106018985D01*
X159616900Y-105925853D01*
X159771772Y-105861703D01*
X159936184Y-105829000D01*
X160103816Y-105829000D01*
X160268228Y-105861703D01*
X160268228Y-105861703D01*
G37*
G36*
X163411000Y-107531000D02*
X161709000Y-107531000D01*
X161709000Y-105829000D01*
X163411000Y-105829000D01*
X163411000Y-107531000D01*
X163411000Y-107531000D01*
G37*
G36*
X183888228Y-105091703D02*
X184043100Y-105155853D01*
X184182481Y-105248985D01*
X184301015Y-105367519D01*
X184394147Y-105506900D01*
X184458297Y-105661772D01*
X184491000Y-105826184D01*
X184491000Y-105993816D01*
X184458297Y-106158228D01*
X184394147Y-106313100D01*
X184301015Y-106452481D01*
X184182481Y-106571015D01*
X184043100Y-106664147D01*
X183888228Y-106728297D01*
X183723816Y-106761000D01*
X183556184Y-106761000D01*
X183391772Y-106728297D01*
X183236900Y-106664147D01*
X183097519Y-106571015D01*
X182978985Y-106452481D01*
X182885853Y-106313100D01*
X182821703Y-106158228D01*
X182789000Y-105993816D01*
X182789000Y-105826184D01*
X182821703Y-105661772D01*
X182885853Y-105506900D01*
X182978985Y-105367519D01*
X183097519Y-105248985D01*
X183236900Y-105155853D01*
X183391772Y-105091703D01*
X183556184Y-105059000D01*
X183723816Y-105059000D01*
X183888228Y-105091703D01*
X183888228Y-105091703D01*
G37*
G36*
X174951000Y-106396000D02*
X173349000Y-106396000D01*
X173349000Y-105694000D01*
X174951000Y-105694000D01*
X174951000Y-106396000D01*
X174951000Y-106396000D01*
G37*
G36*
X169551000Y-106396000D02*
X167949000Y-106396000D01*
X167949000Y-105694000D01*
X169551000Y-105694000D01*
X169551000Y-106396000D01*
X169551000Y-106396000D01*
G37*
G36*
X185668228Y-104076703D02*
X185823100Y-104140853D01*
X185962481Y-104233985D01*
X186081015Y-104352519D01*
X186174147Y-104491900D01*
X186238297Y-104646772D01*
X186271000Y-104811184D01*
X186271000Y-104978816D01*
X186238297Y-105143228D01*
X186174147Y-105298100D01*
X186081015Y-105437481D01*
X185962481Y-105556015D01*
X185823100Y-105649147D01*
X185668228Y-105713297D01*
X185503816Y-105746000D01*
X185336184Y-105746000D01*
X185171772Y-105713297D01*
X185016900Y-105649147D01*
X184877519Y-105556015D01*
X184758985Y-105437481D01*
X184665853Y-105298100D01*
X184601703Y-105143228D01*
X184569000Y-104978816D01*
X184569000Y-104811184D01*
X184601703Y-104646772D01*
X184665853Y-104491900D01*
X184758985Y-104352519D01*
X184877519Y-104233985D01*
X185016900Y-104140853D01*
X185171772Y-104076703D01*
X185336184Y-104044000D01*
X185503816Y-104044000D01*
X185668228Y-104076703D01*
X185668228Y-104076703D01*
G37*
G36*
X174951000Y-105126000D02*
X173349000Y-105126000D01*
X173349000Y-104424000D01*
X174951000Y-104424000D01*
X174951000Y-105126000D01*
X174951000Y-105126000D01*
G37*
G36*
X169551000Y-105126000D02*
X167949000Y-105126000D01*
X167949000Y-104424000D01*
X169551000Y-104424000D01*
X169551000Y-105126000D01*
X169551000Y-105126000D01*
G37*
G36*
X183888228Y-103061703D02*
X184043100Y-103125853D01*
X184182481Y-103218985D01*
X184301015Y-103337519D01*
X184394147Y-103476900D01*
X184458297Y-103631772D01*
X184491000Y-103796184D01*
X184491000Y-103963816D01*
X184458297Y-104128228D01*
X184394147Y-104283100D01*
X184301015Y-104422481D01*
X184182481Y-104541015D01*
X184043100Y-104634147D01*
X183888228Y-104698297D01*
X183723816Y-104731000D01*
X183556184Y-104731000D01*
X183391772Y-104698297D01*
X183236900Y-104634147D01*
X183097519Y-104541015D01*
X182978985Y-104422481D01*
X182885853Y-104283100D01*
X182821703Y-104128228D01*
X182789000Y-103963816D01*
X182789000Y-103796184D01*
X182821703Y-103631772D01*
X182885853Y-103476900D01*
X182978985Y-103337519D01*
X183097519Y-103218985D01*
X183236900Y-103125853D01*
X183391772Y-103061703D01*
X183556184Y-103029000D01*
X183723816Y-103029000D01*
X183888228Y-103061703D01*
X183888228Y-103061703D01*
G37*
G36*
X169551000Y-103856000D02*
X167949000Y-103856000D01*
X167949000Y-103154000D01*
X169551000Y-103154000D01*
X169551000Y-103856000D01*
X169551000Y-103856000D01*
G37*
G36*
X174951000Y-103856000D02*
X173349000Y-103856000D01*
X173349000Y-103154000D01*
X174951000Y-103154000D01*
X174951000Y-103856000D01*
X174951000Y-103856000D01*
G37*
G36*
X185668228Y-102046703D02*
X185823100Y-102110853D01*
X185962481Y-102203985D01*
X186081015Y-102322519D01*
X186174147Y-102461900D01*
X186238297Y-102616772D01*
X186271000Y-102781184D01*
X186271000Y-102948816D01*
X186238297Y-103113228D01*
X186174147Y-103268100D01*
X186081015Y-103407481D01*
X185962481Y-103526015D01*
X185823100Y-103619147D01*
X185668228Y-103683297D01*
X185503816Y-103716000D01*
X185336184Y-103716000D01*
X185171772Y-103683297D01*
X185016900Y-103619147D01*
X184877519Y-103526015D01*
X184758985Y-103407481D01*
X184665853Y-103268100D01*
X184601703Y-103113228D01*
X184569000Y-102948816D01*
X184569000Y-102781184D01*
X184601703Y-102616772D01*
X184665853Y-102461900D01*
X184758985Y-102322519D01*
X184877519Y-102203985D01*
X185016900Y-102110853D01*
X185171772Y-102046703D01*
X185336184Y-102014000D01*
X185503816Y-102014000D01*
X185668228Y-102046703D01*
X185668228Y-102046703D01*
G37*
G36*
X144218677Y-101488465D02*
X144256364Y-101499898D01*
X144291103Y-101518466D01*
X144321548Y-101543452D01*
X144346534Y-101573897D01*
X144365102Y-101608636D01*
X144376535Y-101646323D01*
X144381000Y-101691661D01*
X144381000Y-102778339D01*
X144376535Y-102823677D01*
X144365102Y-102861364D01*
X144346534Y-102896103D01*
X144321548Y-102926548D01*
X144291103Y-102951534D01*
X144256364Y-102970102D01*
X144218677Y-102981535D01*
X144173339Y-102986000D01*
X143336661Y-102986000D01*
X143291323Y-102981535D01*
X143253636Y-102970102D01*
X143218897Y-102951534D01*
X143188452Y-102926548D01*
X143163466Y-102896103D01*
X143144898Y-102861364D01*
X143133465Y-102823677D01*
X143129000Y-102778339D01*
X143129000Y-101691661D01*
X143133465Y-101646323D01*
X143144898Y-101608636D01*
X143163466Y-101573897D01*
X143188452Y-101543452D01*
X143218897Y-101518466D01*
X143253636Y-101499898D01*
X143291323Y-101488465D01*
X143336661Y-101484000D01*
X144173339Y-101484000D01*
X144218677Y-101488465D01*
X144218677Y-101488465D01*
G37*
G36*
X146268677Y-101488465D02*
X146306364Y-101499898D01*
X146341103Y-101518466D01*
X146371548Y-101543452D01*
X146396534Y-101573897D01*
X146415102Y-101608636D01*
X146426535Y-101646323D01*
X146431000Y-101691661D01*
X146431000Y-102778339D01*
X146426535Y-102823677D01*
X146415102Y-102861364D01*
X146396534Y-102896103D01*
X146371548Y-102926548D01*
X146341103Y-102951534D01*
X146306364Y-102970102D01*
X146268677Y-102981535D01*
X146223339Y-102986000D01*
X145386661Y-102986000D01*
X145341323Y-102981535D01*
X145303636Y-102970102D01*
X145268897Y-102951534D01*
X145238452Y-102926548D01*
X145213466Y-102896103D01*
X145194898Y-102861364D01*
X145183465Y-102823677D01*
X145179000Y-102778339D01*
X145179000Y-101691661D01*
X145183465Y-101646323D01*
X145194898Y-101608636D01*
X145213466Y-101573897D01*
X145238452Y-101543452D01*
X145268897Y-101518466D01*
X145303636Y-101499898D01*
X145341323Y-101488465D01*
X145386661Y-101484000D01*
X146223339Y-101484000D01*
X146268677Y-101488465D01*
X146268677Y-101488465D01*
G37*
G36*
X154468228Y-101241703D02*
X154623100Y-101305853D01*
X154762481Y-101398985D01*
X154881015Y-101517519D01*
X154974147Y-101656900D01*
X155038297Y-101811772D01*
X155071000Y-101976184D01*
X155071000Y-102143816D01*
X155038297Y-102308228D01*
X154974147Y-102463100D01*
X154881015Y-102602481D01*
X154762481Y-102721015D01*
X154623100Y-102814147D01*
X154468228Y-102878297D01*
X154303816Y-102911000D01*
X154136184Y-102911000D01*
X153971772Y-102878297D01*
X153816900Y-102814147D01*
X153677519Y-102721015D01*
X153558985Y-102602481D01*
X153465853Y-102463100D01*
X153401703Y-102308228D01*
X153369000Y-102143816D01*
X153369000Y-101976184D01*
X153401703Y-101811772D01*
X153465853Y-101656900D01*
X153558985Y-101517519D01*
X153677519Y-101398985D01*
X153816900Y-101305853D01*
X153971772Y-101241703D01*
X154136184Y-101209000D01*
X154303816Y-101209000D01*
X154468228Y-101241703D01*
X154468228Y-101241703D01*
G37*
G36*
X157611000Y-102911000D02*
X155909000Y-102911000D01*
X155909000Y-101209000D01*
X157611000Y-101209000D01*
X157611000Y-102911000D01*
X157611000Y-102911000D01*
G37*
G36*
X183888228Y-101031703D02*
X184043100Y-101095853D01*
X184182481Y-101188985D01*
X184301015Y-101307519D01*
X184394147Y-101446900D01*
X184458297Y-101601772D01*
X184491000Y-101766184D01*
X184491000Y-101933816D01*
X184458297Y-102098228D01*
X184394147Y-102253100D01*
X184301015Y-102392481D01*
X184182481Y-102511015D01*
X184043100Y-102604147D01*
X183888228Y-102668297D01*
X183723816Y-102701000D01*
X183556184Y-102701000D01*
X183391772Y-102668297D01*
X183236900Y-102604147D01*
X183097519Y-102511015D01*
X182978985Y-102392481D01*
X182885853Y-102253100D01*
X182821703Y-102098228D01*
X182789000Y-101933816D01*
X182789000Y-101766184D01*
X182821703Y-101601772D01*
X182885853Y-101446900D01*
X182978985Y-101307519D01*
X183097519Y-101188985D01*
X183236900Y-101095853D01*
X183391772Y-101031703D01*
X183556184Y-100999000D01*
X183723816Y-100999000D01*
X183888228Y-101031703D01*
X183888228Y-101031703D01*
G37*
G36*
X174951000Y-102586000D02*
X173349000Y-102586000D01*
X173349000Y-101884000D01*
X174951000Y-101884000D01*
X174951000Y-102586000D01*
X174951000Y-102586000D01*
G37*
G36*
X169551000Y-102586000D02*
X167949000Y-102586000D01*
X167949000Y-101884000D01*
X169551000Y-101884000D01*
X169551000Y-102586000D01*
X169551000Y-102586000D01*
G37*
G36*
X179068228Y-100021703D02*
X179223100Y-100085853D01*
X179362481Y-100178985D01*
X179481015Y-100297519D01*
X179574147Y-100436900D01*
X179638297Y-100591772D01*
X179671000Y-100756184D01*
X179671000Y-100923816D01*
X179638297Y-101088228D01*
X179574147Y-101243100D01*
X179481015Y-101382481D01*
X179362481Y-101501015D01*
X179223100Y-101594147D01*
X179068228Y-101658297D01*
X178903816Y-101691000D01*
X178736184Y-101691000D01*
X178571772Y-101658297D01*
X178416900Y-101594147D01*
X178277519Y-101501015D01*
X178158985Y-101382481D01*
X178065853Y-101243100D01*
X178001703Y-101088228D01*
X177969000Y-100923816D01*
X177969000Y-100756184D01*
X178001703Y-100591772D01*
X178065853Y-100436900D01*
X178158985Y-100297519D01*
X178277519Y-100178985D01*
X178416900Y-100085853D01*
X178571772Y-100021703D01*
X178736184Y-99989000D01*
X178903816Y-99989000D01*
X179068228Y-100021703D01*
X179068228Y-100021703D01*
G37*
G36*
X174951000Y-101316000D02*
X173349000Y-101316000D01*
X173349000Y-100614000D01*
X174951000Y-100614000D01*
X174951000Y-101316000D01*
X174951000Y-101316000D01*
G37*
G36*
X169551000Y-101316000D02*
X167949000Y-101316000D01*
X167949000Y-100614000D01*
X169551000Y-100614000D01*
X169551000Y-101316000D01*
X169551000Y-101316000D01*
G37*
G36*
X188485331Y-97328211D02*
X188813092Y-97463974D01*
X189108073Y-97661074D01*
X189358926Y-97911927D01*
X189556026Y-98206908D01*
X189691789Y-98534669D01*
X189761000Y-98882616D01*
X189761000Y-99237384D01*
X189691789Y-99585331D01*
X189556026Y-99913092D01*
X189358926Y-100208073D01*
X189108073Y-100458926D01*
X188813092Y-100656026D01*
X188485331Y-100791789D01*
X188137384Y-100861000D01*
X187782616Y-100861000D01*
X187434669Y-100791789D01*
X187106908Y-100656026D01*
X186811927Y-100458926D01*
X186561074Y-100208073D01*
X186363974Y-99913092D01*
X186228211Y-99585331D01*
X186159000Y-99237384D01*
X186159000Y-98882616D01*
X186228211Y-98534669D01*
X186363974Y-98206908D01*
X186561074Y-97911927D01*
X186811927Y-97661074D01*
X187106908Y-97463974D01*
X187434669Y-97328211D01*
X187782616Y-97259000D01*
X188137384Y-97259000D01*
X188485331Y-97328211D01*
X188485331Y-97328211D01*
G37*
G36*
X157008228Y-98701703D02*
X157163100Y-98765853D01*
X157302481Y-98858985D01*
X157421015Y-98977519D01*
X157514147Y-99116900D01*
X157578297Y-99271772D01*
X157611000Y-99436184D01*
X157611000Y-99603816D01*
X157578297Y-99768228D01*
X157514147Y-99923100D01*
X157421015Y-100062481D01*
X157302481Y-100181015D01*
X157163100Y-100274147D01*
X157008228Y-100338297D01*
X156843816Y-100371000D01*
X156676184Y-100371000D01*
X156511772Y-100338297D01*
X156356900Y-100274147D01*
X156217519Y-100181015D01*
X156098985Y-100062481D01*
X156005853Y-99923100D01*
X155941703Y-99768228D01*
X155909000Y-99603816D01*
X155909000Y-99436184D01*
X155941703Y-99271772D01*
X156005853Y-99116900D01*
X156098985Y-98977519D01*
X156217519Y-98858985D01*
X156356900Y-98765853D01*
X156511772Y-98701703D01*
X156676184Y-98669000D01*
X156843816Y-98669000D01*
X157008228Y-98701703D01*
X157008228Y-98701703D01*
G37*
G36*
X154468228Y-98701703D02*
X154623100Y-98765853D01*
X154762481Y-98858985D01*
X154881015Y-98977519D01*
X154974147Y-99116900D01*
X155038297Y-99271772D01*
X155071000Y-99436184D01*
X155071000Y-99603816D01*
X155038297Y-99768228D01*
X154974147Y-99923100D01*
X154881015Y-100062481D01*
X154762481Y-100181015D01*
X154623100Y-100274147D01*
X154468228Y-100338297D01*
X154303816Y-100371000D01*
X154136184Y-100371000D01*
X153971772Y-100338297D01*
X153816900Y-100274147D01*
X153677519Y-100181015D01*
X153558985Y-100062481D01*
X153465853Y-99923100D01*
X153401703Y-99768228D01*
X153369000Y-99603816D01*
X153369000Y-99436184D01*
X153401703Y-99271772D01*
X153465853Y-99116900D01*
X153558985Y-98977519D01*
X153677519Y-98858985D01*
X153816900Y-98765853D01*
X153971772Y-98701703D01*
X154136184Y-98669000D01*
X154303816Y-98669000D01*
X154468228Y-98701703D01*
X154468228Y-98701703D01*
G37*
G36*
X168348677Y-98313465D02*
X168386364Y-98324898D01*
X168421103Y-98343466D01*
X168451548Y-98368452D01*
X168476534Y-98398897D01*
X168495102Y-98433636D01*
X168506535Y-98471323D01*
X168511000Y-98516661D01*
X168511000Y-99603339D01*
X168506535Y-99648677D01*
X168495102Y-99686364D01*
X168476534Y-99721103D01*
X168451548Y-99751548D01*
X168421103Y-99776534D01*
X168386364Y-99795102D01*
X168348677Y-99806535D01*
X168303339Y-99811000D01*
X167466661Y-99811000D01*
X167421323Y-99806535D01*
X167383636Y-99795102D01*
X167348897Y-99776534D01*
X167318452Y-99751548D01*
X167293466Y-99721103D01*
X167274898Y-99686364D01*
X167263465Y-99648677D01*
X167259000Y-99603339D01*
X167259000Y-98516661D01*
X167263465Y-98471323D01*
X167274898Y-98433636D01*
X167293466Y-98398897D01*
X167318452Y-98368452D01*
X167348897Y-98343466D01*
X167383636Y-98324898D01*
X167421323Y-98313465D01*
X167466661Y-98309000D01*
X168303339Y-98309000D01*
X168348677Y-98313465D01*
X168348677Y-98313465D01*
G37*
G36*
X175478677Y-98313465D02*
X175516364Y-98324898D01*
X175551103Y-98343466D01*
X175581548Y-98368452D01*
X175606534Y-98398897D01*
X175625102Y-98433636D01*
X175636535Y-98471323D01*
X175641000Y-98516661D01*
X175641000Y-99603339D01*
X175636535Y-99648677D01*
X175625102Y-99686364D01*
X175606534Y-99721103D01*
X175581548Y-99751548D01*
X175551103Y-99776534D01*
X175516364Y-99795102D01*
X175478677Y-99806535D01*
X175433339Y-99811000D01*
X174596661Y-99811000D01*
X174551323Y-99806535D01*
X174513636Y-99795102D01*
X174478897Y-99776534D01*
X174448452Y-99751548D01*
X174423466Y-99721103D01*
X174404898Y-99686364D01*
X174393465Y-99648677D01*
X174389000Y-99603339D01*
X174389000Y-98516661D01*
X174393465Y-98471323D01*
X174404898Y-98433636D01*
X174423466Y-98398897D01*
X174448452Y-98368452D01*
X174478897Y-98343466D01*
X174513636Y-98324898D01*
X174551323Y-98313465D01*
X174596661Y-98309000D01*
X175433339Y-98309000D01*
X175478677Y-98313465D01*
X175478677Y-98313465D01*
G37*
G36*
X170398677Y-98313465D02*
X170436364Y-98324898D01*
X170471103Y-98343466D01*
X170501548Y-98368452D01*
X170526534Y-98398897D01*
X170545102Y-98433636D01*
X170556535Y-98471323D01*
X170561000Y-98516661D01*
X170561000Y-99603339D01*
X170556535Y-99648677D01*
X170545102Y-99686364D01*
X170526534Y-99721103D01*
X170501548Y-99751548D01*
X170471103Y-99776534D01*
X170436364Y-99795102D01*
X170398677Y-99806535D01*
X170353339Y-99811000D01*
X169516661Y-99811000D01*
X169471323Y-99806535D01*
X169433636Y-99795102D01*
X169398897Y-99776534D01*
X169368452Y-99751548D01*
X169343466Y-99721103D01*
X169324898Y-99686364D01*
X169313465Y-99648677D01*
X169309000Y-99603339D01*
X169309000Y-98516661D01*
X169313465Y-98471323D01*
X169324898Y-98433636D01*
X169343466Y-98398897D01*
X169368452Y-98368452D01*
X169398897Y-98343466D01*
X169433636Y-98324898D01*
X169471323Y-98313465D01*
X169516661Y-98309000D01*
X170353339Y-98309000D01*
X170398677Y-98313465D01*
X170398677Y-98313465D01*
G37*
G36*
X173428677Y-98313465D02*
X173466364Y-98324898D01*
X173501103Y-98343466D01*
X173531548Y-98368452D01*
X173556534Y-98398897D01*
X173575102Y-98433636D01*
X173586535Y-98471323D01*
X173591000Y-98516661D01*
X173591000Y-99603339D01*
X173586535Y-99648677D01*
X173575102Y-99686364D01*
X173556534Y-99721103D01*
X173531548Y-99751548D01*
X173501103Y-99776534D01*
X173466364Y-99795102D01*
X173428677Y-99806535D01*
X173383339Y-99811000D01*
X172546661Y-99811000D01*
X172501323Y-99806535D01*
X172463636Y-99795102D01*
X172428897Y-99776534D01*
X172398452Y-99751548D01*
X172373466Y-99721103D01*
X172354898Y-99686364D01*
X172343465Y-99648677D01*
X172339000Y-99603339D01*
X172339000Y-98516661D01*
X172343465Y-98471323D01*
X172354898Y-98433636D01*
X172373466Y-98398897D01*
X172398452Y-98368452D01*
X172428897Y-98343466D01*
X172463636Y-98324898D01*
X172501323Y-98313465D01*
X172546661Y-98309000D01*
X173383339Y-98309000D01*
X173428677Y-98313465D01*
X173428677Y-98313465D01*
G37*
G36*
X179068228Y-97731703D02*
X179223100Y-97795853D01*
X179362481Y-97888985D01*
X179481015Y-98007519D01*
X179574147Y-98146900D01*
X179638297Y-98301772D01*
X179671000Y-98466184D01*
X179671000Y-98633816D01*
X179638297Y-98798228D01*
X179574147Y-98953100D01*
X179481015Y-99092481D01*
X179362481Y-99211015D01*
X179223100Y-99304147D01*
X179068228Y-99368297D01*
X178903816Y-99401000D01*
X178736184Y-99401000D01*
X178571772Y-99368297D01*
X178416900Y-99304147D01*
X178277519Y-99211015D01*
X178158985Y-99092481D01*
X178065853Y-98953100D01*
X178001703Y-98798228D01*
X177969000Y-98633816D01*
X177969000Y-98466184D01*
X178001703Y-98301772D01*
X178065853Y-98146900D01*
X178158985Y-98007519D01*
X178277519Y-97888985D01*
X178416900Y-97795853D01*
X178571772Y-97731703D01*
X178736184Y-97699000D01*
X178903816Y-97699000D01*
X179068228Y-97731703D01*
X179068228Y-97731703D01*
G37*
G36*
X183098677Y-95773465D02*
X183136364Y-95784898D01*
X183171103Y-95803466D01*
X183201548Y-95828452D01*
X183226534Y-95858897D01*
X183245102Y-95893636D01*
X183256535Y-95931323D01*
X183261000Y-95976661D01*
X183261000Y-96515383D01*
X183263402Y-96539769D01*
X183270515Y-96563218D01*
X183282066Y-96584829D01*
X183297612Y-96603771D01*
X183316554Y-96619317D01*
X183338165Y-96630868D01*
X183361614Y-96637981D01*
X183386000Y-96640383D01*
X183410386Y-96637981D01*
X183433835Y-96630868D01*
X183455446Y-96619317D01*
X183474388Y-96603771D01*
X183489931Y-96584833D01*
X183558285Y-96482534D01*
X183558287Y-96482531D01*
X183732531Y-96308287D01*
X183768879Y-96284000D01*
X183937429Y-96171378D01*
X184165097Y-96077075D01*
X184346365Y-96041019D01*
X184406786Y-96029000D01*
X184653214Y-96029000D01*
X184713636Y-96041019D01*
X184894903Y-96077075D01*
X185122571Y-96171378D01*
X185291121Y-96284000D01*
X185327469Y-96308287D01*
X185501713Y-96482531D01*
X185501715Y-96482534D01*
X185638622Y-96687429D01*
X185732925Y-96915097D01*
X185781000Y-97156787D01*
X185781000Y-97403213D01*
X185732925Y-97644903D01*
X185638622Y-97872571D01*
X185548452Y-98007519D01*
X185501713Y-98077469D01*
X185327469Y-98251713D01*
X185327466Y-98251715D01*
X185122571Y-98388622D01*
X184894903Y-98482925D01*
X184725300Y-98516661D01*
X184653214Y-98531000D01*
X184406786Y-98531000D01*
X184334700Y-98516661D01*
X184165097Y-98482925D01*
X183937429Y-98388622D01*
X183732534Y-98251715D01*
X183732531Y-98251713D01*
X183558287Y-98077469D01*
X183511548Y-98007519D01*
X183421378Y-97872571D01*
X183327075Y-97644903D01*
X183279000Y-97403213D01*
X183279000Y-97380377D01*
X183276598Y-97355991D01*
X183269485Y-97332542D01*
X183257934Y-97310931D01*
X183242388Y-97291989D01*
X183223446Y-97276443D01*
X183201835Y-97264892D01*
X183178386Y-97257779D01*
X183154000Y-97255377D01*
X183117715Y-97260759D01*
X183098674Y-97266535D01*
X183053339Y-97271000D01*
X182216661Y-97271000D01*
X182171323Y-97266535D01*
X182133636Y-97255102D01*
X182098897Y-97236534D01*
X182068452Y-97211548D01*
X182043466Y-97181103D01*
X182024898Y-97146364D01*
X182013465Y-97108677D01*
X182009000Y-97063339D01*
X182009000Y-95976661D01*
X182013465Y-95931323D01*
X182024898Y-95893636D01*
X182043466Y-95858897D01*
X182068452Y-95828452D01*
X182098897Y-95803466D01*
X182133636Y-95784898D01*
X182171323Y-95773465D01*
X182216661Y-95769000D01*
X183053339Y-95769000D01*
X183098677Y-95773465D01*
X183098677Y-95773465D01*
G37*
G36*
X146106000Y-98066000D02*
X143454000Y-98066000D01*
X143454000Y-96404000D01*
X146106000Y-96404000D01*
X146106000Y-98066000D01*
X146106000Y-98066000D01*
G37*
G36*
X154468228Y-96161703D02*
X154623100Y-96225853D01*
X154762481Y-96318985D01*
X154881015Y-96437519D01*
X154974147Y-96576900D01*
X155038297Y-96731772D01*
X155071000Y-96896184D01*
X155071000Y-97063816D01*
X155038297Y-97228228D01*
X154974147Y-97383100D01*
X154881015Y-97522481D01*
X154762481Y-97641015D01*
X154623100Y-97734147D01*
X154468228Y-97798297D01*
X154303816Y-97831000D01*
X154136184Y-97831000D01*
X153971772Y-97798297D01*
X153816900Y-97734147D01*
X153677519Y-97641015D01*
X153558985Y-97522481D01*
X153465853Y-97383100D01*
X153401703Y-97228228D01*
X153369000Y-97063816D01*
X153369000Y-96896184D01*
X153401703Y-96731772D01*
X153465853Y-96576900D01*
X153558985Y-96437519D01*
X153677519Y-96318985D01*
X153816900Y-96225853D01*
X153971772Y-96161703D01*
X154136184Y-96129000D01*
X154303816Y-96129000D01*
X154468228Y-96161703D01*
X154468228Y-96161703D01*
G37*
G36*
X157008228Y-96161703D02*
X157163100Y-96225853D01*
X157302481Y-96318985D01*
X157421015Y-96437519D01*
X157514147Y-96576900D01*
X157578297Y-96731772D01*
X157611000Y-96896184D01*
X157611000Y-97063816D01*
X157578297Y-97228228D01*
X157514147Y-97383100D01*
X157421015Y-97522481D01*
X157302481Y-97641015D01*
X157163100Y-97734147D01*
X157008228Y-97798297D01*
X156843816Y-97831000D01*
X156676184Y-97831000D01*
X156511772Y-97798297D01*
X156356900Y-97734147D01*
X156217519Y-97641015D01*
X156098985Y-97522481D01*
X156005853Y-97383100D01*
X155941703Y-97228228D01*
X155909000Y-97063816D01*
X155909000Y-96896184D01*
X155941703Y-96731772D01*
X156005853Y-96576900D01*
X156098985Y-96437519D01*
X156217519Y-96318985D01*
X156356900Y-96225853D01*
X156511772Y-96161703D01*
X156676184Y-96129000D01*
X156843816Y-96129000D01*
X157008228Y-96161703D01*
X157008228Y-96161703D01*
G37*
G36*
X140288677Y-96288465D02*
X140326364Y-96299898D01*
X140361103Y-96318466D01*
X140391548Y-96343452D01*
X140416534Y-96373897D01*
X140435102Y-96408636D01*
X140446535Y-96446323D01*
X140451000Y-96491661D01*
X140451000Y-97328339D01*
X140446535Y-97373677D01*
X140435102Y-97411364D01*
X140416534Y-97446103D01*
X140391548Y-97476548D01*
X140361103Y-97501534D01*
X140326364Y-97520102D01*
X140288677Y-97531535D01*
X140243339Y-97536000D01*
X139156661Y-97536000D01*
X139111323Y-97531535D01*
X139073636Y-97520102D01*
X139038897Y-97501534D01*
X139008452Y-97476548D01*
X138983466Y-97446103D01*
X138964898Y-97411364D01*
X138953465Y-97373677D01*
X138949000Y-97328339D01*
X138949000Y-96491661D01*
X138953465Y-96446323D01*
X138964898Y-96408636D01*
X138983466Y-96373897D01*
X139008452Y-96343452D01*
X139038897Y-96318466D01*
X139073636Y-96299898D01*
X139111323Y-96288465D01*
X139156661Y-96284000D01*
X140243339Y-96284000D01*
X140288677Y-96288465D01*
X140288677Y-96288465D01*
G37*
G36*
X181048677Y-95773465D02*
X181086364Y-95784898D01*
X181121103Y-95803466D01*
X181151548Y-95828452D01*
X181176534Y-95858897D01*
X181195102Y-95893636D01*
X181206535Y-95931323D01*
X181211000Y-95976661D01*
X181211000Y-97063339D01*
X181206535Y-97108677D01*
X181195102Y-97146364D01*
X181176534Y-97181103D01*
X181151548Y-97211548D01*
X181121103Y-97236534D01*
X181086364Y-97255102D01*
X181048677Y-97266535D01*
X181003339Y-97271000D01*
X180166661Y-97271000D01*
X180121323Y-97266535D01*
X180083636Y-97255102D01*
X180048897Y-97236534D01*
X180018452Y-97211548D01*
X179993466Y-97181103D01*
X179974898Y-97146364D01*
X179963465Y-97108677D01*
X179959000Y-97063339D01*
X179959000Y-95976661D01*
X179963465Y-95931323D01*
X179974898Y-95893636D01*
X179993466Y-95858897D01*
X180018452Y-95828452D01*
X180048897Y-95803466D01*
X180083636Y-95784898D01*
X180121323Y-95773465D01*
X180166661Y-95769000D01*
X181003339Y-95769000D01*
X181048677Y-95773465D01*
X181048677Y-95773465D01*
G37*
G36*
X140288677Y-94238465D02*
X140326364Y-94249898D01*
X140361103Y-94268466D01*
X140391548Y-94293452D01*
X140416534Y-94323897D01*
X140435102Y-94358636D01*
X140446535Y-94396323D01*
X140451000Y-94441661D01*
X140451000Y-95278339D01*
X140446535Y-95323677D01*
X140435102Y-95361364D01*
X140416534Y-95396103D01*
X140391548Y-95426548D01*
X140361103Y-95451534D01*
X140326364Y-95470102D01*
X140288677Y-95481535D01*
X140243339Y-95486000D01*
X139156661Y-95486000D01*
X139111323Y-95481535D01*
X139073636Y-95470102D01*
X139038897Y-95451534D01*
X139008452Y-95426548D01*
X138983466Y-95396103D01*
X138964898Y-95361364D01*
X138953465Y-95323677D01*
X138949000Y-95278339D01*
X138949000Y-94441661D01*
X138953465Y-94396323D01*
X138964898Y-94358636D01*
X138983466Y-94323897D01*
X139008452Y-94293452D01*
X139038897Y-94268466D01*
X139073636Y-94249898D01*
X139111323Y-94238465D01*
X139156661Y-94234000D01*
X140243339Y-94234000D01*
X140288677Y-94238465D01*
X140288677Y-94238465D01*
G37*
G36*
X146106000Y-95366000D02*
X143454000Y-95366000D01*
X143454000Y-93704000D01*
X146106000Y-93704000D01*
X146106000Y-95366000D01*
X146106000Y-95366000D01*
G37*
G36*
X154468228Y-93621703D02*
X154623100Y-93685853D01*
X154762481Y-93778985D01*
X154881015Y-93897519D01*
X154974147Y-94036900D01*
X155038297Y-94191772D01*
X155071000Y-94356184D01*
X155071000Y-94523816D01*
X155038297Y-94688228D01*
X154974147Y-94843100D01*
X154881015Y-94982481D01*
X154762481Y-95101015D01*
X154623100Y-95194147D01*
X154468228Y-95258297D01*
X154303816Y-95291000D01*
X154136184Y-95291000D01*
X153971772Y-95258297D01*
X153816900Y-95194147D01*
X153677519Y-95101015D01*
X153558985Y-94982481D01*
X153465853Y-94843100D01*
X153401703Y-94688228D01*
X153369000Y-94523816D01*
X153369000Y-94356184D01*
X153401703Y-94191772D01*
X153465853Y-94036900D01*
X153558985Y-93897519D01*
X153677519Y-93778985D01*
X153816900Y-93685853D01*
X153971772Y-93621703D01*
X154136184Y-93589000D01*
X154303816Y-93589000D01*
X154468228Y-93621703D01*
X154468228Y-93621703D01*
G37*
G36*
X157008228Y-93621703D02*
X157163100Y-93685853D01*
X157302481Y-93778985D01*
X157421015Y-93897519D01*
X157514147Y-94036900D01*
X157578297Y-94191772D01*
X157611000Y-94356184D01*
X157611000Y-94523816D01*
X157578297Y-94688228D01*
X157514147Y-94843100D01*
X157421015Y-94982481D01*
X157302481Y-95101015D01*
X157163100Y-95194147D01*
X157008228Y-95258297D01*
X156843816Y-95291000D01*
X156676184Y-95291000D01*
X156511772Y-95258297D01*
X156356900Y-95194147D01*
X156217519Y-95101015D01*
X156098985Y-94982481D01*
X156005853Y-94843100D01*
X155941703Y-94688228D01*
X155909000Y-94523816D01*
X155909000Y-94356184D01*
X155941703Y-94191772D01*
X156005853Y-94036900D01*
X156098985Y-93897519D01*
X156217519Y-93778985D01*
X156356900Y-93685853D01*
X156511772Y-93621703D01*
X156676184Y-93589000D01*
X156843816Y-93589000D01*
X157008228Y-93621703D01*
X157008228Y-93621703D01*
G37*
G36*
X184713635Y-91981019D02*
X184894903Y-92017075D01*
X185122571Y-92111378D01*
X185326542Y-92247668D01*
X185327469Y-92248287D01*
X185501713Y-92422531D01*
X185501715Y-92422534D01*
X185638622Y-92627429D01*
X185732925Y-92855097D01*
X185781000Y-93096787D01*
X185781000Y-93343213D01*
X185732925Y-93584903D01*
X185638622Y-93812571D01*
X185555627Y-93936781D01*
X185501713Y-94017469D01*
X185327469Y-94191713D01*
X185327466Y-94191715D01*
X185122571Y-94328622D01*
X184894903Y-94422925D01*
X184743328Y-94453075D01*
X184653214Y-94471000D01*
X184406786Y-94471000D01*
X184316672Y-94453075D01*
X184165097Y-94422925D01*
X183937429Y-94328622D01*
X183732534Y-94191715D01*
X183732531Y-94191713D01*
X183558287Y-94017469D01*
X183504373Y-93936781D01*
X183489931Y-93915167D01*
X183474389Y-93896229D01*
X183455447Y-93880684D01*
X183433836Y-93869132D01*
X183410387Y-93862019D01*
X183386000Y-93859617D01*
X183361614Y-93862019D01*
X183338165Y-93869132D01*
X183316554Y-93880683D01*
X183297612Y-93896228D01*
X183282067Y-93915170D01*
X183270515Y-93936781D01*
X183263402Y-93960230D01*
X183261000Y-93984617D01*
X183261000Y-94523339D01*
X183256535Y-94568677D01*
X183245102Y-94606364D01*
X183226534Y-94641103D01*
X183201548Y-94671548D01*
X183171103Y-94696534D01*
X183136364Y-94715102D01*
X183098677Y-94726535D01*
X183053339Y-94731000D01*
X182216661Y-94731000D01*
X182171323Y-94726535D01*
X182133636Y-94715102D01*
X182098897Y-94696534D01*
X182068452Y-94671548D01*
X182043466Y-94641103D01*
X182024898Y-94606364D01*
X182013465Y-94568677D01*
X182009000Y-94523339D01*
X182009000Y-93436661D01*
X182013465Y-93391323D01*
X182024898Y-93353636D01*
X182043466Y-93318897D01*
X182068452Y-93288452D01*
X182098897Y-93263466D01*
X182133636Y-93244898D01*
X182171323Y-93233465D01*
X182216661Y-93229000D01*
X183053339Y-93229000D01*
X183098674Y-93233465D01*
X183117715Y-93239241D01*
X183141748Y-93244021D01*
X183166253Y-93244021D01*
X183190286Y-93239240D01*
X183212925Y-93229863D01*
X183233300Y-93216249D01*
X183250627Y-93198922D01*
X183264240Y-93178547D01*
X183273618Y-93155908D01*
X183279000Y-93119623D01*
X183279000Y-93096786D01*
X183291086Y-93036025D01*
X183327075Y-92855097D01*
X183421378Y-92627429D01*
X183558285Y-92422534D01*
X183558287Y-92422531D01*
X183732531Y-92248287D01*
X183733458Y-92247668D01*
X183937429Y-92111378D01*
X184165097Y-92017075D01*
X184346364Y-91981019D01*
X184406786Y-91969000D01*
X184653214Y-91969000D01*
X184713635Y-91981019D01*
X184713635Y-91981019D01*
G37*
G36*
X181048677Y-93233465D02*
X181086364Y-93244898D01*
X181121103Y-93263466D01*
X181151548Y-93288452D01*
X181176534Y-93318897D01*
X181195102Y-93353636D01*
X181206535Y-93391323D01*
X181211000Y-93436661D01*
X181211000Y-94523339D01*
X181206535Y-94568677D01*
X181195102Y-94606364D01*
X181176534Y-94641103D01*
X181151548Y-94671548D01*
X181121103Y-94696534D01*
X181086364Y-94715102D01*
X181048677Y-94726535D01*
X181003339Y-94731000D01*
X180166661Y-94731000D01*
X180121323Y-94726535D01*
X180083636Y-94715102D01*
X180048897Y-94696534D01*
X180018452Y-94671548D01*
X179993466Y-94641103D01*
X179974898Y-94606364D01*
X179963465Y-94568677D01*
X179959000Y-94523339D01*
X179959000Y-93436661D01*
X179963465Y-93391323D01*
X179974898Y-93353636D01*
X179993466Y-93318897D01*
X180018452Y-93288452D01*
X180048897Y-93263466D01*
X180083636Y-93244898D01*
X180121323Y-93233465D01*
X180166661Y-93229000D01*
X181003339Y-93229000D01*
X181048677Y-93233465D01*
X181048677Y-93233465D01*
G37*
G36*
X188485331Y-89708211D02*
X188813092Y-89843974D01*
X189108073Y-90041074D01*
X189358926Y-90291927D01*
X189556026Y-90586908D01*
X189691789Y-90914669D01*
X189761000Y-91262616D01*
X189761000Y-91617384D01*
X189691789Y-91965331D01*
X189556026Y-92293092D01*
X189358926Y-92588073D01*
X189108073Y-92838926D01*
X188813092Y-93036026D01*
X188485331Y-93171789D01*
X188137384Y-93241000D01*
X187782616Y-93241000D01*
X187434669Y-93171789D01*
X187106908Y-93036026D01*
X186811927Y-92838926D01*
X186561074Y-92588073D01*
X186363974Y-92293092D01*
X186228211Y-91965331D01*
X186159000Y-91617384D01*
X186159000Y-91262616D01*
X186228211Y-90914669D01*
X186363974Y-90586908D01*
X186561074Y-90291927D01*
X186811927Y-90041074D01*
X187106908Y-89843974D01*
X187434669Y-89708211D01*
X187782616Y-89639000D01*
X188137384Y-89639000D01*
X188485331Y-89708211D01*
X188485331Y-89708211D01*
G37*
G36*
X179068228Y-91131703D02*
X179223100Y-91195853D01*
X179362481Y-91288985D01*
X179481015Y-91407519D01*
X179574147Y-91546900D01*
X179638297Y-91701772D01*
X179671000Y-91866184D01*
X179671000Y-92033816D01*
X179638297Y-92198228D01*
X179574147Y-92353100D01*
X179481015Y-92492481D01*
X179362481Y-92611015D01*
X179223100Y-92704147D01*
X179068228Y-92768297D01*
X178903816Y-92801000D01*
X178736184Y-92801000D01*
X178571772Y-92768297D01*
X178416900Y-92704147D01*
X178277519Y-92611015D01*
X178158985Y-92492481D01*
X178065853Y-92353100D01*
X178001703Y-92198228D01*
X177969000Y-92033816D01*
X177969000Y-91866184D01*
X178001703Y-91701772D01*
X178065853Y-91546900D01*
X178158985Y-91407519D01*
X178277519Y-91288985D01*
X178416900Y-91195853D01*
X178571772Y-91131703D01*
X178736184Y-91099000D01*
X178903816Y-91099000D01*
X179068228Y-91131703D01*
X179068228Y-91131703D01*
G37*
G36*
X154468228Y-91081703D02*
X154623100Y-91145853D01*
X154762481Y-91238985D01*
X154881015Y-91357519D01*
X154974147Y-91496900D01*
X155038297Y-91651772D01*
X155071000Y-91816184D01*
X155071000Y-91983816D01*
X155038297Y-92148228D01*
X154974147Y-92303100D01*
X154881015Y-92442481D01*
X154762481Y-92561015D01*
X154623100Y-92654147D01*
X154468228Y-92718297D01*
X154303816Y-92751000D01*
X154136184Y-92751000D01*
X153971772Y-92718297D01*
X153816900Y-92654147D01*
X153677519Y-92561015D01*
X153558985Y-92442481D01*
X153465853Y-92303100D01*
X153401703Y-92148228D01*
X153369000Y-91983816D01*
X153369000Y-91816184D01*
X153401703Y-91651772D01*
X153465853Y-91496900D01*
X153558985Y-91357519D01*
X153677519Y-91238985D01*
X153816900Y-91145853D01*
X153971772Y-91081703D01*
X154136184Y-91049000D01*
X154303816Y-91049000D01*
X154468228Y-91081703D01*
X154468228Y-91081703D01*
G37*
G36*
X157008228Y-91081703D02*
X157163100Y-91145853D01*
X157302481Y-91238985D01*
X157421015Y-91357519D01*
X157514147Y-91496900D01*
X157578297Y-91651772D01*
X157611000Y-91816184D01*
X157611000Y-91983816D01*
X157578297Y-92148228D01*
X157514147Y-92303100D01*
X157421015Y-92442481D01*
X157302481Y-92561015D01*
X157163100Y-92654147D01*
X157008228Y-92718297D01*
X156843816Y-92751000D01*
X156676184Y-92751000D01*
X156511772Y-92718297D01*
X156356900Y-92654147D01*
X156217519Y-92561015D01*
X156098985Y-92442481D01*
X156005853Y-92303100D01*
X155941703Y-92148228D01*
X155909000Y-91983816D01*
X155909000Y-91816184D01*
X155941703Y-91651772D01*
X156005853Y-91496900D01*
X156098985Y-91357519D01*
X156217519Y-91238985D01*
X156356900Y-91145853D01*
X156511772Y-91081703D01*
X156676184Y-91049000D01*
X156843816Y-91049000D01*
X157008228Y-91081703D01*
X157008228Y-91081703D01*
G37*
G36*
X179068228Y-88841703D02*
X179223100Y-88905853D01*
X179362481Y-88998985D01*
X179481015Y-89117519D01*
X179574147Y-89256900D01*
X179638297Y-89411772D01*
X179671000Y-89576184D01*
X179671000Y-89743816D01*
X179638297Y-89908228D01*
X179574147Y-90063100D01*
X179481015Y-90202481D01*
X179362481Y-90321015D01*
X179223100Y-90414147D01*
X179068228Y-90478297D01*
X178903816Y-90511000D01*
X178736184Y-90511000D01*
X178571772Y-90478297D01*
X178416900Y-90414147D01*
X178277519Y-90321015D01*
X178158985Y-90202481D01*
X178065853Y-90063100D01*
X178001703Y-89908228D01*
X177969000Y-89743816D01*
X177969000Y-89576184D01*
X178001703Y-89411772D01*
X178065853Y-89256900D01*
X178158985Y-89117519D01*
X178277519Y-88998985D01*
X178416900Y-88905853D01*
X178571772Y-88841703D01*
X178736184Y-88809000D01*
X178903816Y-88809000D01*
X179068228Y-88841703D01*
X179068228Y-88841703D01*
G37*
G36*
X144218677Y-88788465D02*
X144256364Y-88799898D01*
X144291103Y-88818466D01*
X144321548Y-88843452D01*
X144346534Y-88873897D01*
X144365102Y-88908636D01*
X144376535Y-88946323D01*
X144381000Y-88991661D01*
X144381000Y-90078339D01*
X144376535Y-90123677D01*
X144365102Y-90161364D01*
X144346534Y-90196103D01*
X144321548Y-90226548D01*
X144291103Y-90251534D01*
X144256364Y-90270102D01*
X144218677Y-90281535D01*
X144173339Y-90286000D01*
X143336661Y-90286000D01*
X143291323Y-90281535D01*
X143253636Y-90270102D01*
X143218897Y-90251534D01*
X143188452Y-90226548D01*
X143163466Y-90196103D01*
X143144898Y-90161364D01*
X143133465Y-90123677D01*
X143129000Y-90078339D01*
X143129000Y-88991661D01*
X143133465Y-88946323D01*
X143144898Y-88908636D01*
X143163466Y-88873897D01*
X143188452Y-88843452D01*
X143218897Y-88818466D01*
X143253636Y-88799898D01*
X143291323Y-88788465D01*
X143336661Y-88784000D01*
X144173339Y-88784000D01*
X144218677Y-88788465D01*
X144218677Y-88788465D01*
G37*
G36*
X146268677Y-88788465D02*
X146306364Y-88799898D01*
X146341103Y-88818466D01*
X146371548Y-88843452D01*
X146396534Y-88873897D01*
X146415102Y-88908636D01*
X146426535Y-88946323D01*
X146431000Y-88991661D01*
X146431000Y-90078339D01*
X146426535Y-90123677D01*
X146415102Y-90161364D01*
X146396534Y-90196103D01*
X146371548Y-90226548D01*
X146341103Y-90251534D01*
X146306364Y-90270102D01*
X146268677Y-90281535D01*
X146223339Y-90286000D01*
X145386661Y-90286000D01*
X145341323Y-90281535D01*
X145303636Y-90270102D01*
X145268897Y-90251534D01*
X145238452Y-90226548D01*
X145213466Y-90196103D01*
X145194898Y-90161364D01*
X145183465Y-90123677D01*
X145179000Y-90078339D01*
X145179000Y-88991661D01*
X145183465Y-88946323D01*
X145194898Y-88908636D01*
X145213466Y-88873897D01*
X145238452Y-88843452D01*
X145268897Y-88818466D01*
X145303636Y-88799898D01*
X145341323Y-88788465D01*
X145386661Y-88784000D01*
X146223339Y-88784000D01*
X146268677Y-88788465D01*
X146268677Y-88788465D01*
G37*
G36*
X157008228Y-88541703D02*
X157163100Y-88605853D01*
X157302481Y-88698985D01*
X157421015Y-88817519D01*
X157514147Y-88956900D01*
X157578297Y-89111772D01*
X157611000Y-89276184D01*
X157611000Y-89443816D01*
X157578297Y-89608228D01*
X157514147Y-89763100D01*
X157421015Y-89902481D01*
X157302481Y-90021015D01*
X157163100Y-90114147D01*
X157008228Y-90178297D01*
X156843816Y-90211000D01*
X156676184Y-90211000D01*
X156511772Y-90178297D01*
X156356900Y-90114147D01*
X156217519Y-90021015D01*
X156098985Y-89902481D01*
X156005853Y-89763100D01*
X155941703Y-89608228D01*
X155909000Y-89443816D01*
X155909000Y-89276184D01*
X155941703Y-89111772D01*
X156005853Y-88956900D01*
X156098985Y-88817519D01*
X156217519Y-88698985D01*
X156356900Y-88605853D01*
X156511772Y-88541703D01*
X156676184Y-88509000D01*
X156843816Y-88509000D01*
X157008228Y-88541703D01*
X157008228Y-88541703D01*
G37*
G36*
X154468228Y-88541703D02*
X154623100Y-88605853D01*
X154762481Y-88698985D01*
X154881015Y-88817519D01*
X154974147Y-88956900D01*
X155038297Y-89111772D01*
X155071000Y-89276184D01*
X155071000Y-89443816D01*
X155038297Y-89608228D01*
X154974147Y-89763100D01*
X154881015Y-89902481D01*
X154762481Y-90021015D01*
X154623100Y-90114147D01*
X154468228Y-90178297D01*
X154303816Y-90211000D01*
X154136184Y-90211000D01*
X153971772Y-90178297D01*
X153816900Y-90114147D01*
X153677519Y-90021015D01*
X153558985Y-89902481D01*
X153465853Y-89763100D01*
X153401703Y-89608228D01*
X153369000Y-89443816D01*
X153369000Y-89276184D01*
X153401703Y-89111772D01*
X153465853Y-88956900D01*
X153558985Y-88817519D01*
X153677519Y-88698985D01*
X153816900Y-88605853D01*
X153971772Y-88541703D01*
X154136184Y-88509000D01*
X154303816Y-88509000D01*
X154468228Y-88541703D01*
X154468228Y-88541703D01*
G37*
G36*
X169551000Y-89886000D02*
X167949000Y-89886000D01*
X167949000Y-89184000D01*
X169551000Y-89184000D01*
X169551000Y-89886000D01*
X169551000Y-89886000D01*
G37*
G36*
X174951000Y-89886000D02*
X173349000Y-89886000D01*
X173349000Y-89184000D01*
X174951000Y-89184000D01*
X174951000Y-89886000D01*
X174951000Y-89886000D01*
G37*
G36*
X185668228Y-87816703D02*
X185823100Y-87880853D01*
X185962481Y-87973985D01*
X186081015Y-88092519D01*
X186174147Y-88231900D01*
X186238297Y-88386772D01*
X186271000Y-88551184D01*
X186271000Y-88718816D01*
X186238297Y-88883228D01*
X186174147Y-89038100D01*
X186081015Y-89177481D01*
X185962481Y-89296015D01*
X185823100Y-89389147D01*
X185668228Y-89453297D01*
X185503816Y-89486000D01*
X185336184Y-89486000D01*
X185171772Y-89453297D01*
X185016900Y-89389147D01*
X184877519Y-89296015D01*
X184758985Y-89177481D01*
X184665853Y-89038100D01*
X184601703Y-88883228D01*
X184569000Y-88718816D01*
X184569000Y-88551184D01*
X184601703Y-88386772D01*
X184665853Y-88231900D01*
X184758985Y-88092519D01*
X184877519Y-87973985D01*
X185016900Y-87880853D01*
X185171772Y-87816703D01*
X185336184Y-87784000D01*
X185503816Y-87784000D01*
X185668228Y-87816703D01*
X185668228Y-87816703D01*
G37*
G36*
X169551000Y-88616000D02*
X167949000Y-88616000D01*
X167949000Y-87914000D01*
X169551000Y-87914000D01*
X169551000Y-88616000D01*
X169551000Y-88616000D01*
G37*
G36*
X174951000Y-88616000D02*
X173349000Y-88616000D01*
X173349000Y-87914000D01*
X174951000Y-87914000D01*
X174951000Y-88616000D01*
X174951000Y-88616000D01*
G37*
G36*
X183888228Y-86801703D02*
X184043100Y-86865853D01*
X184182481Y-86958985D01*
X184301015Y-87077519D01*
X184394147Y-87216900D01*
X184458297Y-87371772D01*
X184491000Y-87536184D01*
X184491000Y-87703816D01*
X184458297Y-87868228D01*
X184394147Y-88023100D01*
X184301015Y-88162481D01*
X184182481Y-88281015D01*
X184043100Y-88374147D01*
X183888228Y-88438297D01*
X183723816Y-88471000D01*
X183556184Y-88471000D01*
X183391772Y-88438297D01*
X183236900Y-88374147D01*
X183097519Y-88281015D01*
X182978985Y-88162481D01*
X182885853Y-88023100D01*
X182821703Y-87868228D01*
X182789000Y-87703816D01*
X182789000Y-87536184D01*
X182821703Y-87371772D01*
X182885853Y-87216900D01*
X182978985Y-87077519D01*
X183097519Y-86958985D01*
X183236900Y-86865853D01*
X183391772Y-86801703D01*
X183556184Y-86769000D01*
X183723816Y-86769000D01*
X183888228Y-86801703D01*
X183888228Y-86801703D01*
G37*
G36*
X185668228Y-85786703D02*
X185823100Y-85850853D01*
X185962481Y-85943985D01*
X186081015Y-86062519D01*
X186174147Y-86201900D01*
X186238297Y-86356772D01*
X186271000Y-86521184D01*
X186271000Y-86688816D01*
X186238297Y-86853228D01*
X186174147Y-87008100D01*
X186081015Y-87147481D01*
X185962481Y-87266015D01*
X185823100Y-87359147D01*
X185668228Y-87423297D01*
X185503816Y-87456000D01*
X185336184Y-87456000D01*
X185171772Y-87423297D01*
X185016900Y-87359147D01*
X184877519Y-87266015D01*
X184758985Y-87147481D01*
X184665853Y-87008100D01*
X184601703Y-86853228D01*
X184569000Y-86688816D01*
X184569000Y-86521184D01*
X184601703Y-86356772D01*
X184665853Y-86201900D01*
X184758985Y-86062519D01*
X184877519Y-85943985D01*
X185016900Y-85850853D01*
X185171772Y-85786703D01*
X185336184Y-85754000D01*
X185503816Y-85754000D01*
X185668228Y-85786703D01*
X185668228Y-85786703D01*
G37*
G36*
X169551000Y-87346000D02*
X167949000Y-87346000D01*
X167949000Y-86644000D01*
X169551000Y-86644000D01*
X169551000Y-87346000D01*
X169551000Y-87346000D01*
G37*
G36*
X174951000Y-87346000D02*
X173349000Y-87346000D01*
X173349000Y-86644000D01*
X174951000Y-86644000D01*
X174951000Y-87346000D01*
X174951000Y-87346000D01*
G37*
G36*
X183888228Y-84771703D02*
X184043100Y-84835853D01*
X184182481Y-84928985D01*
X184301015Y-85047519D01*
X184394147Y-85186900D01*
X184458297Y-85341772D01*
X184491000Y-85506184D01*
X184491000Y-85673816D01*
X184458297Y-85838228D01*
X184394147Y-85993100D01*
X184301015Y-86132481D01*
X184182481Y-86251015D01*
X184043100Y-86344147D01*
X183888228Y-86408297D01*
X183723816Y-86441000D01*
X183556184Y-86441000D01*
X183391772Y-86408297D01*
X183236900Y-86344147D01*
X183097519Y-86251015D01*
X182978985Y-86132481D01*
X182885853Y-85993100D01*
X182821703Y-85838228D01*
X182789000Y-85673816D01*
X182789000Y-85506184D01*
X182821703Y-85341772D01*
X182885853Y-85186900D01*
X182978985Y-85047519D01*
X183097519Y-84928985D01*
X183236900Y-84835853D01*
X183391772Y-84771703D01*
X183556184Y-84739000D01*
X183723816Y-84739000D01*
X183888228Y-84771703D01*
X183888228Y-84771703D01*
G37*
G36*
X174951000Y-86076000D02*
X173349000Y-86076000D01*
X173349000Y-85374000D01*
X174951000Y-85374000D01*
X174951000Y-86076000D01*
X174951000Y-86076000D01*
G37*
G36*
X169551000Y-86076000D02*
X167949000Y-86076000D01*
X167949000Y-85374000D01*
X169551000Y-85374000D01*
X169551000Y-86076000D01*
X169551000Y-86076000D01*
G37*
G36*
X139948228Y-84051703D02*
X140103100Y-84115853D01*
X140242481Y-84208985D01*
X140361015Y-84327519D01*
X140454147Y-84466900D01*
X140518297Y-84621772D01*
X140551000Y-84786184D01*
X140551000Y-84953816D01*
X140518297Y-85118228D01*
X140454147Y-85273100D01*
X140361015Y-85412481D01*
X140242481Y-85531015D01*
X140103100Y-85624147D01*
X139948228Y-85688297D01*
X139783816Y-85721000D01*
X139616184Y-85721000D01*
X139451772Y-85688297D01*
X139296900Y-85624147D01*
X139157519Y-85531015D01*
X139038985Y-85412481D01*
X138945853Y-85273100D01*
X138881703Y-85118228D01*
X138849000Y-84953816D01*
X138849000Y-84786184D01*
X138881703Y-84621772D01*
X138945853Y-84466900D01*
X139038985Y-84327519D01*
X139157519Y-84208985D01*
X139296900Y-84115853D01*
X139451772Y-84051703D01*
X139616184Y-84019000D01*
X139783816Y-84019000D01*
X139948228Y-84051703D01*
X139948228Y-84051703D01*
G37*
G36*
X160268228Y-84051703D02*
X160423100Y-84115853D01*
X160562481Y-84208985D01*
X160681015Y-84327519D01*
X160774147Y-84466900D01*
X160838297Y-84621772D01*
X160871000Y-84786184D01*
X160871000Y-84953816D01*
X160838297Y-85118228D01*
X160774147Y-85273100D01*
X160681015Y-85412481D01*
X160562481Y-85531015D01*
X160423100Y-85624147D01*
X160268228Y-85688297D01*
X160103816Y-85721000D01*
X159936184Y-85721000D01*
X159771772Y-85688297D01*
X159616900Y-85624147D01*
X159477519Y-85531015D01*
X159358985Y-85412481D01*
X159265853Y-85273100D01*
X159201703Y-85118228D01*
X159169000Y-84953816D01*
X159169000Y-84786184D01*
X159201703Y-84621772D01*
X159265853Y-84466900D01*
X159358985Y-84327519D01*
X159477519Y-84208985D01*
X159616900Y-84115853D01*
X159771772Y-84051703D01*
X159936184Y-84019000D01*
X160103816Y-84019000D01*
X160268228Y-84051703D01*
X160268228Y-84051703D01*
G37*
G36*
X155188228Y-84051703D02*
X155343100Y-84115853D01*
X155482481Y-84208985D01*
X155601015Y-84327519D01*
X155694147Y-84466900D01*
X155758297Y-84621772D01*
X155791000Y-84786184D01*
X155791000Y-84953816D01*
X155758297Y-85118228D01*
X155694147Y-85273100D01*
X155601015Y-85412481D01*
X155482481Y-85531015D01*
X155343100Y-85624147D01*
X155188228Y-85688297D01*
X155023816Y-85721000D01*
X154856184Y-85721000D01*
X154691772Y-85688297D01*
X154536900Y-85624147D01*
X154397519Y-85531015D01*
X154278985Y-85412481D01*
X154185853Y-85273100D01*
X154121703Y-85118228D01*
X154089000Y-84953816D01*
X154089000Y-84786184D01*
X154121703Y-84621772D01*
X154185853Y-84466900D01*
X154278985Y-84327519D01*
X154397519Y-84208985D01*
X154536900Y-84115853D01*
X154691772Y-84051703D01*
X154856184Y-84019000D01*
X155023816Y-84019000D01*
X155188228Y-84051703D01*
X155188228Y-84051703D01*
G37*
G36*
X152648228Y-84051703D02*
X152803100Y-84115853D01*
X152942481Y-84208985D01*
X153061015Y-84327519D01*
X153154147Y-84466900D01*
X153218297Y-84621772D01*
X153251000Y-84786184D01*
X153251000Y-84953816D01*
X153218297Y-85118228D01*
X153154147Y-85273100D01*
X153061015Y-85412481D01*
X152942481Y-85531015D01*
X152803100Y-85624147D01*
X152648228Y-85688297D01*
X152483816Y-85721000D01*
X152316184Y-85721000D01*
X152151772Y-85688297D01*
X151996900Y-85624147D01*
X151857519Y-85531015D01*
X151738985Y-85412481D01*
X151645853Y-85273100D01*
X151581703Y-85118228D01*
X151549000Y-84953816D01*
X151549000Y-84786184D01*
X151581703Y-84621772D01*
X151645853Y-84466900D01*
X151738985Y-84327519D01*
X151857519Y-84208985D01*
X151996900Y-84115853D01*
X152151772Y-84051703D01*
X152316184Y-84019000D01*
X152483816Y-84019000D01*
X152648228Y-84051703D01*
X152648228Y-84051703D01*
G37*
G36*
X142488228Y-84051703D02*
X142643100Y-84115853D01*
X142782481Y-84208985D01*
X142901015Y-84327519D01*
X142994147Y-84466900D01*
X143058297Y-84621772D01*
X143091000Y-84786184D01*
X143091000Y-84953816D01*
X143058297Y-85118228D01*
X142994147Y-85273100D01*
X142901015Y-85412481D01*
X142782481Y-85531015D01*
X142643100Y-85624147D01*
X142488228Y-85688297D01*
X142323816Y-85721000D01*
X142156184Y-85721000D01*
X141991772Y-85688297D01*
X141836900Y-85624147D01*
X141697519Y-85531015D01*
X141578985Y-85412481D01*
X141485853Y-85273100D01*
X141421703Y-85118228D01*
X141389000Y-84953816D01*
X141389000Y-84786184D01*
X141421703Y-84621772D01*
X141485853Y-84466900D01*
X141578985Y-84327519D01*
X141697519Y-84208985D01*
X141836900Y-84115853D01*
X141991772Y-84051703D01*
X142156184Y-84019000D01*
X142323816Y-84019000D01*
X142488228Y-84051703D01*
X142488228Y-84051703D01*
G37*
G36*
X150108228Y-84051703D02*
X150263100Y-84115853D01*
X150402481Y-84208985D01*
X150521015Y-84327519D01*
X150614147Y-84466900D01*
X150678297Y-84621772D01*
X150711000Y-84786184D01*
X150711000Y-84953816D01*
X150678297Y-85118228D01*
X150614147Y-85273100D01*
X150521015Y-85412481D01*
X150402481Y-85531015D01*
X150263100Y-85624147D01*
X150108228Y-85688297D01*
X149943816Y-85721000D01*
X149776184Y-85721000D01*
X149611772Y-85688297D01*
X149456900Y-85624147D01*
X149317519Y-85531015D01*
X149198985Y-85412481D01*
X149105853Y-85273100D01*
X149041703Y-85118228D01*
X149009000Y-84953816D01*
X149009000Y-84786184D01*
X149041703Y-84621772D01*
X149105853Y-84466900D01*
X149198985Y-84327519D01*
X149317519Y-84208985D01*
X149456900Y-84115853D01*
X149611772Y-84051703D01*
X149776184Y-84019000D01*
X149943816Y-84019000D01*
X150108228Y-84051703D01*
X150108228Y-84051703D01*
G37*
G36*
X147568228Y-84051703D02*
X147723100Y-84115853D01*
X147862481Y-84208985D01*
X147981015Y-84327519D01*
X148074147Y-84466900D01*
X148138297Y-84621772D01*
X148171000Y-84786184D01*
X148171000Y-84953816D01*
X148138297Y-85118228D01*
X148074147Y-85273100D01*
X147981015Y-85412481D01*
X147862481Y-85531015D01*
X147723100Y-85624147D01*
X147568228Y-85688297D01*
X147403816Y-85721000D01*
X147236184Y-85721000D01*
X147071772Y-85688297D01*
X146916900Y-85624147D01*
X146777519Y-85531015D01*
X146658985Y-85412481D01*
X146565853Y-85273100D01*
X146501703Y-85118228D01*
X146469000Y-84953816D01*
X146469000Y-84786184D01*
X146501703Y-84621772D01*
X146565853Y-84466900D01*
X146658985Y-84327519D01*
X146777519Y-84208985D01*
X146916900Y-84115853D01*
X147071772Y-84051703D01*
X147236184Y-84019000D01*
X147403816Y-84019000D01*
X147568228Y-84051703D01*
X147568228Y-84051703D01*
G37*
G36*
X157728228Y-84051703D02*
X157883100Y-84115853D01*
X158022481Y-84208985D01*
X158141015Y-84327519D01*
X158234147Y-84466900D01*
X158298297Y-84621772D01*
X158331000Y-84786184D01*
X158331000Y-84953816D01*
X158298297Y-85118228D01*
X158234147Y-85273100D01*
X158141015Y-85412481D01*
X158022481Y-85531015D01*
X157883100Y-85624147D01*
X157728228Y-85688297D01*
X157563816Y-85721000D01*
X157396184Y-85721000D01*
X157231772Y-85688297D01*
X157076900Y-85624147D01*
X156937519Y-85531015D01*
X156818985Y-85412481D01*
X156725853Y-85273100D01*
X156661703Y-85118228D01*
X156629000Y-84953816D01*
X156629000Y-84786184D01*
X156661703Y-84621772D01*
X156725853Y-84466900D01*
X156818985Y-84327519D01*
X156937519Y-84208985D01*
X157076900Y-84115853D01*
X157231772Y-84051703D01*
X157396184Y-84019000D01*
X157563816Y-84019000D01*
X157728228Y-84051703D01*
X157728228Y-84051703D01*
G37*
G36*
X145028228Y-84051703D02*
X145183100Y-84115853D01*
X145322481Y-84208985D01*
X145441015Y-84327519D01*
X145534147Y-84466900D01*
X145598297Y-84621772D01*
X145631000Y-84786184D01*
X145631000Y-84953816D01*
X145598297Y-85118228D01*
X145534147Y-85273100D01*
X145441015Y-85412481D01*
X145322481Y-85531015D01*
X145183100Y-85624147D01*
X145028228Y-85688297D01*
X144863816Y-85721000D01*
X144696184Y-85721000D01*
X144531772Y-85688297D01*
X144376900Y-85624147D01*
X144237519Y-85531015D01*
X144118985Y-85412481D01*
X144025853Y-85273100D01*
X143961703Y-85118228D01*
X143929000Y-84953816D01*
X143929000Y-84786184D01*
X143961703Y-84621772D01*
X144025853Y-84466900D01*
X144118985Y-84327519D01*
X144237519Y-84208985D01*
X144376900Y-84115853D01*
X144531772Y-84051703D01*
X144696184Y-84019000D01*
X144863816Y-84019000D01*
X145028228Y-84051703D01*
X145028228Y-84051703D01*
G37*
G36*
X163411000Y-85721000D02*
X161709000Y-85721000D01*
X161709000Y-84019000D01*
X163411000Y-84019000D01*
X163411000Y-85721000D01*
X163411000Y-85721000D01*
G37*
G36*
X185668228Y-83756703D02*
X185823100Y-83820853D01*
X185962481Y-83913985D01*
X186081015Y-84032519D01*
X186174147Y-84171900D01*
X186238297Y-84326772D01*
X186271000Y-84491184D01*
X186271000Y-84658816D01*
X186238297Y-84823228D01*
X186174147Y-84978100D01*
X186081015Y-85117481D01*
X185962481Y-85236015D01*
X185823100Y-85329147D01*
X185668228Y-85393297D01*
X185503816Y-85426000D01*
X185336184Y-85426000D01*
X185171772Y-85393297D01*
X185016900Y-85329147D01*
X184877519Y-85236015D01*
X184758985Y-85117481D01*
X184665853Y-84978100D01*
X184601703Y-84823228D01*
X184569000Y-84658816D01*
X184569000Y-84491184D01*
X184601703Y-84326772D01*
X184665853Y-84171900D01*
X184758985Y-84032519D01*
X184877519Y-83913985D01*
X185016900Y-83820853D01*
X185171772Y-83756703D01*
X185336184Y-83724000D01*
X185503816Y-83724000D01*
X185668228Y-83756703D01*
X185668228Y-83756703D01*
G37*
G36*
X174951000Y-84806000D02*
X173349000Y-84806000D01*
X173349000Y-84104000D01*
X174951000Y-84104000D01*
X174951000Y-84806000D01*
X174951000Y-84806000D01*
G37*
G36*
X169551000Y-84806000D02*
X167949000Y-84806000D01*
X167949000Y-84104000D01*
X169551000Y-84104000D01*
X169551000Y-84806000D01*
X169551000Y-84806000D01*
G37*
G36*
X183888228Y-82741703D02*
X184043100Y-82805853D01*
X184182481Y-82898985D01*
X184301015Y-83017519D01*
X184394147Y-83156900D01*
X184458297Y-83311772D01*
X184491000Y-83476184D01*
X184491000Y-83643816D01*
X184458297Y-83808228D01*
X184394147Y-83963100D01*
X184301015Y-84102481D01*
X184182481Y-84221015D01*
X184043100Y-84314147D01*
X183888228Y-84378297D01*
X183723816Y-84411000D01*
X183556184Y-84411000D01*
X183391772Y-84378297D01*
X183236900Y-84314147D01*
X183097519Y-84221015D01*
X182978985Y-84102481D01*
X182885853Y-83963100D01*
X182821703Y-83808228D01*
X182789000Y-83643816D01*
X182789000Y-83476184D01*
X182821703Y-83311772D01*
X182885853Y-83156900D01*
X182978985Y-83017519D01*
X183097519Y-82898985D01*
X183236900Y-82805853D01*
X183391772Y-82741703D01*
X183556184Y-82709000D01*
X183723816Y-82709000D01*
X183888228Y-82741703D01*
X183888228Y-82741703D01*
G37*
G36*
X169551000Y-83536000D02*
X167949000Y-83536000D01*
X167949000Y-82834000D01*
X169551000Y-82834000D01*
X169551000Y-83536000D01*
X169551000Y-83536000D01*
G37*
G36*
X174951000Y-83536000D02*
X173349000Y-83536000D01*
X173349000Y-82834000D01*
X174951000Y-82834000D01*
X174951000Y-83536000D01*
X174951000Y-83536000D01*
G37*
G36*
X185668228Y-81726703D02*
X185823100Y-81790853D01*
X185962481Y-81883985D01*
X186081015Y-82002519D01*
X186174147Y-82141900D01*
X186238297Y-82296772D01*
X186271000Y-82461184D01*
X186271000Y-82628816D01*
X186238297Y-82793228D01*
X186174147Y-82948100D01*
X186081015Y-83087481D01*
X185962481Y-83206015D01*
X185823100Y-83299147D01*
X185668228Y-83363297D01*
X185503816Y-83396000D01*
X185336184Y-83396000D01*
X185171772Y-83363297D01*
X185016900Y-83299147D01*
X184877519Y-83206015D01*
X184758985Y-83087481D01*
X184665853Y-82948100D01*
X184601703Y-82793228D01*
X184569000Y-82628816D01*
X184569000Y-82461184D01*
X184601703Y-82296772D01*
X184665853Y-82141900D01*
X184758985Y-82002519D01*
X184877519Y-81883985D01*
X185016900Y-81790853D01*
X185171772Y-81726703D01*
X185336184Y-81694000D01*
X185503816Y-81694000D01*
X185668228Y-81726703D01*
X185668228Y-81726703D01*
G37*
G36*
X183888228Y-80711703D02*
X184043100Y-80775853D01*
X184182481Y-80868985D01*
X184301015Y-80987519D01*
X184394147Y-81126900D01*
X184458297Y-81281772D01*
X184491000Y-81446184D01*
X184491000Y-81613816D01*
X184458297Y-81778228D01*
X184394147Y-81933100D01*
X184301015Y-82072481D01*
X184182481Y-82191015D01*
X184043100Y-82284147D01*
X183888228Y-82348297D01*
X183723816Y-82381000D01*
X183556184Y-82381000D01*
X183391772Y-82348297D01*
X183236900Y-82284147D01*
X183097519Y-82191015D01*
X182978985Y-82072481D01*
X182885853Y-81933100D01*
X182821703Y-81778228D01*
X182789000Y-81613816D01*
X182789000Y-81446184D01*
X182821703Y-81281772D01*
X182885853Y-81126900D01*
X182978985Y-80987519D01*
X183097519Y-80868985D01*
X183236900Y-80775853D01*
X183391772Y-80711703D01*
X183556184Y-80679000D01*
X183723816Y-80679000D01*
X183888228Y-80711703D01*
X183888228Y-80711703D01*
G37*
G36*
X169551000Y-82266000D02*
X167949000Y-82266000D01*
X167949000Y-81564000D01*
X169551000Y-81564000D01*
X169551000Y-82266000D01*
X169551000Y-82266000D01*
G37*
G36*
X174951000Y-82266000D02*
X173349000Y-82266000D01*
X173349000Y-81564000D01*
X174951000Y-81564000D01*
X174951000Y-82266000D01*
X174951000Y-82266000D01*
G37*
G36*
X179068228Y-79701703D02*
X179223100Y-79765853D01*
X179362481Y-79858985D01*
X179481015Y-79977519D01*
X179574147Y-80116900D01*
X179638297Y-80271772D01*
X179671000Y-80436184D01*
X179671000Y-80603816D01*
X179638297Y-80768228D01*
X179574147Y-80923100D01*
X179481015Y-81062481D01*
X179362481Y-81181015D01*
X179223100Y-81274147D01*
X179068228Y-81338297D01*
X178903816Y-81371000D01*
X178736184Y-81371000D01*
X178571772Y-81338297D01*
X178416900Y-81274147D01*
X178277519Y-81181015D01*
X178158985Y-81062481D01*
X178065853Y-80923100D01*
X178001703Y-80768228D01*
X177969000Y-80603816D01*
X177969000Y-80436184D01*
X178001703Y-80271772D01*
X178065853Y-80116900D01*
X178158985Y-79977519D01*
X178277519Y-79858985D01*
X178416900Y-79765853D01*
X178571772Y-79701703D01*
X178736184Y-79669000D01*
X178903816Y-79669000D01*
X179068228Y-79701703D01*
X179068228Y-79701703D01*
G37*
G36*
X174951000Y-80996000D02*
X173349000Y-80996000D01*
X173349000Y-80294000D01*
X174951000Y-80294000D01*
X174951000Y-80996000D01*
X174951000Y-80996000D01*
G37*
G36*
X169551000Y-80996000D02*
X167949000Y-80996000D01*
X167949000Y-80294000D01*
X169551000Y-80294000D01*
X169551000Y-80996000D01*
X169551000Y-80996000D01*
G37*
G36*
X188485331Y-77008211D02*
X188813092Y-77143974D01*
X189108073Y-77341074D01*
X189358926Y-77591927D01*
X189556026Y-77886908D01*
X189691789Y-78214669D01*
X189761000Y-78562616D01*
X189761000Y-78917384D01*
X189691789Y-79265331D01*
X189556026Y-79593092D01*
X189358926Y-79888073D01*
X189108073Y-80138926D01*
X188813092Y-80336026D01*
X188485331Y-80471789D01*
X188137384Y-80541000D01*
X187782616Y-80541000D01*
X187434669Y-80471789D01*
X187106908Y-80336026D01*
X186811927Y-80138926D01*
X186561074Y-79888073D01*
X186363974Y-79593092D01*
X186228211Y-79265331D01*
X186159000Y-78917384D01*
X186159000Y-78562616D01*
X186228211Y-78214669D01*
X186363974Y-77886908D01*
X186561074Y-77591927D01*
X186811927Y-77341074D01*
X187106908Y-77143974D01*
X187434669Y-77008211D01*
X187782616Y-76939000D01*
X188137384Y-76939000D01*
X188485331Y-77008211D01*
X188485331Y-77008211D01*
G37*
G36*
X170398677Y-77993465D02*
X170436364Y-78004898D01*
X170471103Y-78023466D01*
X170501548Y-78048452D01*
X170526534Y-78078897D01*
X170545102Y-78113636D01*
X170556535Y-78151323D01*
X170561000Y-78196661D01*
X170561000Y-79283339D01*
X170556535Y-79328677D01*
X170545102Y-79366364D01*
X170526534Y-79401103D01*
X170501548Y-79431548D01*
X170471103Y-79456534D01*
X170436364Y-79475102D01*
X170398677Y-79486535D01*
X170353339Y-79491000D01*
X169516661Y-79491000D01*
X169471323Y-79486535D01*
X169433636Y-79475102D01*
X169398897Y-79456534D01*
X169368452Y-79431548D01*
X169343466Y-79401103D01*
X169324898Y-79366364D01*
X169313465Y-79328677D01*
X169309000Y-79283339D01*
X169309000Y-78196661D01*
X169313465Y-78151323D01*
X169324898Y-78113636D01*
X169343466Y-78078897D01*
X169368452Y-78048452D01*
X169398897Y-78023466D01*
X169433636Y-78004898D01*
X169471323Y-77993465D01*
X169516661Y-77989000D01*
X170353339Y-77989000D01*
X170398677Y-77993465D01*
X170398677Y-77993465D01*
G37*
G36*
X175478677Y-77993465D02*
X175516364Y-78004898D01*
X175551103Y-78023466D01*
X175581548Y-78048452D01*
X175606534Y-78078897D01*
X175625102Y-78113636D01*
X175636535Y-78151323D01*
X175641000Y-78196661D01*
X175641000Y-79283339D01*
X175636535Y-79328677D01*
X175625102Y-79366364D01*
X175606534Y-79401103D01*
X175581548Y-79431548D01*
X175551103Y-79456534D01*
X175516364Y-79475102D01*
X175478677Y-79486535D01*
X175433339Y-79491000D01*
X174596661Y-79491000D01*
X174551323Y-79486535D01*
X174513636Y-79475102D01*
X174478897Y-79456534D01*
X174448452Y-79431548D01*
X174423466Y-79401103D01*
X174404898Y-79366364D01*
X174393465Y-79328677D01*
X174389000Y-79283339D01*
X174389000Y-78196661D01*
X174393465Y-78151323D01*
X174404898Y-78113636D01*
X174423466Y-78078897D01*
X174448452Y-78048452D01*
X174478897Y-78023466D01*
X174513636Y-78004898D01*
X174551323Y-77993465D01*
X174596661Y-77989000D01*
X175433339Y-77989000D01*
X175478677Y-77993465D01*
X175478677Y-77993465D01*
G37*
G36*
X168348677Y-77993465D02*
X168386364Y-78004898D01*
X168421103Y-78023466D01*
X168451548Y-78048452D01*
X168476534Y-78078897D01*
X168495102Y-78113636D01*
X168506535Y-78151323D01*
X168511000Y-78196661D01*
X168511000Y-79283339D01*
X168506535Y-79328677D01*
X168495102Y-79366364D01*
X168476534Y-79401103D01*
X168451548Y-79431548D01*
X168421103Y-79456534D01*
X168386364Y-79475102D01*
X168348677Y-79486535D01*
X168303339Y-79491000D01*
X167466661Y-79491000D01*
X167421323Y-79486535D01*
X167383636Y-79475102D01*
X167348897Y-79456534D01*
X167318452Y-79431548D01*
X167293466Y-79401103D01*
X167274898Y-79366364D01*
X167263465Y-79328677D01*
X167259000Y-79283339D01*
X167259000Y-78196661D01*
X167263465Y-78151323D01*
X167274898Y-78113636D01*
X167293466Y-78078897D01*
X167318452Y-78048452D01*
X167348897Y-78023466D01*
X167383636Y-78004898D01*
X167421323Y-77993465D01*
X167466661Y-77989000D01*
X168303339Y-77989000D01*
X168348677Y-77993465D01*
X168348677Y-77993465D01*
G37*
G36*
X173428677Y-77993465D02*
X173466364Y-78004898D01*
X173501103Y-78023466D01*
X173531548Y-78048452D01*
X173556534Y-78078897D01*
X173575102Y-78113636D01*
X173586535Y-78151323D01*
X173591000Y-78196661D01*
X173591000Y-79283339D01*
X173586535Y-79328677D01*
X173575102Y-79366364D01*
X173556534Y-79401103D01*
X173531548Y-79431548D01*
X173501103Y-79456534D01*
X173466364Y-79475102D01*
X173428677Y-79486535D01*
X173383339Y-79491000D01*
X172546661Y-79491000D01*
X172501323Y-79486535D01*
X172463636Y-79475102D01*
X172428897Y-79456534D01*
X172398452Y-79431548D01*
X172373466Y-79401103D01*
X172354898Y-79366364D01*
X172343465Y-79328677D01*
X172339000Y-79283339D01*
X172339000Y-78196661D01*
X172343465Y-78151323D01*
X172354898Y-78113636D01*
X172373466Y-78078897D01*
X172398452Y-78048452D01*
X172428897Y-78023466D01*
X172463636Y-78004898D01*
X172501323Y-77993465D01*
X172546661Y-77989000D01*
X173383339Y-77989000D01*
X173428677Y-77993465D01*
X173428677Y-77993465D01*
G37*
G36*
X179068228Y-77411703D02*
X179223100Y-77475853D01*
X179362481Y-77568985D01*
X179481015Y-77687519D01*
X179574147Y-77826900D01*
X179638297Y-77981772D01*
X179671000Y-78146184D01*
X179671000Y-78313816D01*
X179638297Y-78478228D01*
X179574147Y-78633100D01*
X179481015Y-78772481D01*
X179362481Y-78891015D01*
X179223100Y-78984147D01*
X179068228Y-79048297D01*
X178903816Y-79081000D01*
X178736184Y-79081000D01*
X178571772Y-79048297D01*
X178416900Y-78984147D01*
X178277519Y-78891015D01*
X178158985Y-78772481D01*
X178065853Y-78633100D01*
X178001703Y-78478228D01*
X177969000Y-78313816D01*
X177969000Y-78146184D01*
X178001703Y-77981772D01*
X178065853Y-77826900D01*
X178158985Y-77687519D01*
X178277519Y-77568985D01*
X178416900Y-77475853D01*
X178571772Y-77411703D01*
X178736184Y-77379000D01*
X178903816Y-77379000D01*
X179068228Y-77411703D01*
X179068228Y-77411703D01*
G37*
G36*
X183098677Y-75453465D02*
X183136364Y-75464898D01*
X183171103Y-75483466D01*
X183201548Y-75508452D01*
X183226534Y-75538897D01*
X183245102Y-75573636D01*
X183256535Y-75611323D01*
X183261000Y-75656661D01*
X183261000Y-76195383D01*
X183263402Y-76219769D01*
X183270515Y-76243218D01*
X183282066Y-76264829D01*
X183297612Y-76283771D01*
X183316554Y-76299317D01*
X183338165Y-76310868D01*
X183361614Y-76317981D01*
X183386000Y-76320383D01*
X183410386Y-76317981D01*
X183433835Y-76310868D01*
X183455446Y-76299317D01*
X183474388Y-76283771D01*
X183489931Y-76264833D01*
X183558285Y-76162534D01*
X183558287Y-76162531D01*
X183732531Y-75988287D01*
X183733458Y-75987668D01*
X183937429Y-75851378D01*
X184165097Y-75757075D01*
X184346365Y-75721019D01*
X184406786Y-75709000D01*
X184653214Y-75709000D01*
X184713635Y-75721019D01*
X184894903Y-75757075D01*
X185122571Y-75851378D01*
X185326542Y-75987668D01*
X185327469Y-75988287D01*
X185501713Y-76162531D01*
X185501715Y-76162534D01*
X185638622Y-76367429D01*
X185732925Y-76595097D01*
X185781000Y-76836787D01*
X185781000Y-77083213D01*
X185732925Y-77324903D01*
X185638622Y-77552571D01*
X185548452Y-77687519D01*
X185501713Y-77757469D01*
X185327469Y-77931713D01*
X185327466Y-77931715D01*
X185122571Y-78068622D01*
X184894903Y-78162925D01*
X184725300Y-78196661D01*
X184653214Y-78211000D01*
X184406786Y-78211000D01*
X184334700Y-78196661D01*
X184165097Y-78162925D01*
X183937429Y-78068622D01*
X183732534Y-77931715D01*
X183732531Y-77931713D01*
X183558287Y-77757469D01*
X183511548Y-77687519D01*
X183421378Y-77552571D01*
X183327075Y-77324903D01*
X183279000Y-77083213D01*
X183279000Y-77060377D01*
X183276598Y-77035991D01*
X183269485Y-77012542D01*
X183257934Y-76990931D01*
X183242388Y-76971989D01*
X183223446Y-76956443D01*
X183201835Y-76944892D01*
X183178386Y-76937779D01*
X183154000Y-76935377D01*
X183117715Y-76940759D01*
X183098674Y-76946535D01*
X183053339Y-76951000D01*
X182216661Y-76951000D01*
X182171323Y-76946535D01*
X182133636Y-76935102D01*
X182098897Y-76916534D01*
X182068452Y-76891548D01*
X182043466Y-76861103D01*
X182024898Y-76826364D01*
X182013465Y-76788677D01*
X182009000Y-76743339D01*
X182009000Y-75656661D01*
X182013465Y-75611323D01*
X182024898Y-75573636D01*
X182043466Y-75538897D01*
X182068452Y-75508452D01*
X182098897Y-75483466D01*
X182133636Y-75464898D01*
X182171323Y-75453465D01*
X182216661Y-75449000D01*
X183053339Y-75449000D01*
X183098677Y-75453465D01*
X183098677Y-75453465D01*
G37*
G36*
X181048677Y-75453465D02*
X181086364Y-75464898D01*
X181121103Y-75483466D01*
X181151548Y-75508452D01*
X181176534Y-75538897D01*
X181195102Y-75573636D01*
X181206535Y-75611323D01*
X181211000Y-75656661D01*
X181211000Y-76743339D01*
X181206535Y-76788677D01*
X181195102Y-76826364D01*
X181176534Y-76861103D01*
X181151548Y-76891548D01*
X181121103Y-76916534D01*
X181086364Y-76935102D01*
X181048677Y-76946535D01*
X181003339Y-76951000D01*
X180166661Y-76951000D01*
X180121323Y-76946535D01*
X180083636Y-76935102D01*
X180048897Y-76916534D01*
X180018452Y-76891548D01*
X179993466Y-76861103D01*
X179974898Y-76826364D01*
X179963465Y-76788677D01*
X179959000Y-76743339D01*
X179959000Y-75656661D01*
X179963465Y-75611323D01*
X179974898Y-75573636D01*
X179993466Y-75538897D01*
X180018452Y-75508452D01*
X180048897Y-75483466D01*
X180083636Y-75464898D01*
X180121323Y-75453465D01*
X180166661Y-75449000D01*
X181003339Y-75449000D01*
X181048677Y-75453465D01*
X181048677Y-75453465D01*
G37*
G36*
X184713635Y-71661019D02*
X184894903Y-71697075D01*
X185122571Y-71791378D01*
X185326542Y-71927668D01*
X185327469Y-71928287D01*
X185501713Y-72102531D01*
X185501715Y-72102534D01*
X185638622Y-72307429D01*
X185732925Y-72535097D01*
X185781000Y-72776787D01*
X185781000Y-73023213D01*
X185732925Y-73264903D01*
X185638622Y-73492571D01*
X185555627Y-73616781D01*
X185501713Y-73697469D01*
X185327469Y-73871713D01*
X185327466Y-73871715D01*
X185122571Y-74008622D01*
X184894903Y-74102925D01*
X184714411Y-74138827D01*
X184653214Y-74151000D01*
X184406786Y-74151000D01*
X184345589Y-74138827D01*
X184165097Y-74102925D01*
X183937429Y-74008622D01*
X183732534Y-73871715D01*
X183732531Y-73871713D01*
X183558287Y-73697469D01*
X183504373Y-73616781D01*
X183489931Y-73595167D01*
X183474389Y-73576229D01*
X183455447Y-73560684D01*
X183433836Y-73549132D01*
X183410387Y-73542019D01*
X183386000Y-73539617D01*
X183361614Y-73542019D01*
X183338165Y-73549132D01*
X183316554Y-73560683D01*
X183297612Y-73576228D01*
X183282067Y-73595170D01*
X183270515Y-73616781D01*
X183263402Y-73640230D01*
X183261000Y-73664617D01*
X183261000Y-74203339D01*
X183256535Y-74248677D01*
X183245102Y-74286364D01*
X183226534Y-74321103D01*
X183201548Y-74351548D01*
X183171103Y-74376534D01*
X183136364Y-74395102D01*
X183098677Y-74406535D01*
X183053339Y-74411000D01*
X182216661Y-74411000D01*
X182171323Y-74406535D01*
X182133636Y-74395102D01*
X182098897Y-74376534D01*
X182068452Y-74351548D01*
X182043466Y-74321103D01*
X182024898Y-74286364D01*
X182013465Y-74248677D01*
X182009000Y-74203339D01*
X182009000Y-73116661D01*
X182013465Y-73071323D01*
X182024898Y-73033636D01*
X182043466Y-72998897D01*
X182068452Y-72968452D01*
X182098897Y-72943466D01*
X182133636Y-72924898D01*
X182171323Y-72913465D01*
X182216661Y-72909000D01*
X183053339Y-72909000D01*
X183098674Y-72913465D01*
X183117715Y-72919241D01*
X183141748Y-72924021D01*
X183166253Y-72924021D01*
X183190286Y-72919240D01*
X183212925Y-72909863D01*
X183233300Y-72896249D01*
X183250627Y-72878922D01*
X183264240Y-72858547D01*
X183273618Y-72835908D01*
X183279000Y-72799623D01*
X183279000Y-72776786D01*
X183291086Y-72716025D01*
X183327075Y-72535097D01*
X183421378Y-72307429D01*
X183558285Y-72102534D01*
X183558287Y-72102531D01*
X183732531Y-71928287D01*
X183733458Y-71927668D01*
X183937429Y-71791378D01*
X184165097Y-71697075D01*
X184346365Y-71661019D01*
X184406786Y-71649000D01*
X184653214Y-71649000D01*
X184713635Y-71661019D01*
X184713635Y-71661019D01*
G37*
G36*
X181048677Y-72913465D02*
X181086364Y-72924898D01*
X181121103Y-72943466D01*
X181151548Y-72968452D01*
X181176534Y-72998897D01*
X181195102Y-73033636D01*
X181206535Y-73071323D01*
X181211000Y-73116661D01*
X181211000Y-74203339D01*
X181206535Y-74248677D01*
X181195102Y-74286364D01*
X181176534Y-74321103D01*
X181151548Y-74351548D01*
X181121103Y-74376534D01*
X181086364Y-74395102D01*
X181048677Y-74406535D01*
X181003339Y-74411000D01*
X180166661Y-74411000D01*
X180121323Y-74406535D01*
X180083636Y-74395102D01*
X180048897Y-74376534D01*
X180018452Y-74351548D01*
X179993466Y-74321103D01*
X179974898Y-74286364D01*
X179963465Y-74248677D01*
X179959000Y-74203339D01*
X179959000Y-73116661D01*
X179963465Y-73071323D01*
X179974898Y-73033636D01*
X179993466Y-72998897D01*
X180018452Y-72968452D01*
X180048897Y-72943466D01*
X180083636Y-72924898D01*
X180121323Y-72913465D01*
X180166661Y-72909000D01*
X181003339Y-72909000D01*
X181048677Y-72913465D01*
X181048677Y-72913465D01*
G37*
G36*
X188485331Y-69388211D02*
X188813092Y-69523974D01*
X189108073Y-69721074D01*
X189358926Y-69971927D01*
X189556026Y-70266908D01*
X189691789Y-70594669D01*
X189761000Y-70942616D01*
X189761000Y-71297384D01*
X189691789Y-71645331D01*
X189556026Y-71973092D01*
X189358926Y-72268073D01*
X189108073Y-72518926D01*
X188813092Y-72716026D01*
X188485331Y-72851789D01*
X188137384Y-72921000D01*
X187782616Y-72921000D01*
X187434669Y-72851789D01*
X187106908Y-72716026D01*
X186811927Y-72518926D01*
X186561074Y-72268073D01*
X186363974Y-71973092D01*
X186228211Y-71645331D01*
X186159000Y-71297384D01*
X186159000Y-70942616D01*
X186228211Y-70594669D01*
X186363974Y-70266908D01*
X186561074Y-69971927D01*
X186811927Y-69721074D01*
X187106908Y-69523974D01*
X187434669Y-69388211D01*
X187782616Y-69319000D01*
X188137384Y-69319000D01*
X188485331Y-69388211D01*
X188485331Y-69388211D01*
G37*
G36*
X179068228Y-70811703D02*
X179223100Y-70875853D01*
X179362481Y-70968985D01*
X179481015Y-71087519D01*
X179574147Y-71226900D01*
X179638297Y-71381772D01*
X179671000Y-71546184D01*
X179671000Y-71713816D01*
X179638297Y-71878228D01*
X179574147Y-72033100D01*
X179481015Y-72172481D01*
X179362481Y-72291015D01*
X179223100Y-72384147D01*
X179068228Y-72448297D01*
X178903816Y-72481000D01*
X178736184Y-72481000D01*
X178571772Y-72448297D01*
X178416900Y-72384147D01*
X178277519Y-72291015D01*
X178158985Y-72172481D01*
X178065853Y-72033100D01*
X178001703Y-71878228D01*
X177969000Y-71713816D01*
X177969000Y-71546184D01*
X178001703Y-71381772D01*
X178065853Y-71226900D01*
X178158985Y-71087519D01*
X178277519Y-70968985D01*
X178416900Y-70875853D01*
X178571772Y-70811703D01*
X178736184Y-70779000D01*
X178903816Y-70779000D01*
X179068228Y-70811703D01*
X179068228Y-70811703D01*
G37*
G36*
X179068228Y-68521703D02*
X179223100Y-68585853D01*
X179362481Y-68678985D01*
X179481015Y-68797519D01*
X179574147Y-68936900D01*
X179638297Y-69091772D01*
X179671000Y-69256184D01*
X179671000Y-69423816D01*
X179638297Y-69588228D01*
X179574147Y-69743100D01*
X179481015Y-69882481D01*
X179362481Y-70001015D01*
X179223100Y-70094147D01*
X179068228Y-70158297D01*
X178903816Y-70191000D01*
X178736184Y-70191000D01*
X178571772Y-70158297D01*
X178416900Y-70094147D01*
X178277519Y-70001015D01*
X178158985Y-69882481D01*
X178065853Y-69743100D01*
X178001703Y-69588228D01*
X177969000Y-69423816D01*
X177969000Y-69256184D01*
X178001703Y-69091772D01*
X178065853Y-68936900D01*
X178158985Y-68797519D01*
X178277519Y-68678985D01*
X178416900Y-68585853D01*
X178571772Y-68521703D01*
X178736184Y-68489000D01*
X178903816Y-68489000D01*
X179068228Y-68521703D01*
X179068228Y-68521703D01*
G37*
G36*
X174951000Y-69566000D02*
X173349000Y-69566000D01*
X173349000Y-68864000D01*
X174951000Y-68864000D01*
X174951000Y-69566000D01*
X174951000Y-69566000D01*
G37*
G36*
X169551000Y-69566000D02*
X167949000Y-69566000D01*
X167949000Y-68864000D01*
X169551000Y-68864000D01*
X169551000Y-69566000D01*
X169551000Y-69566000D01*
G37*
G36*
X185668228Y-67496703D02*
X185823100Y-67560853D01*
X185962481Y-67653985D01*
X186081015Y-67772519D01*
X186174147Y-67911900D01*
X186238297Y-68066772D01*
X186271000Y-68231184D01*
X186271000Y-68398816D01*
X186238297Y-68563228D01*
X186174147Y-68718100D01*
X186081015Y-68857481D01*
X185962481Y-68976015D01*
X185823100Y-69069147D01*
X185668228Y-69133297D01*
X185503816Y-69166000D01*
X185336184Y-69166000D01*
X185171772Y-69133297D01*
X185016900Y-69069147D01*
X184877519Y-68976015D01*
X184758985Y-68857481D01*
X184665853Y-68718100D01*
X184601703Y-68563228D01*
X184569000Y-68398816D01*
X184569000Y-68231184D01*
X184601703Y-68066772D01*
X184665853Y-67911900D01*
X184758985Y-67772519D01*
X184877519Y-67653985D01*
X185016900Y-67560853D01*
X185171772Y-67496703D01*
X185336184Y-67464000D01*
X185503816Y-67464000D01*
X185668228Y-67496703D01*
X185668228Y-67496703D01*
G37*
G36*
X174951000Y-68296000D02*
X173349000Y-68296000D01*
X173349000Y-67594000D01*
X174951000Y-67594000D01*
X174951000Y-68296000D01*
X174951000Y-68296000D01*
G37*
G36*
X169551000Y-68296000D02*
X167949000Y-68296000D01*
X167949000Y-67594000D01*
X169551000Y-67594000D01*
X169551000Y-68296000D01*
X169551000Y-68296000D01*
G37*
G36*
X183888228Y-66481703D02*
X184043100Y-66545853D01*
X184182481Y-66638985D01*
X184301015Y-66757519D01*
X184394147Y-66896900D01*
X184458297Y-67051772D01*
X184491000Y-67216184D01*
X184491000Y-67383816D01*
X184458297Y-67548228D01*
X184394147Y-67703100D01*
X184301015Y-67842481D01*
X184182481Y-67961015D01*
X184043100Y-68054147D01*
X183888228Y-68118297D01*
X183723816Y-68151000D01*
X183556184Y-68151000D01*
X183391772Y-68118297D01*
X183236900Y-68054147D01*
X183097519Y-67961015D01*
X182978985Y-67842481D01*
X182885853Y-67703100D01*
X182821703Y-67548228D01*
X182789000Y-67383816D01*
X182789000Y-67216184D01*
X182821703Y-67051772D01*
X182885853Y-66896900D01*
X182978985Y-66757519D01*
X183097519Y-66638985D01*
X183236900Y-66545853D01*
X183391772Y-66481703D01*
X183556184Y-66449000D01*
X183723816Y-66449000D01*
X183888228Y-66481703D01*
X183888228Y-66481703D01*
G37*
G36*
X185668228Y-65466703D02*
X185823100Y-65530853D01*
X185962481Y-65623985D01*
X186081015Y-65742519D01*
X186174147Y-65881900D01*
X186238297Y-66036772D01*
X186271000Y-66201184D01*
X186271000Y-66368816D01*
X186238297Y-66533228D01*
X186174147Y-66688100D01*
X186081015Y-66827481D01*
X185962481Y-66946015D01*
X185823100Y-67039147D01*
X185668228Y-67103297D01*
X185503816Y-67136000D01*
X185336184Y-67136000D01*
X185171772Y-67103297D01*
X185016900Y-67039147D01*
X184877519Y-66946015D01*
X184758985Y-66827481D01*
X184665853Y-66688100D01*
X184601703Y-66533228D01*
X184569000Y-66368816D01*
X184569000Y-66201184D01*
X184601703Y-66036772D01*
X184665853Y-65881900D01*
X184758985Y-65742519D01*
X184877519Y-65623985D01*
X185016900Y-65530853D01*
X185171772Y-65466703D01*
X185336184Y-65434000D01*
X185503816Y-65434000D01*
X185668228Y-65466703D01*
X185668228Y-65466703D01*
G37*
G36*
X169551000Y-67026000D02*
X167949000Y-67026000D01*
X167949000Y-66324000D01*
X169551000Y-66324000D01*
X169551000Y-67026000D01*
X169551000Y-67026000D01*
G37*
G36*
X174951000Y-67026000D02*
X173349000Y-67026000D01*
X173349000Y-66324000D01*
X174951000Y-66324000D01*
X174951000Y-67026000D01*
X174951000Y-67026000D01*
G37*
G36*
X183888228Y-64451703D02*
X184043100Y-64515853D01*
X184182481Y-64608985D01*
X184301015Y-64727519D01*
X184394147Y-64866900D01*
X184458297Y-65021772D01*
X184491000Y-65186184D01*
X184491000Y-65353816D01*
X184458297Y-65518228D01*
X184394147Y-65673100D01*
X184301015Y-65812481D01*
X184182481Y-65931015D01*
X184043100Y-66024147D01*
X183888228Y-66088297D01*
X183723816Y-66121000D01*
X183556184Y-66121000D01*
X183391772Y-66088297D01*
X183236900Y-66024147D01*
X183097519Y-65931015D01*
X182978985Y-65812481D01*
X182885853Y-65673100D01*
X182821703Y-65518228D01*
X182789000Y-65353816D01*
X182789000Y-65186184D01*
X182821703Y-65021772D01*
X182885853Y-64866900D01*
X182978985Y-64727519D01*
X183097519Y-64608985D01*
X183236900Y-64515853D01*
X183391772Y-64451703D01*
X183556184Y-64419000D01*
X183723816Y-64419000D01*
X183888228Y-64451703D01*
X183888228Y-64451703D01*
G37*
G36*
X147556595Y-64412057D02*
X147594282Y-64423490D01*
X147629021Y-64442058D01*
X147659466Y-64467044D01*
X147684452Y-64497489D01*
X147703020Y-64532228D01*
X147714453Y-64569915D01*
X147718918Y-64615253D01*
X147718918Y-65701931D01*
X147714453Y-65747269D01*
X147703020Y-65784956D01*
X147684452Y-65819695D01*
X147659466Y-65850140D01*
X147629021Y-65875126D01*
X147594282Y-65893694D01*
X147556595Y-65905127D01*
X147511257Y-65909592D01*
X146674579Y-65909592D01*
X146629241Y-65905127D01*
X146591554Y-65893694D01*
X146556815Y-65875126D01*
X146526370Y-65850140D01*
X146501384Y-65819695D01*
X146482816Y-65784956D01*
X146471383Y-65747269D01*
X146466918Y-65701931D01*
X146466918Y-64615253D01*
X146471383Y-64569915D01*
X146482816Y-64532228D01*
X146501384Y-64497489D01*
X146526370Y-64467044D01*
X146556815Y-64442058D01*
X146591554Y-64423490D01*
X146629241Y-64412057D01*
X146674579Y-64407592D01*
X147511257Y-64407592D01*
X147556595Y-64412057D01*
X147556595Y-64412057D01*
G37*
G36*
X149606595Y-64412057D02*
X149644282Y-64423490D01*
X149679021Y-64442058D01*
X149709466Y-64467044D01*
X149734452Y-64497489D01*
X149753020Y-64532228D01*
X149764453Y-64569915D01*
X149768918Y-64615253D01*
X149768918Y-65701931D01*
X149764453Y-65747269D01*
X149753020Y-65784956D01*
X149734452Y-65819695D01*
X149709466Y-65850140D01*
X149679021Y-65875126D01*
X149644282Y-65893694D01*
X149606595Y-65905127D01*
X149561257Y-65909592D01*
X148724579Y-65909592D01*
X148679241Y-65905127D01*
X148641554Y-65893694D01*
X148606815Y-65875126D01*
X148576370Y-65850140D01*
X148551384Y-65819695D01*
X148532816Y-65784956D01*
X148521383Y-65747269D01*
X148516918Y-65701931D01*
X148516918Y-64615253D01*
X148521383Y-64569915D01*
X148532816Y-64532228D01*
X148551384Y-64497489D01*
X148576370Y-64467044D01*
X148606815Y-64442058D01*
X148641554Y-64423490D01*
X148679241Y-64412057D01*
X148724579Y-64407592D01*
X149561257Y-64407592D01*
X149606595Y-64412057D01*
X149606595Y-64412057D01*
G37*
G36*
X169551000Y-65756000D02*
X167949000Y-65756000D01*
X167949000Y-65054000D01*
X169551000Y-65054000D01*
X169551000Y-65756000D01*
X169551000Y-65756000D01*
G37*
G36*
X174951000Y-65756000D02*
X173349000Y-65756000D01*
X173349000Y-65054000D01*
X174951000Y-65054000D01*
X174951000Y-65756000D01*
X174951000Y-65756000D01*
G37*
G36*
X185668228Y-63436703D02*
X185823100Y-63500853D01*
X185962481Y-63593985D01*
X186081015Y-63712519D01*
X186174147Y-63851900D01*
X186238297Y-64006772D01*
X186271000Y-64171184D01*
X186271000Y-64338816D01*
X186238297Y-64503228D01*
X186174147Y-64658100D01*
X186081015Y-64797481D01*
X185962481Y-64916015D01*
X185823100Y-65009147D01*
X185668228Y-65073297D01*
X185503816Y-65106000D01*
X185336184Y-65106000D01*
X185171772Y-65073297D01*
X185016900Y-65009147D01*
X184877519Y-64916015D01*
X184758985Y-64797481D01*
X184665853Y-64658100D01*
X184601703Y-64503228D01*
X184569000Y-64338816D01*
X184569000Y-64171184D01*
X184601703Y-64006772D01*
X184665853Y-63851900D01*
X184758985Y-63712519D01*
X184877519Y-63593985D01*
X185016900Y-63500853D01*
X185171772Y-63436703D01*
X185336184Y-63404000D01*
X185503816Y-63404000D01*
X185668228Y-63436703D01*
X185668228Y-63436703D01*
G37*
G36*
X169551000Y-64486000D02*
X167949000Y-64486000D01*
X167949000Y-63784000D01*
X169551000Y-63784000D01*
X169551000Y-64486000D01*
X169551000Y-64486000D01*
G37*
G36*
X174951000Y-64486000D02*
X173349000Y-64486000D01*
X173349000Y-63784000D01*
X174951000Y-63784000D01*
X174951000Y-64486000D01*
X174951000Y-64486000D01*
G37*
G36*
X183888228Y-62421703D02*
X184043100Y-62485853D01*
X184182481Y-62578985D01*
X184301015Y-62697519D01*
X184394147Y-62836900D01*
X184458297Y-62991772D01*
X184491000Y-63156184D01*
X184491000Y-63323816D01*
X184458297Y-63488228D01*
X184394147Y-63643100D01*
X184301015Y-63782481D01*
X184182481Y-63901015D01*
X184043100Y-63994147D01*
X183888228Y-64058297D01*
X183723816Y-64091000D01*
X183556184Y-64091000D01*
X183391772Y-64058297D01*
X183236900Y-63994147D01*
X183097519Y-63901015D01*
X182978985Y-63782481D01*
X182885853Y-63643100D01*
X182821703Y-63488228D01*
X182789000Y-63323816D01*
X182789000Y-63156184D01*
X182821703Y-62991772D01*
X182885853Y-62836900D01*
X182978985Y-62697519D01*
X183097519Y-62578985D01*
X183236900Y-62485853D01*
X183391772Y-62421703D01*
X183556184Y-62389000D01*
X183723816Y-62389000D01*
X183888228Y-62421703D01*
X183888228Y-62421703D01*
G37*
G36*
X174951000Y-63216000D02*
X173349000Y-63216000D01*
X173349000Y-62514000D01*
X174951000Y-62514000D01*
X174951000Y-63216000D01*
X174951000Y-63216000D01*
G37*
G36*
X169551000Y-63216000D02*
X167949000Y-63216000D01*
X167949000Y-62514000D01*
X169551000Y-62514000D01*
X169551000Y-63216000D01*
X169551000Y-63216000D01*
G37*
G36*
X185668228Y-61406703D02*
X185823100Y-61470853D01*
X185962481Y-61563985D01*
X186081015Y-61682519D01*
X186174147Y-61821900D01*
X186238297Y-61976772D01*
X186271000Y-62141184D01*
X186271000Y-62308816D01*
X186238297Y-62473228D01*
X186174147Y-62628100D01*
X186081015Y-62767481D01*
X185962481Y-62886015D01*
X185823100Y-62979147D01*
X185668228Y-63043297D01*
X185503816Y-63076000D01*
X185336184Y-63076000D01*
X185171772Y-63043297D01*
X185016900Y-62979147D01*
X184877519Y-62886015D01*
X184758985Y-62767481D01*
X184665853Y-62628100D01*
X184601703Y-62473228D01*
X184569000Y-62308816D01*
X184569000Y-62141184D01*
X184601703Y-61976772D01*
X184665853Y-61821900D01*
X184758985Y-61682519D01*
X184877519Y-61563985D01*
X185016900Y-61470853D01*
X185171772Y-61406703D01*
X185336184Y-61374000D01*
X185503816Y-61374000D01*
X185668228Y-61406703D01*
X185668228Y-61406703D01*
G37*
G36*
X183888228Y-60391703D02*
X184043100Y-60455853D01*
X184182481Y-60548985D01*
X184301015Y-60667519D01*
X184394147Y-60806900D01*
X184458297Y-60961772D01*
X184491000Y-61126184D01*
X184491000Y-61293816D01*
X184458297Y-61458228D01*
X184394147Y-61613100D01*
X184301015Y-61752481D01*
X184182481Y-61871015D01*
X184043100Y-61964147D01*
X183888228Y-62028297D01*
X183723816Y-62061000D01*
X183556184Y-62061000D01*
X183391772Y-62028297D01*
X183236900Y-61964147D01*
X183097519Y-61871015D01*
X182978985Y-61752481D01*
X182885853Y-61613100D01*
X182821703Y-61458228D01*
X182789000Y-61293816D01*
X182789000Y-61126184D01*
X182821703Y-60961772D01*
X182885853Y-60806900D01*
X182978985Y-60667519D01*
X183097519Y-60548985D01*
X183236900Y-60455853D01*
X183391772Y-60391703D01*
X183556184Y-60359000D01*
X183723816Y-60359000D01*
X183888228Y-60391703D01*
X183888228Y-60391703D01*
G37*
G36*
X174951000Y-61946000D02*
X173349000Y-61946000D01*
X173349000Y-61244000D01*
X174951000Y-61244000D01*
X174951000Y-61946000D01*
X174951000Y-61946000D01*
G37*
G36*
X169551000Y-61946000D02*
X167949000Y-61946000D01*
X167949000Y-61244000D01*
X169551000Y-61244000D01*
X169551000Y-61946000D01*
X169551000Y-61946000D01*
G37*
G36*
X155691595Y-59847057D02*
X155729282Y-59858490D01*
X155764021Y-59877058D01*
X155794466Y-59902044D01*
X155819452Y-59932489D01*
X155838020Y-59967228D01*
X155849453Y-60004915D01*
X155853918Y-60050253D01*
X155853918Y-60886931D01*
X155849453Y-60932269D01*
X155838020Y-60969956D01*
X155819452Y-61004695D01*
X155794466Y-61035140D01*
X155764021Y-61060126D01*
X155729282Y-61078694D01*
X155691595Y-61090127D01*
X155646257Y-61094592D01*
X154559579Y-61094592D01*
X154514241Y-61090127D01*
X154476554Y-61078694D01*
X154441815Y-61060126D01*
X154411370Y-61035140D01*
X154386384Y-61004695D01*
X154367816Y-60969956D01*
X154356383Y-60932269D01*
X154351918Y-60886931D01*
X154351918Y-60050253D01*
X154356383Y-60004915D01*
X154367816Y-59967228D01*
X154386384Y-59932489D01*
X154411370Y-59902044D01*
X154441815Y-59877058D01*
X154476554Y-59858490D01*
X154514241Y-59847057D01*
X154559579Y-59842592D01*
X155646257Y-59842592D01*
X155691595Y-59847057D01*
X155691595Y-59847057D01*
G37*
G36*
X141721595Y-59847057D02*
X141759282Y-59858490D01*
X141794021Y-59877058D01*
X141824466Y-59902044D01*
X141849452Y-59932489D01*
X141868020Y-59967228D01*
X141879453Y-60004915D01*
X141883918Y-60050253D01*
X141883918Y-60886931D01*
X141879453Y-60932269D01*
X141868020Y-60969956D01*
X141849452Y-61004695D01*
X141824466Y-61035140D01*
X141794021Y-61060126D01*
X141759282Y-61078694D01*
X141721595Y-61090127D01*
X141676257Y-61094592D01*
X140589579Y-61094592D01*
X140544241Y-61090127D01*
X140506554Y-61078694D01*
X140471815Y-61060126D01*
X140441370Y-61035140D01*
X140416384Y-61004695D01*
X140397816Y-60969956D01*
X140386383Y-60932269D01*
X140381918Y-60886931D01*
X140381918Y-60050253D01*
X140386383Y-60004915D01*
X140397816Y-59967228D01*
X140416384Y-59932489D01*
X140441370Y-59902044D01*
X140471815Y-59877058D01*
X140506554Y-59858490D01*
X140544241Y-59847057D01*
X140589579Y-59842592D01*
X141676257Y-59842592D01*
X141721595Y-59847057D01*
X141721595Y-59847057D01*
G37*
G36*
X179068228Y-59381703D02*
X179223100Y-59445853D01*
X179362481Y-59538985D01*
X179481015Y-59657519D01*
X179574147Y-59796900D01*
X179638297Y-59951772D01*
X179671000Y-60116184D01*
X179671000Y-60283816D01*
X179638297Y-60448228D01*
X179574147Y-60603100D01*
X179481015Y-60742481D01*
X179362481Y-60861015D01*
X179223100Y-60954147D01*
X179068228Y-61018297D01*
X178903816Y-61051000D01*
X178736184Y-61051000D01*
X178571772Y-61018297D01*
X178416900Y-60954147D01*
X178277519Y-60861015D01*
X178158985Y-60742481D01*
X178065853Y-60603100D01*
X178001703Y-60448228D01*
X177969000Y-60283816D01*
X177969000Y-60116184D01*
X178001703Y-59951772D01*
X178065853Y-59796900D01*
X178158985Y-59657519D01*
X178277519Y-59538985D01*
X178416900Y-59445853D01*
X178571772Y-59381703D01*
X178736184Y-59349000D01*
X178903816Y-59349000D01*
X179068228Y-59381703D01*
X179068228Y-59381703D01*
G37*
G36*
X150298918Y-60896592D02*
X148636918Y-60896592D01*
X148636918Y-58244592D01*
X150298918Y-58244592D01*
X150298918Y-60896592D01*
X150298918Y-60896592D01*
G37*
G36*
X147598918Y-60896592D02*
X145936918Y-60896592D01*
X145936918Y-58244592D01*
X147598918Y-58244592D01*
X147598918Y-60896592D01*
X147598918Y-60896592D01*
G37*
G36*
X169551000Y-60676000D02*
X167949000Y-60676000D01*
X167949000Y-59974000D01*
X169551000Y-59974000D01*
X169551000Y-60676000D01*
X169551000Y-60676000D01*
G37*
G36*
X174951000Y-60676000D02*
X173349000Y-60676000D01*
X173349000Y-59974000D01*
X174951000Y-59974000D01*
X174951000Y-60676000D01*
X174951000Y-60676000D01*
G37*
G36*
X188485331Y-56688211D02*
X188813092Y-56823974D01*
X189108073Y-57021074D01*
X189358926Y-57271927D01*
X189556026Y-57566908D01*
X189691789Y-57894669D01*
X189761000Y-58242616D01*
X189761000Y-58597384D01*
X189691789Y-58945331D01*
X189556026Y-59273092D01*
X189358926Y-59568073D01*
X189108073Y-59818926D01*
X188813092Y-60016026D01*
X188485331Y-60151789D01*
X188137384Y-60221000D01*
X187782616Y-60221000D01*
X187434669Y-60151789D01*
X187106908Y-60016026D01*
X186811927Y-59818926D01*
X186561074Y-59568073D01*
X186363974Y-59273092D01*
X186228211Y-58945331D01*
X186159000Y-58597384D01*
X186159000Y-58242616D01*
X186228211Y-57894669D01*
X186363974Y-57566908D01*
X186561074Y-57271927D01*
X186811927Y-57021074D01*
X187106908Y-56823974D01*
X187434669Y-56688211D01*
X187782616Y-56619000D01*
X188137384Y-56619000D01*
X188485331Y-56688211D01*
X188485331Y-56688211D01*
G37*
G36*
X173428677Y-57673465D02*
X173466364Y-57684898D01*
X173501103Y-57703466D01*
X173531548Y-57728452D01*
X173556534Y-57758897D01*
X173575102Y-57793636D01*
X173586535Y-57831323D01*
X173591000Y-57876661D01*
X173591000Y-58963339D01*
X173586535Y-59008677D01*
X173575102Y-59046364D01*
X173556534Y-59081103D01*
X173531548Y-59111548D01*
X173501103Y-59136534D01*
X173466364Y-59155102D01*
X173428677Y-59166535D01*
X173383339Y-59171000D01*
X172546661Y-59171000D01*
X172501323Y-59166535D01*
X172463636Y-59155102D01*
X172428897Y-59136534D01*
X172398452Y-59111548D01*
X172373466Y-59081103D01*
X172354898Y-59046364D01*
X172343465Y-59008677D01*
X172339000Y-58963339D01*
X172339000Y-57876661D01*
X172343465Y-57831323D01*
X172354898Y-57793636D01*
X172373466Y-57758897D01*
X172398452Y-57728452D01*
X172428897Y-57703466D01*
X172463636Y-57684898D01*
X172501323Y-57673465D01*
X172546661Y-57669000D01*
X173383339Y-57669000D01*
X173428677Y-57673465D01*
X173428677Y-57673465D01*
G37*
G36*
X170398677Y-57673465D02*
X170436364Y-57684898D01*
X170471103Y-57703466D01*
X170501548Y-57728452D01*
X170526534Y-57758897D01*
X170545102Y-57793636D01*
X170556535Y-57831323D01*
X170561000Y-57876661D01*
X170561000Y-58963339D01*
X170556535Y-59008677D01*
X170545102Y-59046364D01*
X170526534Y-59081103D01*
X170501548Y-59111548D01*
X170471103Y-59136534D01*
X170436364Y-59155102D01*
X170398677Y-59166535D01*
X170353339Y-59171000D01*
X169516661Y-59171000D01*
X169471323Y-59166535D01*
X169433636Y-59155102D01*
X169398897Y-59136534D01*
X169368452Y-59111548D01*
X169343466Y-59081103D01*
X169324898Y-59046364D01*
X169313465Y-59008677D01*
X169309000Y-58963339D01*
X169309000Y-57876661D01*
X169313465Y-57831323D01*
X169324898Y-57793636D01*
X169343466Y-57758897D01*
X169368452Y-57728452D01*
X169398897Y-57703466D01*
X169433636Y-57684898D01*
X169471323Y-57673465D01*
X169516661Y-57669000D01*
X170353339Y-57669000D01*
X170398677Y-57673465D01*
X170398677Y-57673465D01*
G37*
G36*
X168348677Y-57673465D02*
X168386364Y-57684898D01*
X168421103Y-57703466D01*
X168451548Y-57728452D01*
X168476534Y-57758897D01*
X168495102Y-57793636D01*
X168506535Y-57831323D01*
X168511000Y-57876661D01*
X168511000Y-58963339D01*
X168506535Y-59008677D01*
X168495102Y-59046364D01*
X168476534Y-59081103D01*
X168451548Y-59111548D01*
X168421103Y-59136534D01*
X168386364Y-59155102D01*
X168348677Y-59166535D01*
X168303339Y-59171000D01*
X167466661Y-59171000D01*
X167421323Y-59166535D01*
X167383636Y-59155102D01*
X167348897Y-59136534D01*
X167318452Y-59111548D01*
X167293466Y-59081103D01*
X167274898Y-59046364D01*
X167263465Y-59008677D01*
X167259000Y-58963339D01*
X167259000Y-57876661D01*
X167263465Y-57831323D01*
X167274898Y-57793636D01*
X167293466Y-57758897D01*
X167318452Y-57728452D01*
X167348897Y-57703466D01*
X167383636Y-57684898D01*
X167421323Y-57673465D01*
X167466661Y-57669000D01*
X168303339Y-57669000D01*
X168348677Y-57673465D01*
X168348677Y-57673465D01*
G37*
G36*
X175478677Y-57673465D02*
X175516364Y-57684898D01*
X175551103Y-57703466D01*
X175581548Y-57728452D01*
X175606534Y-57758897D01*
X175625102Y-57793636D01*
X175636535Y-57831323D01*
X175641000Y-57876661D01*
X175641000Y-58963339D01*
X175636535Y-59008677D01*
X175625102Y-59046364D01*
X175606534Y-59081103D01*
X175581548Y-59111548D01*
X175551103Y-59136534D01*
X175516364Y-59155102D01*
X175478677Y-59166535D01*
X175433339Y-59171000D01*
X174596661Y-59171000D01*
X174551323Y-59166535D01*
X174513636Y-59155102D01*
X174478897Y-59136534D01*
X174448452Y-59111548D01*
X174423466Y-59081103D01*
X174404898Y-59046364D01*
X174393465Y-59008677D01*
X174389000Y-58963339D01*
X174389000Y-57876661D01*
X174393465Y-57831323D01*
X174404898Y-57793636D01*
X174423466Y-57758897D01*
X174448452Y-57728452D01*
X174478897Y-57703466D01*
X174513636Y-57684898D01*
X174551323Y-57673465D01*
X174596661Y-57669000D01*
X175433339Y-57669000D01*
X175478677Y-57673465D01*
X175478677Y-57673465D01*
G37*
G36*
X141721595Y-57797057D02*
X141759282Y-57808490D01*
X141794021Y-57827058D01*
X141824466Y-57852044D01*
X141849452Y-57882489D01*
X141868020Y-57917228D01*
X141879453Y-57954915D01*
X141883918Y-58000253D01*
X141883918Y-58836931D01*
X141879453Y-58882269D01*
X141868020Y-58919956D01*
X141849452Y-58954695D01*
X141824466Y-58985140D01*
X141794021Y-59010126D01*
X141759282Y-59028694D01*
X141721595Y-59040127D01*
X141676257Y-59044592D01*
X140589579Y-59044592D01*
X140544241Y-59040127D01*
X140506554Y-59028694D01*
X140471815Y-59010126D01*
X140441370Y-58985140D01*
X140416384Y-58954695D01*
X140397816Y-58919956D01*
X140386383Y-58882269D01*
X140381918Y-58836931D01*
X140381918Y-58000253D01*
X140386383Y-57954915D01*
X140397816Y-57917228D01*
X140416384Y-57882489D01*
X140441370Y-57852044D01*
X140471815Y-57827058D01*
X140506554Y-57808490D01*
X140544241Y-57797057D01*
X140589579Y-57792592D01*
X141676257Y-57792592D01*
X141721595Y-57797057D01*
X141721595Y-57797057D01*
G37*
G36*
X155691595Y-57797057D02*
X155729282Y-57808490D01*
X155764021Y-57827058D01*
X155794466Y-57852044D01*
X155819452Y-57882489D01*
X155838020Y-57917228D01*
X155849453Y-57954915D01*
X155853918Y-58000253D01*
X155853918Y-58836931D01*
X155849453Y-58882269D01*
X155838020Y-58919956D01*
X155819452Y-58954695D01*
X155794466Y-58985140D01*
X155764021Y-59010126D01*
X155729282Y-59028694D01*
X155691595Y-59040127D01*
X155646257Y-59044592D01*
X154559579Y-59044592D01*
X154514241Y-59040127D01*
X154476554Y-59028694D01*
X154441815Y-59010126D01*
X154411370Y-58985140D01*
X154386384Y-58954695D01*
X154367816Y-58919956D01*
X154356383Y-58882269D01*
X154351918Y-58836931D01*
X154351918Y-58000253D01*
X154356383Y-57954915D01*
X154367816Y-57917228D01*
X154386384Y-57882489D01*
X154411370Y-57852044D01*
X154441815Y-57827058D01*
X154476554Y-57808490D01*
X154514241Y-57797057D01*
X154559579Y-57792592D01*
X155646257Y-57792592D01*
X155691595Y-57797057D01*
X155691595Y-57797057D01*
G37*
G36*
X179068228Y-57091703D02*
X179223100Y-57155853D01*
X179362481Y-57248985D01*
X179481015Y-57367519D01*
X179574147Y-57506900D01*
X179638297Y-57661772D01*
X179671000Y-57826184D01*
X179671000Y-57993816D01*
X179638297Y-58158228D01*
X179574147Y-58313100D01*
X179481015Y-58452481D01*
X179362481Y-58571015D01*
X179223100Y-58664147D01*
X179068228Y-58728297D01*
X178903816Y-58761000D01*
X178736184Y-58761000D01*
X178571772Y-58728297D01*
X178416900Y-58664147D01*
X178277519Y-58571015D01*
X178158985Y-58452481D01*
X178065853Y-58313100D01*
X178001703Y-58158228D01*
X177969000Y-57993816D01*
X177969000Y-57826184D01*
X178001703Y-57661772D01*
X178065853Y-57506900D01*
X178158985Y-57367519D01*
X178277519Y-57248985D01*
X178416900Y-57155853D01*
X178571772Y-57091703D01*
X178736184Y-57059000D01*
X178903816Y-57059000D01*
X179068228Y-57091703D01*
X179068228Y-57091703D01*
G37*
G36*
X183098677Y-55133465D02*
X183136364Y-55144898D01*
X183171103Y-55163466D01*
X183201548Y-55188452D01*
X183226534Y-55218897D01*
X183245102Y-55253636D01*
X183256535Y-55291323D01*
X183261000Y-55336661D01*
X183261000Y-55875383D01*
X183263402Y-55899769D01*
X183270515Y-55923218D01*
X183282066Y-55944829D01*
X183297612Y-55963771D01*
X183316554Y-55979317D01*
X183338165Y-55990868D01*
X183361614Y-55997981D01*
X183386000Y-56000383D01*
X183410386Y-55997981D01*
X183433835Y-55990868D01*
X183455446Y-55979317D01*
X183474388Y-55963771D01*
X183489931Y-55944833D01*
X183558285Y-55842534D01*
X183558287Y-55842531D01*
X183732531Y-55668287D01*
X183733458Y-55667668D01*
X183937429Y-55531378D01*
X184165097Y-55437075D01*
X184346365Y-55401019D01*
X184406786Y-55389000D01*
X184653214Y-55389000D01*
X184713635Y-55401019D01*
X184894903Y-55437075D01*
X185122571Y-55531378D01*
X185326542Y-55667668D01*
X185327469Y-55668287D01*
X185501713Y-55842531D01*
X185501715Y-55842534D01*
X185638622Y-56047429D01*
X185732925Y-56275097D01*
X185781000Y-56516787D01*
X185781000Y-56763213D01*
X185732925Y-57004903D01*
X185638622Y-57232571D01*
X185548452Y-57367519D01*
X185501713Y-57437469D01*
X185327469Y-57611713D01*
X185327466Y-57611715D01*
X185122571Y-57748622D01*
X184894903Y-57842925D01*
X184747174Y-57872310D01*
X184653214Y-57891000D01*
X184406786Y-57891000D01*
X184312826Y-57872310D01*
X184165097Y-57842925D01*
X183937429Y-57748622D01*
X183732534Y-57611715D01*
X183732531Y-57611713D01*
X183558287Y-57437469D01*
X183511548Y-57367519D01*
X183421378Y-57232571D01*
X183327075Y-57004903D01*
X183279000Y-56763213D01*
X183279000Y-56740377D01*
X183276598Y-56715991D01*
X183269485Y-56692542D01*
X183257934Y-56670931D01*
X183242388Y-56651989D01*
X183223446Y-56636443D01*
X183201835Y-56624892D01*
X183178386Y-56617779D01*
X183154000Y-56615377D01*
X183117715Y-56620759D01*
X183098674Y-56626535D01*
X183053339Y-56631000D01*
X182216661Y-56631000D01*
X182171323Y-56626535D01*
X182133636Y-56615102D01*
X182098897Y-56596534D01*
X182068452Y-56571548D01*
X182043466Y-56541103D01*
X182024898Y-56506364D01*
X182013465Y-56468677D01*
X182009000Y-56423339D01*
X182009000Y-55336661D01*
X182013465Y-55291323D01*
X182024898Y-55253636D01*
X182043466Y-55218897D01*
X182068452Y-55188452D01*
X182098897Y-55163466D01*
X182133636Y-55144898D01*
X182171323Y-55133465D01*
X182216661Y-55129000D01*
X183053339Y-55129000D01*
X183098677Y-55133465D01*
X183098677Y-55133465D01*
G37*
G36*
X181048677Y-55133465D02*
X181086364Y-55144898D01*
X181121103Y-55163466D01*
X181151548Y-55188452D01*
X181176534Y-55218897D01*
X181195102Y-55253636D01*
X181206535Y-55291323D01*
X181211000Y-55336661D01*
X181211000Y-56423339D01*
X181206535Y-56468677D01*
X181195102Y-56506364D01*
X181176534Y-56541103D01*
X181151548Y-56571548D01*
X181121103Y-56596534D01*
X181086364Y-56615102D01*
X181048677Y-56626535D01*
X181003339Y-56631000D01*
X180166661Y-56631000D01*
X180121323Y-56626535D01*
X180083636Y-56615102D01*
X180048897Y-56596534D01*
X180018452Y-56571548D01*
X179993466Y-56541103D01*
X179974898Y-56506364D01*
X179963465Y-56468677D01*
X179959000Y-56423339D01*
X179959000Y-55336661D01*
X179963465Y-55291323D01*
X179974898Y-55253636D01*
X179993466Y-55218897D01*
X180018452Y-55188452D01*
X180048897Y-55163466D01*
X180083636Y-55144898D01*
X180121323Y-55133465D01*
X180166661Y-55129000D01*
X181003339Y-55129000D01*
X181048677Y-55133465D01*
X181048677Y-55133465D01*
G37*
M02*
